; NON-PLATED HOLES START AT T1
; THROUGH (PLATED) HOLES START AT T100
M48
INCH
T100C0.015748
T101C0.044000
T102C0.038000
%
T100
X013535Y008558
X014535Y007558
X025535Y005558
X021535Y006558
T101
X004535Y007557
X004535Y002557
X004535Y008557
X004535Y001557
X004535Y006557
X004535Y003557
X004535Y004557
X004535Y005557
T102
X019535Y010446
X027535Y010446
X025535Y000557
X028535Y000557
X020535Y000557
X029535Y010446
X024535Y000557
X027535Y000557
X018535Y000557
X031535Y010446
X031535Y000557
X029535Y000557
X025535Y010446
X030535Y010446
X034535Y000557
X022535Y010446
X033535Y000557
X016535Y000557
X026535Y000557
X019535Y000557
X028535Y010446
X016535Y010446
X021535Y010446
X024535Y010446
X020535Y010446
X032535Y000557
X021535Y000557
X033535Y010446
X017535Y010446
X034535Y010446
X023535Y010446
X018535Y010446
X032535Y010446
X022535Y000557
X017535Y000557
X030535Y000557
X023535Y000557
X026535Y010446
T00
M30
