  0
SECTION
  2
HEADER
  9
$ACADVER
  1
AC1024
  9
$ACADMAINTVER
 70
     6
  9
$DWGCODEPAGE
  3
ANSI_1252
  9
$INSBASE
 10
0.0
 20
0.0
 30
0.0
  9
$EXTMIN
 10
1.000000000000000E+20
 20
1.000000000000000E+20
 30
1.000000000000000E+20
  9
$EXTMAX
 10
-1.000000000000000E+20
 20
-1.000000000000000E+20
 30
-1.000000000000000E+20
  9
$LIMMIN
 10
0.0
 20
0.0
  9
$LIMMAX
 10
12.0
 20
9.0
  9
$ORTHOMODE
 70
     0
  9
$REGENMODE
 70
     1
  9
$FILLMODE
 70
     1
  9
$QTEXTMODE
 70
     0
  9
$MIRRTEXT
 70
     1
  9
$LTSCALE
 40
1.0
  9
$ATTMODE
 70
     1
  9
$TEXTSIZE
 40
0.2
  9
$TRACEWID
 40
0.05
  9
$TEXTSTYLE
  7
Standard
  9
$CLAYER
  8
0
  9
$CELTYPE
  6
ByLayer
  9
$CECOLOR
 62
   256
  9
$CELTSCALE
 40
1.0
  9
$DISPSILH
 70
     0
  9
$DIMSCALE
 40
1.0
  9
$DIMASZ
 40
0.18
  9
$DIMEXO
 40
0.0625
  9
$DIMDLI
 40
0.38
  9
$DIMRND
 40
0.0
  9
$DIMDLE
 40
0.0
  9
$DIMEXE
 40
0.18
  9
$DIMTP
 40
0.0
  9
$DIMTM
 40
0.0
  9
$DIMTXT
 40
0.18
  9
$DIMCEN
 40
0.09
  9
$DIMTSZ
 40
0.0
  9
$DIMTOL
 70
     0
  9
$DIMLIM
 70
     0
  9
$DIMTIH
 70
     1
  9
$DIMTOH
 70
     1
  9
$DIMSE1
 70
     0
  9
$DIMSE2
 70
     0
  9
$DIMTAD
 70
     0
  9
$DIMZIN
 70
     0
  9
$DIMBLK
  1

  9
$DIMASO
 70
     1
  9
$DIMSHO
 70
     1
  9
$DIMPOST
  1

  9
$DIMAPOST
  1

  9
$DIMALT
 70
     0
  9
$DIMALTD
 70
     2
  9
$DIMALTF
 40
25.4
  9
$DIMLFAC
 40
1.0
  9
$DIMTOFL
 70
     0
  9
$DIMTVP
 40
0.0
  9
$DIMTIX
 70
     0
  9
$DIMSOXD
 70
     0
  9
$DIMSAH
 70
     0
  9
$DIMBLK1
  1

  9
$DIMBLK2
  1

  9
$DIMSTYLE
  2
Standard
  9
$DIMCLRD
 70
     0
  9
$DIMCLRE
 70
     0
  9
$DIMCLRT
 70
     0
  9
$DIMTFAC
 40
1.0
  9
$DIMGAP
 40
0.09
  9
$DIMJUST
 70
     0
  9
$DIMSD1
 70
     0
  9
$DIMSD2
 70
     0
  9
$DIMTOLJ
 70
     1
  9
$DIMTZIN
 70
     0
  9
$DIMALTZ
 70
     0
  9
$DIMALTTZ
 70
     0
  9
$DIMUPT
 70
     0
  9
$DIMDEC
 70
     4
  9
$DIMTDEC
 70
     4
  9
$DIMALTU
 70
     2
  9
$DIMALTTD
 70
     2
  9
$DIMTXSTY
  7
Standard
  9
$DIMAUNIT
 70
     0
  9
$DIMADEC
 70
     0
  9
$DIMALTRND
 40
0.0
  9
$DIMAZIN
 70
     0
  9
$DIMDSEP
 70
    46
  9
$DIMATFIT
 70
     3
  9
$DIMFRAC
 70
     0
  9
$DIMLDRBLK
  1

  9
$DIMLUNIT
 70
     2
  9
$DIMLWD
 70
    -2
  9
$DIMLWE
 70
    -2
  9
$DIMTMOVE
 70
     0
  9
$DIMFXL
 40
1.0
  9
$DIMFXLON
 70
     0
  9
$DIMJOGANG
 40
0.7853981633974483
  9
$DIMTFILL
 70
     0
  9
$DIMTFILLCLR
 70
     0
  9
$DIMARCSYM
 70
     0
  9
$DIMLTYPE
  6

  9
$DIMLTEX1
  6

  9
$DIMLTEX2
  6

  9
$DIMTXTDIRECTION
 70
     0
  9
$LUNITS
 70
     2
  9
$LUPREC
 70
     4
  9
$SKETCHINC
 40
0.1
  9
$FILLETRAD
 40
0.5
  9
$AUNITS
 70
     0
  9
$AUPREC
 70
     0
  9
$MENU
  1
.
  9
$ELEVATION
 40
0.0
  9
$PELEVATION
 40
0.0
  9
$THICKNESS
 40
0.0
  9
$LIMCHECK
 70
     0
  9
$CHAMFERA
 40
0.5
  9
$CHAMFERB
 40
0.5
  9
$CHAMFERC
 40
1.0
  9
$CHAMFERD
 40
0.0
  9
$SKPOLY
 70
     0
  9
$TDCREATE
 40
2459433.661521551
  9
$TDUCREATE
 40
2459433.161521551
  9
$TDUPDATE
 40
2459433.66153831
  9
$TDUUPDATE
 40
2459433.16153831
  9
$TDINDWG
 40
0.0000000116
  9
$TDUSRTIMER
 40
0.0000000116
  9
$USRTIMER
 70
     1
  9
$ANGBASE
 50
0.0
  9
$ANGDIR
 70
     0
  9
$PDMODE
 70
     0
  9
$PDSIZE
 40
0.0
  9
$PLINEWID
 40
0.0
  9
$SPLFRAME
 70
     0
  9
$SPLINETYPE
 70
     6
  9
$SPLINESEGS
 70
     8
  9
$HANDSEED
  5
11E
  9
$SURFTAB1
 70
     6
  9
$SURFTAB2
 70
     6
  9
$SURFTYPE
 70
     6
  9
$SURFU
 70
     6
  9
$SURFV
 70
     6
  9
$UCSBASE
  2

  9
$UCSNAME
  2

  9
$UCSORG
 10
0.0
 20
0.0
 30
0.0
  9
$UCSXDIR
 10
1.0
 20
0.0
 30
0.0
  9
$UCSYDIR
 10
0.0
 20
1.0
 30
0.0
  9
$UCSORTHOREF
  2

  9
$UCSORTHOVIEW
 70
     0
  9
$UCSORGTOP
 10
0.0
 20
0.0
 30
0.0
  9
$UCSORGBOTTOM
 10
0.0
 20
0.0
 30
0.0
  9
$UCSORGLEFT
 10
0.0
 20
0.0
 30
0.0
  9
$UCSORGRIGHT
 10
0.0
 20
0.0
 30
0.0
  9
$UCSORGFRONT
 10
0.0
 20
0.0
 30
0.0
  9
$UCSORGBACK
 10
0.0
 20
0.0
 30
0.0
  9
$PUCSBASE
  2

  9
$PUCSNAME
  2

  9
$PUCSORG
 10
0.0
 20
0.0
 30
0.0
  9
$PUCSXDIR
 10
1.0
 20
0.0
 30
0.0
  9
$PUCSYDIR
 10
0.0
 20
1.0
 30
0.0
  9
$PUCSORTHOREF
  2

  9
$PUCSORTHOVIEW
 70
     0
  9
$PUCSORGTOP
 10
0.0
 20
0.0
 30
0.0
  9
$PUCSORGBOTTOM
 10
0.0
 20
0.0
 30
0.0
  9
$PUCSORGLEFT
 10
0.0
 20
0.0
 30
0.0
  9
$PUCSORGRIGHT
 10
0.0
 20
0.0
 30
0.0
  9
$PUCSORGFRONT
 10
0.0
 20
0.0
 30
0.0
  9
$PUCSORGBACK
 10
0.0
 20
0.0
 30
0.0
  9
$USERI1
 70
     0
  9
$USERI2
 70
     0
  9
$USERI3
 70
     0
  9
$USERI4
 70
     0
  9
$USERI5
 70
     0
  9
$USERR1
 40
0.0
  9
$USERR2
 40
0.0
  9
$USERR3
 40
0.0
  9
$USERR4
 40
0.0
  9
$USERR5
 40
0.0
  9
$WORLDVIEW
 70
     1
  9
$SHADEDGE
 70
     3
  9
$SHADEDIF
 70
    70
  9
$TILEMODE
 70
     1
  9
$MAXACTVP
 70
    64
  9
$PINSBASE
 10
0.0
 20
0.0
 30
0.0
  9
$PLIMCHECK
 70
     0
  9
$PEXTMIN
 10
1.000000000000000E+20
 20
1.000000000000000E+20
 30
1.000000000000000E+20
  9
$PEXTMAX
 10
-1.000000000000000E+20
 20
-1.000000000000000E+20
 30
-1.000000000000000E+20
  9
$PLIMMIN
 10
0.0
 20
0.0
  9
$PLIMMAX
 10
12.0
 20
9.0
  9
$UNITMODE
 70
     0
  9
$VISRETAIN
 70
     1
  9
$PLINEGEN
 70
     0
  9
$PSLTSCALE
 70
     1
  9
$TREEDEPTH
 70
  3020
  9
$CMLSTYLE
  2
Standard
  9
$CMLJUST
 70
     0
  9
$CMLSCALE
 40
1.0
  9
$PROXYGRAPHICS
 70
     1
  9
$MEASUREMENT
 70
     0
  9
$CELWEIGHT
370
    -1
  9
$ENDCAPS
280
     0
  9
$JOINSTYLE
280
     0
  9
$LWDISPLAY
290
     1
  9
$INSUNITS
 70
     1
  9
$HYPERLINKBASE
  1

  9
$STYLESHEET
  1

  9
$XEDIT
290
     1
  9
$CEPSNTYPE
380
     0
  9
$PSTYLEMODE
290
     1
  9
$FINGERPRINTGUID
  2
{C40DE79E-EEE7-435C-8B3F-F34437B9612B}
  9
$VERSIONGUID
  2
{FAEB1C32-E019-11D5-929B-00C0DF256EC4}
  9
$EXTNAMES
290
     1
  9
$PSVPSCALE
 40
0.0
  9
$OLESTARTUP
290
     0
  9
$SORTENTS
280
   127
  9
$INDEXCTL
280
     0
  9
$HIDETEXT
280
     1
  9
$XCLIPFRAME
280
     2
  9
$HALOGAP
280
     0
  9
$OBSCOLOR
 70
   257
  9
$OBSLTYPE
280
     0
  9
$INTERSECTIONDISPLAY
280
     0
  9
$INTERSECTIONCOLOR
 70
   257
  9
$DIMASSOC
280
     2
  9
$PROJECTNAME
  1

  9
$CAMERADISPLAY
290
     0
  9
$LENSLENGTH
 40
50.0
  9
$CAMERAHEIGHT
 40
0.0
  9
$STEPSPERSEC
 40
2.0
  9
$STEPSIZE
 40
6.0
  9
$3DDWFPREC
 40
2.0
  9
$PSOLWIDTH
 40
0.25
  9
$PSOLHEIGHT
 40
4.0
  9
$LOFTANG1
 40
1.570796326794897
  9
$LOFTANG2
 40
1.570796326794897
  9
$LOFTMAG1
 40
0.0
  9
$LOFTMAG2
 40
0.0
  9
$LOFTPARAM
 70
     7
  9
$LOFTNORMALS
280
     1
  9
$LATITUDE
 40
37.795
  9
$LONGITUDE
 40
-122.394
  9
$NORTHDIRECTION
 40
0.0
  9
$TIMEZONE
 70
 -8000
  9
$LIGHTGLYPHDISPLAY
280
     1
  9
$TILEMODELIGHTSYNCH
280
     1
  9
$CMATERIAL
347
3C
  9
$SOLIDHIST
280
     1
  9
$SHOWHIST
280
     1
  9
$DWFFRAME
280
     2
  9
$DGNFRAME
280
     2
  9
$REALWORLDSCALE
290
     1
  9
$INTERFERECOLOR
 62
   256
  9
$CSHADOW
280
     0
  9
$SHADOWPLANELOCATION
 40
0.0
  0
ENDSEC
  0
SECTION
  2
CLASSES
  0
CLASS
  1
ACDBDICTIONARYWDFLT
  2
AcDbDictionaryWithDefault
  3
ObjectDBX Classes
 90
        0
 91
        4
280
     0
281
     0
  0
CLASS
  1
VISUALSTYLE
  2
AcDbVisualStyle
  3
ObjectDBX Classes
 90
     4095
 91
        4
280
     0
281
     0
  0
CLASS
  1
MATERIAL
  2
AcDbMaterial
  3
ObjectDBX Classes
 90
     1153
 91
        4
280
     0
281
     0
  0
CLASS
  1
SUN
  2
AcDbSun
  3
SCENEOE
 90
     1024
 91
        4
280
     0
281
     0
  0
ENDSEC
  0
SECTION
  2
TABLES
  0
TABLE
  2
VPORT
  5
8
330
0
100
AcDbSymbolTable
 70
     1
  0
VPORT
  5
29
330
8
100
AcDbSymbolTableRecord
100
AcDbViewportTableRecord
  2
*Active
 70
     0
 10
0.0
 20
0.0
 11
1.0
 21
1.0
 12
0.0
 22
0.0
 13
0.0
 23
0.0
 14
0.5
 24
0.5
 15
0.5
 25
0.5
 16
0.0
 26
0.0
 36
1.0
 17
1000.0
 27
1000.0
 37
0.0
 40
2000.0
 41
1.0
 42
50.0
 43
0.0
 44
0.0
 50
0.0
 51
0.0
 71
     0
 72
   100
 73
     1
 74
     3
 75
     0
 76
     0
 77
     0
 78
     0
281
     0
 65
     1
110
0.0
120
0.0
130
0.0
111
1.0
121
0.0
131
0.0
112
0.0
122
1.0
132
0.0
 79
     0
146
0.0
 60
     3
 61
     5
292
     1
282
     1
141
0.0
142
0.0
 63
   250
361
3F
  0
ENDTAB
  0
TABLE
  2
LTYPE
  5
5
330
0
100
AcDbSymbolTable
 70
     1
  0
LTYPE
  5
14
330
5
100
AcDbSymbolTableRecord
100
AcDbLinetypeTableRecord
  2
ByBlock
 70
     0
  3

 72
    65
 73
     0
 40
0.0
  0
LTYPE
  5
15
330
5
100
AcDbSymbolTableRecord
100
AcDbLinetypeTableRecord
  2
ByLayer
 70
     0
  3

 72
    65
 73
     0
 40
0.0
  0
LTYPE
  5
16
330
5
100
AcDbSymbolTableRecord
100
AcDbLinetypeTableRecord
  2
Continuous
 70
     0
  3
Solid line
 72
    65
 73
     0
 40
0.0
  0
ENDTAB
  0
TABLE
  2
LAYER
  5
2
330
0
100
AcDbSymbolTable
 70
     3
  0
LAYER
  5
10
330
2
100
AcDbSymbolTableRecord
100
AcDbLayerTableRecord
  2
0
 70
     0
 62
     7
  6
Continuous
370
    -3
390
F
347
3E
  0
LAYER
  5
40
330
2
100
AcDbSymbolTableRecord
100
AcDbLayerTableRecord
  2
Layer 2
 70
     1
 62
     7
  6
Continuous
370
    -3
390
F
347
3E
  0
LAYER
  5
49
330
2
100
AcDbSymbolTableRecord
100
AcDbLayerTableRecord
  2
Layer 1
 70
     0
 62
     7
  6
Continuous
370
    -3
390
F
347
3E
  0
ENDTAB
  0
TABLE
  2
STYLE
  5
3
330
0
100
AcDbSymbolTable
 70
     1
  0
STYLE
  5
11
330
3
100
AcDbSymbolTableRecord
100
AcDbTextStyleTableRecord
  2
Standard
 70
     0
 40
0.0
 41
1.0
 50
0.0
 71
     0
 42
0.2
  3
txt
  4

  0
ENDTAB
  0
TABLE
  2
VIEW
  5
6
330
0
100
AcDbSymbolTable
 70
     0
  0
ENDTAB
  0
TABLE
  2
UCS
  5
7
330
0
100
AcDbSymbolTable
 70
     0
  0
ENDTAB
  0
TABLE
  2
APPID
  5
9
330
0
100
AcDbSymbolTable
 70
     1
  0
APPID
  5
12
330
9
100
AcDbSymbolTableRecord
100
AcDbRegAppTableRecord
  2
ACAD
 70
     0
  0
ENDTAB
  0
TABLE
  2
DIMSTYLE
  5
A
330
0
100
AcDbSymbolTable
 70
     1
100
AcDbDimStyleTable
  0
DIMSTYLE
105
27
330
A
100
AcDbSymbolTableRecord
100
AcDbDimStyleTableRecord
  2
Standard
 70
     0
178
     0
340
11
  0
ENDTAB
  0
TABLE
  2
BLOCK_RECORD
  5
1
330
0
100
AcDbSymbolTable
 70
     2
  0
BLOCK_RECORD
  5
1F
330
1
100
AcDbSymbolTableRecord
100
AcDbBlockTableRecord
  2
*Model_Space
340
22
 70
     0
280
     1
281
     0
  0
BLOCK_RECORD
  5
1B
330
1
100
AcDbSymbolTableRecord
100
AcDbBlockTableRecord
  2
*Paper_Space
340
1E
 70
     0
280
     1
281
     0
  0
BLOCK_RECORD
  5
23
330
1
100
AcDbSymbolTableRecord
100
AcDbBlockTableRecord
  2
*Paper_Space0
340
26
 70
     0
280
     1
281
     0
  0
BLOCK_RECORD
  5
4A
330
1
100
AcDbSymbolTableRecord
100
AcDbBlockTableRecord
  2
block 2
340
0
102
{BLKREFS
331
4B
102
}
 70
     0
280
     1
281
     0
  0
ENDTAB
  0
ENDSEC
  0
SECTION
  2
BLOCKS
  0
BLOCK
  5
20
330
1F
100
AcDbEntity
  8
0
100
AcDbBlockBegin
  2
*Model_Space
 70
     0
 10
0.0
 20
0.0
 30
0.0
  3
*Model_Space
  1

  0
ENDBLK
  5
21
330
1F
100
AcDbEntity
  8
0
100
AcDbBlockEnd
  0
BLOCK
  5
1C
330
1B
100
AcDbEntity
 67
     1
  8
0
100
AcDbBlockBegin
  2
*Paper_Space
 70
     0
 10
0.0
 20
0.0
 30
0.0
  3
*Paper_Space
  1

  0
ENDBLK
  5
1D
330
1B
100
AcDbEntity
 67
     1
  8
0
100
AcDbBlockEnd
  0
BLOCK
  5
24
330
23
100
AcDbEntity
  8
0
100
AcDbBlockBegin
  2
*Paper_Space0
 70
     0
 10
0.0
 20
0.0
 30
0.0
  3
*Paper_Space0
  1

  0
ENDBLK
  5
25
330
23
100
AcDbEntity
  8
0
100
AcDbBlockEnd
  0
BLOCK
  5
4C
330
4A
100
AcDbEntity
  8
0
100
AcDbBlockBegin
  2
block 2
 70
     0
 10
0.0
 20
0.0
 30
0.0
  3
block 2
  1

  0
SPLINE
  5
4E
330
4A
100
AcDbEntity
  8
Layer 1
370
     0
100
AcDbSpline
210
0.0
220
0.0
230
1.0
 70
    11
 71
     3
 72
    47
 73
    43
 74
     0
 42
0.0000000001
 43
0.0000000001
 12
1.0
 22
0.0
 32
0.0
 13
1.0
 23
0.0
 33
0.0
 40
0.0
 40
0.0
 40
0.0
 40
0.0
 40
1.0
 40
1.0
 40
1.0
 40
2.0
 40
2.0
 40
2.0
 40
3.0
 40
3.0
 40
3.0
 40
4.0
 40
4.0
 40
4.0
 40
5.0
 40
5.0
 40
5.0
 40
6.0
 40
6.0
 40
6.0
 40
7.0
 40
7.0
 40
7.0
 40
8.0
 40
8.0
 40
8.0
 40
9.0
 40
9.0
 40
9.0
 40
10.0
 40
10.0
 40
10.0
 40
11.0
 40
11.0
 40
11.0
 40
12.0
 40
12.0
 40
12.0
 40
13.0
 40
13.0
 40
13.0
 40
14.0
 40
14.0
 40
14.0
 40
14.0
 10
810.1171264648438
 20
1041.2041015625
 30
0.0
 10
809.2471313476562
 20
1043.254150390625
 30
0.0
 10
808.0681762695312
 20
1045.024169921875
 30
0.0
 10
806.5771484375
 20
1046.51416015625
 30
0.0
 10
805.0771484375
 20
1048.01416015625
 30
0.0
 10
803.30712890625
 20
1049.194213867188
 30
0.0
 10
801.2571411132812
 20
1050.064208984375
 30
0.0
 10
799.2171630859375
 20
1050.924194335938
 30
0.0
 10
797.05712890625
 20
1051.354125976562
 30
0.0
 10
794.7871704101562
 20
1051.354125976562
 30
0.0
 10
794.7871704101562
 20
1051.354125976562
 30
0.0
 10
764.0071411132812
 20
1051.354125976562
 30
0.0
 10
764.0071411132812
 20
1051.354125976562
 30
0.0
 10
764.0071411132812
 20
1051.354125976562
 30
0.0
 10
764.0071411132812
 20
1023.694213867188
 30
0.0
 10
764.0071411132812
 20
1023.694213867188
 30
0.0
 10
764.0071411132812
 20
1023.694213867188
 30
0.0
 10
775.9971313476562
 20
1023.694213867188
 30
0.0
 10
775.9971313476562
 20
1023.694213867188
 30
0.0
 10
775.9971313476562
 20
1023.694213867188
 30
0.0
 10
775.9971313476562
 20
1040.32421875
 30
0.0
 10
775.9971313476562
 20
1040.32421875
 30
0.0
 10
775.9971313476562
 20
1040.32421875
 30
0.0
 10
794.3871459960938
 20
1040.32421875
 30
0.0
 10
794.3871459960938
 20
1040.32421875
 30
0.0
 10
795.837158203125
 20
1040.32421875
 30
0.0
 10
797.0371704101562
 20
1039.82421875
 30
0.0
 10
797.9971313476562
 20
1038.82421875
 30
0.0
 10
798.9481811523438
 20
1037.82421875
 30
0.0
 10
799.4271850585938
 20
1036.594116210938
 30
0.0
 10
799.4271850585938
 20
1035.144165039062
 30
0.0
 10
799.4271850585938
 20
1035.144165039062
 30
0.0
 10
799.4271850585938
 20
1023.694213867188
 30
0.0
 10
799.4271850585938
 20
1023.694213867188
 30
0.0
 10
799.4271850585938
 20
1023.694213867188
 30
0.0
 10
811.4071655273438
 20
1023.694213867188
 30
0.0
 10
811.4071655273438
 20
1023.694213867188
 30
0.0
 10
811.4071655273438
 20
1023.694213867188
 30
0.0
 10
811.4071655273438
 20
1034.734130859375
 30
0.0
 10
811.4071655273438
 20
1034.734130859375
 30
0.0
 10
811.4071655273438
 20
1037.004150390625
 30
0.0
 10
810.9781494140625
 20
1039.164184570312
 30
0.0
 10
810.1171264648438
 20
1041.2041015625
 30
0.0
  0
SPLINE
  5
4F
330
4A
100
AcDbEntity
  8
Layer 1
370
     0
100
AcDbSpline
210
0.0
220
0.0
230
1.0
 70
    11
 71
     3
 72
    53
 73
    49
 74
     0
 42
0.0000000001
 43
0.0000000001
 12
1.0
 22
0.0
 32
0.0
 13
1.0
 23
0.0
 33
0.0
 40
0.0
 40
0.0
 40
0.0
 40
0.0
 40
1.0
 40
1.0
 40
1.0
 40
2.0
 40
2.0
 40
2.0
 40
3.0
 40
3.0
 40
3.0
 40
4.0
 40
4.0
 40
4.0
 40
5.0
 40
5.0
 40
5.0
 40
6.0
 40
6.0
 40
6.0
 40
7.0
 40
7.0
 40
7.0
 40
8.0
 40
8.0
 40
8.0
 40
9.0
 40
9.0
 40
9.0
 40
10.0
 40
10.0
 40
10.0
 40
11.0
 40
11.0
 40
11.0
 40
12.0
 40
12.0
 40
12.0
 40
13.0
 40
13.0
 40
13.0
 40
14.0
 40
14.0
 40
14.0
 40
15.0
 40
15.0
 40
15.0
 40
16.0
 40
16.0
 40
16.0
 40
16.0
 10
799.4271850585938
 20
1016.07421875
 30
0.0
 10
799.4271850585938
 20
1016.07421875
 30
0.0
 10
799.4271850585938
 20
996.4541625976562
 30
0.0
 10
799.4271850585938
 20
996.4541625976562
 30
0.0
 10
799.4271850585938
 20
995.0941772460938
 30
0.0
 10
798.9481811523438
 20
993.8941650390625
 30
0.0
 10
797.9971313476562
 20
992.8441772460938
 30
0.0
 10
797.0371704101562
 20
991.8031616210938
 30
0.0
 10
795.837158203125
 20
991.2841796875
 30
0.0
 10
794.3871459960938
 20
991.2841796875
 30
0.0
 10
794.3871459960938
 20
991.2841796875
 30
0.0
 10
775.9971313476562
 20
991.2841796875
 30
0.0
 10
775.9971313476562
 20
991.2841796875
 30
0.0
 10
775.9971313476562
 20
991.2841796875
 30
0.0
 10
775.9971313476562
 20
1016.07421875
 30
0.0
 10
775.9971313476562
 20
1016.07421875
 30
0.0
 10
775.9971313476562
 20
1016.07421875
 30
0.0
 10
764.0071411132812
 20
1016.07421875
 30
0.0
 10
764.0071411132812
 20
1016.07421875
 30
0.0
 10
764.0071411132812
 20
1016.07421875
 30
0.0
 10
764.0071411132812
 20
948.51318359375
 30
0.0
 10
764.0071411132812
 20
948.51318359375
 30
0.0
 10
764.0071411132812
 20
948.51318359375
 30
0.0
 10
775.9971313476562
 20
948.51318359375
 30
0.0
 10
775.9971313476562
 20
948.51318359375
 30
0.0
 10
775.9971313476562
 20
948.51318359375
 30
0.0
 10
775.9971313476562
 20
980.2442016601562
 30
0.0
 10
775.9971313476562
 20
980.2442016601562
 30
0.0
 10
775.9971313476562
 20
980.2442016601562
 30
0.0
 10
794.7871704101562
 20
980.2442016601562
 30
0.0
 10
794.7871704101562
 20
980.2442016601562
 30
0.0
 10
797.05712890625
 20
980.2442016601562
 30
0.0
 10
799.2171630859375
 20
980.7232055664062
 30
0.0
 10
801.2571411132812
 20
981.6741943359375
 30
0.0
 10
803.30712890625
 20
982.6342163085938
 30
0.0
 10
805.0771484375
 20
983.8842163085938
 30
0.0
 10
806.5771484375
 20
985.4241943359375
 30
0.0
 10
808.0681762695312
 20
986.9641723632812
 30
0.0
 10
809.2471313476562
 20
988.76318359375
 30
0.0
 10
810.1171264648438
 20
990.8031616210938
 30
0.0
 10
810.9781494140625
 20
992.8441772460938
 30
0.0
 10
811.4071655273438
 20
994.9141845703125
 30
0.0
 10
811.4071655273438
 20
997.0042114257812
 30
0.0
 10
811.4071655273438
 20
997.0042114257812
 30
0.0
 10
811.4071655273438
 20
1016.07421875
 30
0.0
 10
811.4071655273438
 20
1016.07421875
 30
0.0
 10
811.4071655273438
 20
1016.07421875
 30
0.0
 10
799.4271850585938
 20
1016.07421875
 30
0.0
 10
799.4271850585938
 20
1016.07421875
 30
0.0
  0
SPLINE
  5
50
330
4A
100
AcDbEntity
  8
Layer 1
370
     0
100
AcDbSpline
210
0.0
220
0.0
230
1.0
 70
    11
 71
     3
 72
    47
 73
    43
 74
     0
 42
0.0000000001
 43
0.0000000001
 12
1.0
 22
0.0
 32
0.0
 13
1.0
 23
0.0
 33
0.0
 40
0.0
 40
0.0
 40
0.0
 40
0.0
 40
1.0
 40
1.0
 40
1.0
 40
2.0
 40
2.0
 40
2.0
 40
3.0
 40
3.0
 40
3.0
 40
4.0
 40
4.0
 40
4.0
 40
5.0
 40
5.0
 40
5.0
 40
6.0
 40
6.0
 40
6.0
 40
7.0
 40
7.0
 40
7.0
 40
8.0
 40
8.0
 40
8.0
 40
9.0
 40
9.0
 40
9.0
 40
10.0
 40
10.0
 40
10.0
 40
11.0
 40
11.0
 40
11.0
 40
12.0
 40
12.0
 40
12.0
 40
13.0
 40
13.0
 40
13.0
 40
14.0
 40
14.0
 40
14.0
 40
14.0
 10
868.2782592773438
 20
1041.204467773438
 30
0.0
 10
867.417236328125
 20
1043.25341796875
 30
0.0
 10
866.23828125
 20
1045.0234375
 30
0.0
 10
864.73828125
 20
1046.514404296875
 30
0.0
 10
863.23828125
 20
1048.014404296875
 30
0.0
 10
861.46728515625
 20
1049.224487304688
 30
0.0
 10
859.42724609375
 20
1050.12451171875
 30
0.0
 10
857.3872680664062
 20
1051.034423828125
 30
0.0
 10
855.228271484375
 20
1051.494506835938
 30
0.0
 10
852.957275390625
 20
1051.494506835938
 30
0.0
 10
852.957275390625
 20
1051.494506835938
 30
0.0
 10
822.167236328125
 20
1051.494506835938
 30
0.0
 10
822.167236328125
 20
1051.494506835938
 30
0.0
 10
822.167236328125
 20
1051.494506835938
 30
0.0
 10
822.167236328125
 20
1023.693481445312
 30
0.0
 10
822.167236328125
 20
1023.693481445312
 30
0.0
 10
822.167236328125
 20
1023.693481445312
 30
0.0
 10
834.1572265625
 20
1023.693481445312
 30
0.0
 10
834.1572265625
 20
1023.693481445312
 30
0.0
 10
834.1572265625
 20
1023.693481445312
 30
0.0
 10
834.1572265625
 20
1040.324462890625
 30
0.0
 10
834.1572265625
 20
1040.324462890625
 30
0.0
 10
834.1572265625
 20
1040.324462890625
 30
0.0
 10
852.5472412109375
 20
1040.324462890625
 30
0.0
 10
852.5472412109375
 20
1040.324462890625
 30
0.0
 10
853.9972534179688
 20
1040.324462890625
 30
0.0
 10
855.207275390625
 20
1039.824462890625
 30
0.0
 10
856.1572265625
 20
1038.824462890625
 30
0.0
 10
857.1082763671875
 20
1037.824462890625
 30
0.0
 10
857.5872802734375
 20
1036.593505859375
 30
0.0
 10
857.5872802734375
 20
1035.144409179688
 30
0.0
 10
857.5872802734375
 20
1035.144409179688
 30
0.0
 10
857.5872802734375
 20
1023.693481445312
 30
0.0
 10
857.5872802734375
 20
1023.693481445312
 30
0.0
 10
857.5872802734375
 20
1023.693481445312
 30
0.0
 10
869.5772705078125
 20
1023.693481445312
 30
0.0
 10
869.5772705078125
 20
1023.693481445312
 30
0.0
 10
869.5772705078125
 20
1023.693481445312
 30
0.0
 10
869.5772705078125
 20
1034.7333984375
 30
0.0
 10
869.5772705078125
 20
1034.7333984375
 30
0.0
 10
869.5772705078125
 20
1037.00341796875
 30
0.0
 10
869.1372680664062
 20
1039.164428710938
 30
0.0
 10
868.2782592773438
 20
1041.204467773438
 30
0.0
  0
SPLINE
  5
51
330
4A
100
AcDbEntity
  8
Layer 1
370
     0
100
AcDbSpline
210
0.0
220
0.0
230
1.0
 70
    11
 71
     3
 72
    68
 73
    64
 74
     0
 42
0.0000000001
 43
0.0000000001
 12
1.0
 22
0.0
 32
0.0
 13
1.0
 23
0.0
 33
0.0
 40
0.0
 40
0.0
 40
0.0
 40
0.0
 40
1.0
 40
1.0
 40
1.0
 40
2.0
 40
2.0
 40
2.0
 40
3.0
 40
3.0
 40
3.0
 40
4.0
 40
4.0
 40
4.0
 40
5.0
 40
5.0
 40
5.0
 40
6.0
 40
6.0
 40
6.0
 40
7.0
 40
7.0
 40
7.0
 40
8.0
 40
8.0
 40
8.0
 40
9.0
 40
9.0
 40
9.0
 40
10.0
 40
10.0
 40
10.0
 40
11.0
 40
11.0
 40
11.0
 40
12.0
 40
12.0
 40
12.0
 40
13.0
 40
13.0
 40
13.0
 40
14.0
 40
14.0
 40
14.0
 40
15.0
 40
15.0
 40
15.0
 40
16.0
 40
16.0
 40
16.0
 40
17.0
 40
17.0
 40
17.0
 40
18.0
 40
18.0
 40
18.0
 40
19.0
 40
19.0
 40
19.0
 40
20.0
 40
20.0
 40
20.0
 40
21.0
 40
21.0
 40
21.0
 40
21.0
 10
862.21728515625
 20
964.3145141601562
 30
0.0
 10
858.67724609375
 20
969.574462890625
 30
0.0
 10
855.0872802734375
 20
974.843505859375
 30
0.0
 10
851.457275390625
 20
980.114501953125
 30
0.0
 10
853.8182373046875
 20
980.2044677734375
 30
0.0
 10
856.0872802734375
 20
980.6544799804688
 30
0.0
 10
858.2682495117188
 20
981.4735107421875
 30
0.0
 10
860.447265625
 20
982.29345703125
 30
0.0
 10
862.3772583007812
 20
983.4234619140625
 30
0.0
 10
864.0572509765625
 20
984.8834838867188
 30
0.0
 10
865.73828125
 20
986.33447265625
 30
0.0
 10
867.0772705078125
 20
988.053466796875
 30
0.0
 10
868.0772705078125
 20
990.053466796875
 30
0.0
 10
869.0772705078125
 20
992.053466796875
 30
0.0
 10
869.5772705078125
 20
994.324462890625
 30
0.0
 10
869.5772705078125
 20
996.864501953125
 30
0.0
 10
869.5772705078125
 20
996.864501953125
 30
0.0
 10
869.5772705078125
 20
1016.074462890625
 30
0.0
 10
869.5772705078125
 20
1016.074462890625
 30
0.0
 10
869.5772705078125
 20
1016.074462890625
 30
0.0
 10
857.5872802734375
 20
1016.074462890625
 30
0.0
 10
857.5872802734375
 20
1016.074462890625
 30
0.0
 10
857.5872802734375
 20
1016.074462890625
 30
0.0
 10
857.5872802734375
 20
996.324462890625
 30
0.0
 10
857.5872802734375
 20
996.324462890625
 30
0.0
 10
857.5872802734375
 20
994.864501953125
 30
0.0
 10
857.1082763671875
 20
993.6444702148438
 30
0.0
 10
856.1572265625
 20
992.6444702148438
 30
0.0
 10
855.207275390625
 20
991.6444702148438
 30
0.0
 10
853.9972534179688
 20
991.1444702148438
 30
0.0
 10
852.5472412109375
 20
991.1444702148438
 30
0.0
 10
852.5472412109375
 20
991.1444702148438
 30
0.0
 10
834.1572265625
 20
991.1444702148438
 30
0.0
 10
834.1572265625
 20
991.1444702148438
 30
0.0
 10
834.1572265625
 20
991.1444702148438
 30
0.0
 10
834.1572265625
 20
1016.074462890625
 30
0.0
 10
834.1572265625
 20
1016.074462890625
 30
0.0
 10
834.1572265625
 20
1016.074462890625
 30
0.0
 10
822.167236328125
 20
1016.074462890625
 30
0.0
 10
822.167236328125
 20
1016.074462890625
 30
0.0
 10
822.167236328125
 20
1016.074462890625
 30
0.0
 10
822.167236328125
 20
948.5134887695312
 30
0.0
 10
822.167236328125
 20
948.5134887695312
 30
0.0
 10
822.167236328125
 20
948.5134887695312
 30
0.0
 10
834.1572265625
 20
948.5134887695312
 30
0.0
 10
834.1572265625
 20
948.5134887695312
 30
0.0
 10
834.1572265625
 20
948.5134887695312
 30
0.0
 10
834.1572265625
 20
979.9735107421875
 30
0.0
 10
834.1572265625
 20
979.9735107421875
 30
0.0
 10
834.1572265625
 20
979.9735107421875
 30
0.0
 10
837.96728515625
 20
980.114501953125
 30
0.0
 10
837.96728515625
 20
980.114501953125
 30
0.0
 10
841.5972290039062
 20
974.843505859375
 30
0.0
 10
845.188232421875
 20
969.574462890625
 30
0.0
 10
848.73828125
 20
964.3145141601562
 30
0.0
 10
852.2782592773438
 20
959.04345703125
 30
0.0
 10
855.8182373046875
 20
953.7744750976562
 30
0.0
 10
859.3582763671875
 20
948.5134887695312
 30
0.0
 10
859.3582763671875
 20
948.5134887695312
 30
0.0
 10
872.978271484375
 20
948.5134887695312
 30
0.0
 10
872.978271484375
 20
948.5134887695312
 30
0.0
 10
869.3472290039062
 20
953.7744750976562
 30
0.0
 10
865.7572631835938
 20
959.04345703125
 30
0.0
 10
862.21728515625
 20
964.3145141601562
 30
0.0
  0
POLYLINE
  5
52
330
4A
100
AcDbEntity
  8
Layer 1
370
     0
100
AcDb2dPolyline
 66
     1
 10
0.0
 20
0.0
 30
0.0
  0
VERTEX
  5
53
330
52
100
AcDbEntity
  8
Layer 1
370
     0
100
AcDbVertex
100
AcDb2dVertex
 10
881.9675903320312
 20
1051.493774414062
 30
0.0
  0
VERTEX
  5
54
330
52
100
AcDbEntity
  8
Layer 1
370
     0
100
AcDbVertex
100
AcDb2dVertex
 10
881.9675903320312
 20
1040.453857421875
 30
0.0
  0
VERTEX
  5
55
330
52
100
AcDbEntity
  8
Layer 1
370
     0
100
AcDbVertex
100
AcDb2dVertex
 10
890.007568359375
 20
1040.453857421875
 30
0.0
  0
VERTEX
  5
56
330
52
100
AcDbEntity
  8
Layer 1
370
     0
100
AcDbVertex
100
AcDb2dVertex
 10
890.007568359375
 20
1023.69384765625
 30
0.0
  0
VERTEX
  5
57
330
52
100
AcDbEntity
  8
Layer 1
370
     0
100
AcDbVertex
100
AcDb2dVertex
 10
901.9976196289062
 20
1023.69384765625
 30
0.0
  0
VERTEX
  5
58
330
52
100
AcDbEntity
  8
Layer 1
370
     0
100
AcDbVertex
100
AcDb2dVertex
 10
901.9976196289062
 20
1040.453857421875
 30
0.0
  0
VERTEX
  5
59
330
52
100
AcDbEntity
  8
Layer 1
370
     0
100
AcDbVertex
100
AcDb2dVertex
 10
910.1676025390625
 20
1040.453857421875
 30
0.0
  0
VERTEX
  5
5A
330
52
100
AcDbEntity
  8
Layer 1
370
     0
100
AcDbVertex
100
AcDb2dVertex
 10
910.1676025390625
 20
1051.493774414062
 30
0.0
  0
VERTEX
  5
5B
330
52
100
AcDbEntity
  8
Layer 1
370
     0
100
AcDbVertex
100
AcDb2dVertex
 10
881.9675903320312
 20
1051.493774414062
 30
0.0
  0
SEQEND
  5
5C
330
52
100
AcDbEntity
  8
Layer 1
370
     0
  0
POLYLINE
  5
5D
330
4A
100
AcDbEntity
  8
Layer 1
370
     0
100
AcDb2dPolyline
 66
     1
 10
0.0
 20
0.0
 30
0.0
  0
VERTEX
  5
5E
330
5D
100
AcDbEntity
  8
Layer 1
370
     0
100
AcDbVertex
100
AcDb2dVertex
 10
901.9976196289062
 20
959.5438842773438
 30
0.0
  0
VERTEX
  5
5F
330
5D
100
AcDbEntity
  8
Layer 1
370
     0
100
AcDbVertex
100
AcDb2dVertex
 10
901.9976196289062
 20
1016.073852539062
 30
0.0
  0
VERTEX
  5
60
330
5D
100
AcDbEntity
  8
Layer 1
370
     0
100
AcDbVertex
100
AcDb2dVertex
 10
890.007568359375
 20
1016.073852539062
 30
0.0
  0
VERTEX
  5
61
330
5D
100
AcDbEntity
  8
Layer 1
370
     0
100
AcDbVertex
100
AcDb2dVertex
 10
890.007568359375
 20
959.5438842773438
 30
0.0
  0
VERTEX
  5
62
330
5D
100
AcDbEntity
  8
Layer 1
370
     0
100
AcDbVertex
100
AcDb2dVertex
 10
881.9675903320312
 20
959.5438842773438
 30
0.0
  0
VERTEX
  5
63
330
5D
100
AcDbEntity
  8
Layer 1
370
     0
100
AcDbVertex
100
AcDb2dVertex
 10
881.9675903320312
 20
948.5138549804688
 30
0.0
  0
VERTEX
  5
64
330
5D
100
AcDbEntity
  8
Layer 1
370
     0
100
AcDbVertex
100
AcDb2dVertex
 10
910.1676025390625
 20
948.5138549804688
 30
0.0
  0
VERTEX
  5
65
330
5D
100
AcDbEntity
  8
Layer 1
370
     0
100
AcDbVertex
100
AcDb2dVertex
 10
910.1676025390625
 20
959.5438842773438
 30
0.0
  0
VERTEX
  5
66
330
5D
100
AcDbEntity
  8
Layer 1
370
     0
100
AcDbVertex
100
AcDb2dVertex
 10
901.9976196289062
 20
959.5438842773438
 30
0.0
  0
SEQEND
  5
67
330
5D
100
AcDbEntity
  8
Layer 1
370
     0
  0
SPLINE
  5
68
330
4A
100
AcDbEntity
  8
Layer 1
370
     0
100
AcDbSpline
210
0.0
220
0.0
230
1.0
 70
    11
 71
     3
 72
    65
 73
    61
 74
     0
 42
0.0000000001
 43
0.0000000001
 12
1.0
 22
0.0
 32
0.0
 13
1.0
 23
0.0
 33
0.0
 40
0.0
 40
0.0
 40
0.0
 40
0.0
 40
1.0
 40
1.0
 40
1.0
 40
2.0
 40
2.0
 40
2.0
 40
3.0
 40
3.0
 40
3.0
 40
4.0
 40
4.0
 40
4.0
 40
5.0
 40
5.0
 40
5.0
 40
6.0
 40
6.0
 40
6.0
 40
7.0
 40
7.0
 40
7.0
 40
8.0
 40
8.0
 40
8.0
 40
9.0
 40
9.0
 40
9.0
 40
10.0
 40
10.0
 40
10.0
 40
11.0
 40
11.0
 40
11.0
 40
12.0
 40
12.0
 40
12.0
 40
13.0
 40
13.0
 40
13.0
 40
14.0
 40
14.0
 40
14.0
 40
15.0
 40
15.0
 40
15.0
 40
16.0
 40
16.0
 40
16.0
 40
17.0
 40
17.0
 40
17.0
 40
18.0
 40
18.0
 40
18.0
 40
19.0
 40
19.0
 40
19.0
 40
20.0
 40
20.0
 40
20.0
 40
20.0
 10
966.5571899414062
 20
1041.614501953125
 30
0.0
 10
965.648193359375
 20
1043.5634765625
 30
0.0
 10
964.4481811523438
 20
1045.273559570312
 30
0.0
 10
962.9481811523438
 20
1046.724487304688
 30
0.0
 10
961.4481811523438
 20
1048.173583984375
 30
0.0
 10
959.7282104492188
 20
1049.33349609375
 30
0.0
 10
957.7781982421875
 20
1050.193481445312
 30
0.0
 10
955.8181762695312
 20
1051.054565429688
 30
0.0
 10
953.7072143554688
 20
1051.494506835938
 30
0.0
 10
951.4381713867188
 20
1051.494506835938
 30
0.0
 10
951.4381713867188
 20
1051.494506835938
 30
0.0
 10
937.408203125
 20
1051.494506835938
 30
0.0
 10
937.408203125
 20
1051.494506835938
 30
0.0
 10
935.13720703125
 20
1051.494506835938
 30
0.0
 10
932.9782104492188
 20
1051.054565429688
 30
0.0
 10
930.9381713867188
 20
1050.193481445312
 30
0.0
 10
928.898193359375
 20
1049.33349609375
 30
0.0
 10
927.127197265625
 20
1048.153564453125
 30
0.0
 10
925.627197265625
 20
1046.653564453125
 30
0.0
 10
924.127197265625
 20
1045.153564453125
 30
0.0
 10
922.9481811523438
 20
1043.383544921875
 30
0.0
 10
922.0872192382812
 20
1041.343505859375
 30
0.0
 10
921.2172241210938
 20
1039.304565429688
 30
0.0
 10
920.7871704101562
 20
1037.1435546875
 30
0.0
 10
920.7871704101562
 20
1034.87353515625
 30
0.0
 10
920.7871704101562
 20
1034.87353515625
 30
0.0
 10
920.7871704101562
 20
1023.693542480469
 30
0.0
 10
920.7871704101562
 20
1023.693542480469
 30
0.0
 10
920.7871704101562
 20
1023.693542480469
 30
0.0
 10
932.7781982421875
 20
1023.693542480469
 30
0.0
 10
932.7781982421875
 20
1023.693542480469
 30
0.0
 10
932.7781982421875
 20
1023.693542480469
 30
0.0
 10
932.7781982421875
 20
1035.284545898438
 30
0.0
 10
932.7781982421875
 20
1035.284545898438
 30
0.0
 10
932.7781982421875
 20
1036.733520507812
 30
0.0
 10
933.2572021484375
 20
1037.95458984375
 30
0.0
 10
934.2072143554688
 20
1038.95458984375
 30
0.0
 10
935.158203125
 20
1039.95458984375
 30
0.0
 10
936.3682250976562
 20
1040.45458984375
 30
0.0
 10
937.8181762695312
 20
1040.45458984375
 30
0.0
 10
937.8181762695312
 20
1040.45458984375
 30
0.0
 10
951.3071899414062
 20
1040.45458984375
 30
0.0
 10
951.3071899414062
 20
1040.45458984375
 30
0.0
 10
952.5772094726562
 20
1040.45458984375
 30
0.0
 10
953.6881713867188
 20
1040.003540039062
 30
0.0
 10
954.63720703125
 20
1039.093505859375
 30
0.0
 10
955.5972290039062
 20
1038.18359375
 30
0.0
 10
956.158203125
 20
1037.093505859375
 30
0.0
 10
956.3472290039062
 20
1035.824584960938
 30
0.0
 10
956.3472290039062
 20
1035.824584960938
 30
0.0
 10
956.3472290039062
 20
1028.0634765625
 30
0.0
 10
956.3472290039062
 20
1028.0634765625
 30
0.0
 10
956.3472290039062
 20
1028.0634765625
 30
0.0
 10
968.0571899414062
 20
1028.0634765625
 30
0.0
 10
968.0571899414062
 20
1028.0634765625
 30
0.0
 10
968.0571899414062
 20
1028.0634765625
 30
0.0
 10
968.0571899414062
 20
1035.41357421875
 30
0.0
 10
968.0571899414062
 20
1035.41357421875
 30
0.0
 10
967.9672241210938
 20
1037.593505859375
 30
0.0
 10
967.4672241210938
 20
1039.66357421875
 30
0.0
 10
966.5571899414062
 20
1041.614501953125
 30
0.0
  0
SPLINE
  5
69
330
4A
100
AcDbEntity
  8
Layer 1
370
     0
100
AcDbSpline
210
0.0
220
0.0
230
1.0
 70
    11
 71
     3
 72
    65
 73
    61
 74
     0
 42
0.0000000001
 43
0.0000000001
 12
1.0
 22
0.0
 32
0.0
 13
1.0
 23
0.0
 33
0.0
 40
0.0
 40
0.0
 40
0.0
 40
0.0
 40
1.0
 40
1.0
 40
1.0
 40
2.0
 40
2.0
 40
2.0
 40
3.0
 40
3.0
 40
3.0
 40
4.0
 40
4.0
 40
4.0
 40
5.0
 40
5.0
 40
5.0
 40
6.0
 40
6.0
 40
6.0
 40
7.0
 40
7.0
 40
7.0
 40
8.0
 40
8.0
 40
8.0
 40
9.0
 40
9.0
 40
9.0
 40
10.0
 40
10.0
 40
10.0
 40
11.0
 40
11.0
 40
11.0
 40
12.0
 40
12.0
 40
12.0
 40
13.0
 40
13.0
 40
13.0
 40
14.0
 40
14.0
 40
14.0
 40
15.0
 40
15.0
 40
15.0
 40
16.0
 40
16.0
 40
16.0
 40
17.0
 40
17.0
 40
17.0
 40
18.0
 40
18.0
 40
18.0
 40
19.0
 40
19.0
 40
19.0
 40
20.0
 40
20.0
 40
20.0
 40
20.0
 10
956.3472290039062
 20
971.93359375
 30
0.0
 10
956.3472290039062
 20
971.93359375
 30
0.0
 10
956.3472290039062
 20
964.173583984375
 30
0.0
 10
956.3472290039062
 20
964.173583984375
 30
0.0
 10
956.158203125
 20
962.904541015625
 30
0.0
 10
955.5972290039062
 20
961.8145751953125
 30
0.0
 10
954.63720703125
 20
960.904541015625
 30
0.0
 10
953.6881713867188
 20
959.9945678710938
 30
0.0
 10
952.5772094726562
 20
959.5435791015625
 30
0.0
 10
951.3071899414062
 20
959.5435791015625
 30
0.0
 10
951.3071899414062
 20
959.5435791015625
 30
0.0
 10
937.8181762695312
 20
959.5435791015625
 30
0.0
 10
937.8181762695312
 20
959.5435791015625
 30
0.0
 10
936.3682250976562
 20
959.5435791015625
 30
0.0
 10
935.158203125
 20
960.0435791015625
 30
0.0
 10
934.2072143554688
 20
961.0435791015625
 30
0.0
 10
933.2572021484375
 20
962.0435791015625
 30
0.0
 10
932.7781982421875
 20
963.2635498046875
 30
0.0
 10
932.7781982421875
 20
964.7135620117188
 30
0.0
 10
932.7781982421875
 20
964.7135620117188
 30
0.0
 10
932.7781982421875
 20
1016.074584960938
 30
0.0
 10
932.7781982421875
 20
1016.074584960938
 30
0.0
 10
932.7781982421875
 20
1016.074584960938
 30
0.0
 10
920.7871704101562
 20
1016.074584960938
 30
0.0
 10
920.7871704101562
 20
1016.074584960938
 30
0.0
 10
920.7871704101562
 20
1016.074584960938
 30
0.0
 10
920.7871704101562
 20
965.12353515625
 30
0.0
 10
920.7871704101562
 20
965.12353515625
 30
0.0
 10
920.7871704101562
 20
962.8535766601562
 30
0.0
 10
921.2172241210938
 20
960.70458984375
 30
0.0
 10
922.0872192382812
 20
958.654541015625
 30
0.0
 10
922.9481811523438
 20
956.6145629882812
 30
0.0
 10
924.127197265625
 20
954.8435668945312
 30
0.0
 10
925.627197265625
 20
953.3435668945312
 30
0.0
 10
927.127197265625
 20
951.8435668945312
 30
0.0
 10
928.898193359375
 20
950.66357421875
 30
0.0
 10
930.9381713867188
 20
949.8035888671875
 30
0.0
 10
932.9782104492188
 20
948.944580078125
 30
0.0
 10
935.13720703125
 20
948.5135498046875
 30
0.0
 10
937.408203125
 20
948.5135498046875
 30
0.0
 10
937.408203125
 20
948.5135498046875
 30
0.0
 10
951.4381713867188
 20
948.5135498046875
 30
0.0
 10
951.4381713867188
 20
948.5135498046875
 30
0.0
 10
953.7072143554688
 20
948.5135498046875
 30
0.0
 10
955.8181762695312
 20
948.944580078125
 30
0.0
 10
957.7781982421875
 20
949.8035888671875
 30
0.0
 10
959.7282104492188
 20
950.66357421875
 30
0.0
 10
961.4481811523438
 20
951.8245849609375
 30
0.0
 10
962.9481811523438
 20
953.2745361328125
 30
0.0
 10
964.4481811523438
 20
954.7235717773438
 30
0.0
 10
965.648193359375
 20
956.43359375
 30
0.0
 10
966.5571899414062
 20
958.383544921875
 30
0.0
 10
967.4672241210938
 20
960.3335571289062
 30
0.0
 10
967.9672241210938
 20
962.404541015625
 30
0.0
 10
968.0571899414062
 20
964.5835571289062
 30
0.0
 10
968.0571899414062
 20
964.5835571289062
 30
0.0
 10
968.0571899414062
 20
971.93359375
 30
0.0
 10
968.0571899414062
 20
971.93359375
 30
0.0
 10
968.0571899414062
 20
971.93359375
 30
0.0
 10
956.3472290039062
 20
971.93359375
 30
0.0
 10
956.3472290039062
 20
971.93359375
 30
0.0
  0
POLYLINE
  5
6A
330
4A
100
AcDbEntity
  8
Layer 1
370
     0
100
AcDb2dPolyline
 66
     1
 10
0.0
 20
0.0
 30
0.0
  0
VERTEX
  5
6B
330
6A
100
AcDbEntity
  8
Layer 1
370
     0
100
AcDbVertex
100
AcDb2dVertex
 10
978.6774291992188
 20
1051.493774414062
 30
0.0
  0
VERTEX
  5
6C
330
6A
100
AcDbEntity
  8
Layer 1
370
     0
100
AcDbVertex
100
AcDb2dVertex
 10
978.6774291992188
 20
1023.69384765625
 30
0.0
  0
VERTEX
  5
6D
330
6A
100
AcDbEntity
  8
Layer 1
370
     0
100
AcDbVertex
100
AcDb2dVertex
 10
990.66748046875
 20
1023.69384765625
 30
0.0
  0
VERTEX
  5
6E
330
6A
100
AcDbEntity
  8
Layer 1
370
     0
100
AcDbVertex
100
AcDb2dVertex
 10
990.66748046875
 20
1040.323852539062
 30
0.0
  0
VERTEX
  5
6F
330
6A
100
AcDbEntity
  8
Layer 1
370
     0
100
AcDbVertex
100
AcDb2dVertex
 10
1019.957458496094
 20
1040.323852539062
 30
0.0
  0
VERTEX
  5
70
330
6A
100
AcDbEntity
  8
Layer 1
370
     0
100
AcDbVertex
100
AcDb2dVertex
 10
1019.957458496094
 20
1051.493774414062
 30
0.0
  0
VERTEX
  5
71
330
6A
100
AcDbEntity
  8
Layer 1
370
     0
100
AcDbVertex
100
AcDb2dVertex
 10
978.6774291992188
 20
1051.493774414062
 30
0.0
  0
SEQEND
  5
72
330
6A
100
AcDbEntity
  8
Layer 1
370
     0
  0
POLYLINE
  5
73
330
4A
100
AcDbEntity
  8
Layer 1
370
     0
100
AcDb2dPolyline
 66
     1
 10
0.0
 20
0.0
 30
0.0
  0
VERTEX
  5
74
330
73
100
AcDbEntity
  8
Layer 1
370
     0
100
AcDbVertex
100
AcDb2dVertex
 10
990.66748046875
 20
959.5438842773438
 30
0.0
  0
VERTEX
  5
75
330
73
100
AcDbEntity
  8
Layer 1
370
     0
100
AcDbVertex
100
AcDb2dVertex
 10
990.66748046875
 20
991.69384765625
 30
0.0
  0
VERTEX
  5
76
330
73
100
AcDbEntity
  8
Layer 1
370
     0
100
AcDbVertex
100
AcDb2dVertex
 10
1016.1474609375
 20
991.69384765625
 30
0.0
  0
VERTEX
  5
77
330
73
100
AcDbEntity
  8
Layer 1
370
     0
100
AcDbVertex
100
AcDb2dVertex
 10
1016.1474609375
 20
1002.723876953125
 30
0.0
  0
VERTEX
  5
78
330
73
100
AcDbEntity
  8
Layer 1
370
     0
100
AcDbVertex
100
AcDb2dVertex
 10
990.66748046875
 20
1002.723876953125
 30
0.0
  0
VERTEX
  5
79
330
73
100
AcDbEntity
  8
Layer 1
370
     0
100
AcDbVertex
100
AcDb2dVertex
 10
990.66748046875
 20
1016.073852539062
 30
0.0
  0
VERTEX
  5
7A
330
73
100
AcDbEntity
  8
Layer 1
370
     0
100
AcDbVertex
100
AcDb2dVertex
 10
978.6774291992188
 20
1016.073852539062
 30
0.0
  0
VERTEX
  5
7B
330
73
100
AcDbEntity
  8
Layer 1
370
     0
100
AcDbVertex
100
AcDb2dVertex
 10
978.6774291992188
 20
948.5138549804688
 30
0.0
  0
VERTEX
  5
7C
330
73
100
AcDbEntity
  8
Layer 1
370
     0
100
AcDbVertex
100
AcDb2dVertex
 10
1019.817443847656
 20
948.5138549804688
 30
0.0
  0
VERTEX
  5
7D
330
73
100
AcDbEntity
  8
Layer 1
370
     0
100
AcDbVertex
100
AcDb2dVertex
 10
1019.817443847656
 20
959.5438842773438
 30
0.0
  0
VERTEX
  5
7E
330
73
100
AcDbEntity
  8
Layer 1
370
     0
100
AcDbVertex
100
AcDb2dVertex
 10
990.66748046875
 20
959.5438842773438
 30
0.0
  0
SEQEND
  5
7F
330
73
100
AcDbEntity
  8
Layer 1
370
     0
  0
SPLINE
  5
80
330
4A
100
AcDbEntity
  8
Layer 1
370
     0
100
AcDbSpline
210
0.0
220
0.0
230
1.0
 70
    11
 71
     3
 72
    47
 73
    43
 74
     0
 42
0.0000000001
 43
0.0000000001
 12
1.0
 22
0.0
 32
0.0
 13
1.0
 23
0.0
 33
0.0
 40
0.0
 40
0.0
 40
0.0
 40
0.0
 40
1.0
 40
1.0
 40
1.0
 40
2.0
 40
2.0
 40
2.0
 40
3.0
 40
3.0
 40
3.0
 40
4.0
 40
4.0
 40
4.0
 40
5.0
 40
5.0
 40
5.0
 40
6.0
 40
6.0
 40
6.0
 40
7.0
 40
7.0
 40
7.0
 40
8.0
 40
8.0
 40
8.0
 40
9.0
 40
9.0
 40
9.0
 40
10.0
 40
10.0
 40
10.0
 40
11.0
 40
11.0
 40
11.0
 40
12.0
 40
12.0
 40
12.0
 40
13.0
 40
13.0
 40
13.0
 40
14.0
 40
14.0
 40
14.0
 40
14.0
 10
1104.617431640625
 20
1041.2041015625
 30
0.0
 10
1103.747436523438
 20
1043.254150390625
 30
0.0
 10
1102.5673828125
 20
1045.024169921875
 30
0.0
 10
1101.077392578125
 20
1046.51416015625
 30
0.0
 10
1099.577392578125
 20
1048.01416015625
 30
0.0
 10
1097.807373046875
 20
1049.22412109375
 30
0.0
 10
1095.757446289062
 20
1050.124145507812
 30
0.0
 10
1093.717407226562
 20
1051.0341796875
 30
0.0
 10
1091.557373046875
 20
1051.494140625
 30
0.0
 10
1089.287475585938
 20
1051.494140625
 30
0.0
 10
1089.287475585938
 20
1051.494140625
 30
0.0
 10
1058.507446289062
 20
1051.494140625
 30
0.0
 10
1058.507446289062
 20
1051.494140625
 30
0.0
 10
1058.507446289062
 20
1051.494140625
 30
0.0
 10
1058.507446289062
 20
1023.694213867188
 30
0.0
 10
1058.507446289062
 20
1023.694213867188
 30
0.0
 10
1058.507446289062
 20
1023.694213867188
 30
0.0
 10
1070.497436523438
 20
1023.694213867188
 30
0.0
 10
1070.497436523438
 20
1023.694213867188
 30
0.0
 10
1070.497436523438
 20
1023.694213867188
 30
0.0
 10
1070.497436523438
 20
1040.32421875
 30
0.0
 10
1070.497436523438
 20
1040.32421875
 30
0.0
 10
1070.497436523438
 20
1040.32421875
 30
0.0
 10
1088.747436523438
 20
1040.32421875
 30
0.0
 10
1088.747436523438
 20
1040.32421875
 30
0.0
 10
1090.197387695312
 20
1040.32421875
 30
0.0
 10
1091.427368164062
 20
1039.82421875
 30
0.0
 10
1092.427368164062
 20
1038.82421875
 30
0.0
 10
1093.41748046875
 20
1037.82421875
 30
0.0
 10
1093.91748046875
 20
1036.594116210938
 30
0.0
 10
1093.91748046875
 20
1035.144165039062
 30
0.0
 10
1093.91748046875
 20
1035.144165039062
 30
0.0
 10
1093.91748046875
 20
1023.694213867188
 30
0.0
 10
1093.91748046875
 20
1023.694213867188
 30
0.0
 10
1093.91748046875
 20
1023.694213867188
 30
0.0
 10
1105.907470703125
 20
1023.694213867188
 30
0.0
 10
1105.907470703125
 20
1023.694213867188
 30
0.0
 10
1105.907470703125
 20
1023.694213867188
 30
0.0
 10
1105.907470703125
 20
1034.734130859375
 30
0.0
 10
1105.907470703125
 20
1034.734130859375
 30
0.0
 10
1105.907470703125
 20
1037.004150390625
 30
0.0
 10
1105.478393554688
 20
1039.164184570312
 30
0.0
 10
1104.617431640625
 20
1041.2041015625
 30
0.0
  0
SPLINE
  5
81
330
4A
100
AcDbEntity
  8
Layer 1
370
     0
100
AcDbSpline
210
0.0
220
0.0
230
1.0
 70
    11
 71
     3
 72
    47
 73
    43
 74
     0
 42
0.0000000001
 43
0.0000000001
 12
1.0
 22
0.0
 32
0.0
 13
1.0
 23
0.0
 33
0.0
 40
0.0
 40
0.0
 40
0.0
 40
0.0
 40
1.0
 40
1.0
 40
1.0
 40
2.0
 40
2.0
 40
2.0
 40
3.0
 40
3.0
 40
3.0
 40
4.0
 40
4.0
 40
4.0
 40
5.0
 40
5.0
 40
5.0
 40
6.0
 40
6.0
 40
6.0
 40
7.0
 40
7.0
 40
7.0
 40
8.0
 40
8.0
 40
8.0
 40
9.0
 40
9.0
 40
9.0
 40
10.0
 40
10.0
 40
10.0
 40
11.0
 40
11.0
 40
11.0
 40
12.0
 40
12.0
 40
12.0
 40
13.0
 40
13.0
 40
13.0
 40
14.0
 40
14.0
 40
14.0
 40
14.0
 10
1093.91748046875
 20
1016.07421875
 30
0.0
 10
1093.91748046875
 20
1016.07421875
 30
0.0
 10
1093.91748046875
 20
964.7141723632812
 30
0.0
 10
1093.91748046875
 20
964.7141723632812
 30
0.0
 10
1093.91748046875
 20
963.26318359375
 30
0.0
 10
1093.41748046875
 20
962.044189453125
 30
0.0
 10
1092.427368164062
 20
961.044189453125
 30
0.0
 10
1091.427368164062
 20
960.044189453125
 30
0.0
 10
1090.197387695312
 20
959.544189453125
 30
0.0
 10
1088.747436523438
 20
959.544189453125
 30
0.0
 10
1088.747436523438
 20
959.544189453125
 30
0.0
 10
1070.497436523438
 20
959.544189453125
 30
0.0
 10
1070.497436523438
 20
959.544189453125
 30
0.0
 10
1070.497436523438
 20
959.544189453125
 30
0.0
 10
1070.497436523438
 20
1016.07421875
 30
0.0
 10
1070.497436523438
 20
1016.07421875
 30
0.0
 10
1070.497436523438
 20
1016.07421875
 30
0.0
 10
1058.507446289062
 20
1016.07421875
 30
0.0
 10
1058.507446289062
 20
1016.07421875
 30
0.0
 10
1058.507446289062
 20
1016.07421875
 30
0.0
 10
1058.507446289062
 20
948.51318359375
 30
0.0
 10
1058.507446289062
 20
948.51318359375
 30
0.0
 10
1058.507446289062
 20
948.51318359375
 30
0.0
 10
1089.287475585938
 20
948.51318359375
 30
0.0
 10
1089.287475585938
 20
948.51318359375
 30
0.0
 10
1091.557373046875
 20
948.51318359375
 30
0.0
 10
1093.717407226562
 20
948.9442138671875
 30
0.0
 10
1095.757446289062
 20
949.8031616210938
 30
0.0
 10
1097.807373046875
 20
950.6641845703125
 30
0.0
 10
1099.577392578125
 20
951.8441772460938
 30
0.0
 10
1101.077392578125
 20
953.3441772460938
 30
0.0
 10
1102.5673828125
 20
954.8441772460938
 30
0.0
 10
1103.747436523438
 20
956.6141967773438
 30
0.0
 10
1104.617431640625
 20
958.6541748046875
 30
0.0
 10
1105.478393554688
 20
960.7041625976562
 30
0.0
 10
1105.907470703125
 20
962.8532104492188
 30
0.0
 10
1105.907470703125
 20
965.1242065429688
 30
0.0
 10
1105.907470703125
 20
965.1242065429688
 30
0.0
 10
1105.907470703125
 20
1016.07421875
 30
0.0
 10
1105.907470703125
 20
1016.07421875
 30
0.0
 10
1105.907470703125
 20
1016.07421875
 30
0.0
 10
1093.91748046875
 20
1016.07421875
 30
0.0
 10
1093.91748046875
 20
1016.07421875
 30
0.0
  0
POLYLINE
  5
82
330
4A
100
AcDbEntity
  8
Layer 1
370
     0
100
AcDb2dPolyline
 66
     1
 10
0.0
 20
0.0
 30
0.0
  0
VERTEX
  5
83
330
82
100
AcDbEntity
  8
Layer 1
370
     0
100
AcDbVertex
100
AcDb2dVertex
 10
1116.667724609375
 20
1051.493774414062
 30
0.0
  0
VERTEX
  5
84
330
82
100
AcDbEntity
  8
Layer 1
370
     0
100
AcDbVertex
100
AcDb2dVertex
 10
1116.667724609375
 20
1040.453857421875
 30
0.0
  0
VERTEX
  5
85
330
82
100
AcDbEntity
  8
Layer 1
370
     0
100
AcDbVertex
100
AcDb2dVertex
 10
1124.707641601562
 20
1040.453857421875
 30
0.0
  0
VERTEX
  5
86
330
82
100
AcDbEntity
  8
Layer 1
370
     0
100
AcDbVertex
100
AcDb2dVertex
 10
1124.707641601562
 20
1023.69384765625
 30
0.0
  0
VERTEX
  5
87
330
82
100
AcDbEntity
  8
Layer 1
370
     0
100
AcDbVertex
100
AcDb2dVertex
 10
1136.69775390625
 20
1023.69384765625
 30
0.0
  0
VERTEX
  5
88
330
82
100
AcDbEntity
  8
Layer 1
370
     0
100
AcDbVertex
100
AcDb2dVertex
 10
1136.69775390625
 20
1040.453857421875
 30
0.0
  0
VERTEX
  5
89
330
82
100
AcDbEntity
  8
Layer 1
370
     0
100
AcDbVertex
100
AcDb2dVertex
 10
1144.86767578125
 20
1040.453857421875
 30
0.0
  0
VERTEX
  5
8A
330
82
100
AcDbEntity
  8
Layer 1
370
     0
100
AcDbVertex
100
AcDb2dVertex
 10
1144.86767578125
 20
1051.493774414062
 30
0.0
  0
VERTEX
  5
8B
330
82
100
AcDbEntity
  8
Layer 1
370
     0
100
AcDbVertex
100
AcDb2dVertex
 10
1116.667724609375
 20
1051.493774414062
 30
0.0
  0
SEQEND
  5
8C
330
82
100
AcDbEntity
  8
Layer 1
370
     0
  0
POLYLINE
  5
8D
330
4A
100
AcDbEntity
  8
Layer 1
370
     0
100
AcDb2dPolyline
 66
     1
 10
0.0
 20
0.0
 30
0.0
  0
VERTEX
  5
8E
330
8D
100
AcDbEntity
  8
Layer 1
370
     0
100
AcDbVertex
100
AcDb2dVertex
 10
1136.69775390625
 20
959.5438842773438
 30
0.0
  0
VERTEX
  5
8F
330
8D
100
AcDbEntity
  8
Layer 1
370
     0
100
AcDbVertex
100
AcDb2dVertex
 10
1136.69775390625
 20
1016.073852539062
 30
0.0
  0
VERTEX
  5
90
330
8D
100
AcDbEntity
  8
Layer 1
370
     0
100
AcDbVertex
100
AcDb2dVertex
 10
1124.707641601562
 20
1016.073852539062
 30
0.0
  0
VERTEX
  5
91
330
8D
100
AcDbEntity
  8
Layer 1
370
     0
100
AcDbVertex
100
AcDb2dVertex
 10
1124.707641601562
 20
959.5438842773438
 30
0.0
  0
VERTEX
  5
92
330
8D
100
AcDbEntity
  8
Layer 1
370
     0
100
AcDbVertex
100
AcDb2dVertex
 10
1116.667724609375
 20
959.5438842773438
 30
0.0
  0
VERTEX
  5
93
330
8D
100
AcDbEntity
  8
Layer 1
370
     0
100
AcDbVertex
100
AcDb2dVertex
 10
1116.667724609375
 20
948.5138549804688
 30
0.0
  0
VERTEX
  5
94
330
8D
100
AcDbEntity
  8
Layer 1
370
     0
100
AcDbVertex
100
AcDb2dVertex
 10
1144.86767578125
 20
948.5138549804688
 30
0.0
  0
VERTEX
  5
95
330
8D
100
AcDbEntity
  8
Layer 1
370
     0
100
AcDbVertex
100
AcDb2dVertex
 10
1144.86767578125
 20
959.5438842773438
 30
0.0
  0
VERTEX
  5
96
330
8D
100
AcDbEntity
  8
Layer 1
370
     0
100
AcDbVertex
100
AcDb2dVertex
 10
1136.69775390625
 20
959.5438842773438
 30
0.0
  0
SEQEND
  5
97
330
8D
100
AcDbEntity
  8
Layer 1
370
     0
  0
SPLINE
  5
98
330
4A
100
AcDbEntity
  8
Layer 1
370
     0
100
AcDbSpline
210
0.0
220
0.0
230
1.0
 70
    11
 71
     3
 72
    65
 73
    61
 74
     0
 42
0.0000000001
 43
0.0000000001
 12
1.0
 22
0.0
 32
0.0
 13
1.0
 23
0.0
 33
0.0
 40
0.0
 40
0.0
 40
0.0
 40
0.0
 40
1.0
 40
1.0
 40
1.0
 40
2.0
 40
2.0
 40
2.0
 40
3.0
 40
3.0
 40
3.0
 40
4.0
 40
4.0
 40
4.0
 40
5.0
 40
5.0
 40
5.0
 40
6.0
 40
6.0
 40
6.0
 40
7.0
 40
7.0
 40
7.0
 40
8.0
 40
8.0
 40
8.0
 40
9.0
 40
9.0
 40
9.0
 40
10.0
 40
10.0
 40
10.0
 40
11.0
 40
11.0
 40
11.0
 40
12.0
 40
12.0
 40
12.0
 40
13.0
 40
13.0
 40
13.0
 40
14.0
 40
14.0
 40
14.0
 40
15.0
 40
15.0
 40
15.0
 40
16.0
 40
16.0
 40
16.0
 40
17.0
 40
17.0
 40
17.0
 40
18.0
 40
18.0
 40
18.0
 40
19.0
 40
19.0
 40
19.0
 40
20.0
 40
20.0
 40
20.0
 40
20.0
 10
1198.94775390625
 20
1040.593627929688
 30
0.0
 10
1198.037719726562
 20
1042.773559570312
 30
0.0
 10
1196.767700195312
 20
1044.653564453125
 30
0.0
 10
1195.127685546875
 20
1046.24365234375
 30
0.0
 10
1193.497680664062
 20
1047.833618164062
 30
0.0
 10
1191.607666015625
 20
1049.103637695312
 30
0.0
 10
1189.477661132812
 20
1050.063598632812
 30
0.0
 10
1187.337646484375
 20
1051.013671875
 30
0.0
 10
1185.047729492188
 20
1051.49365234375
 30
0.0
 10
1182.5966796875
 20
1051.49365234375
 30
0.0
 10
1182.5966796875
 20
1051.49365234375
 30
0.0
 10
1172.517700195312
 20
1051.49365234375
 30
0.0
 10
1172.517700195312
 20
1051.49365234375
 30
0.0
 10
1170.067749023438
 20
1051.49365234375
 30
0.0
 10
1167.747680664062
 20
1051.013671875
 30
0.0
 10
1165.567749023438
 20
1050.063598632812
 30
0.0
 10
1163.38671875
 20
1049.103637695312
 30
0.0
 10
1161.507690429688
 20
1047.833618164062
 30
0.0
 10
1159.917724609375
 20
1046.24365234375
 30
0.0
 10
1158.32763671875
 20
1044.653564453125
 30
0.0
 10
1157.056640625
 20
1042.773559570312
 30
0.0
 10
1156.107666015625
 20
1040.593627929688
 30
0.0
 10
1155.147705078125
 20
1038.41357421875
 30
0.0
 10
1154.667724609375
 20
1036.093627929688
 30
0.0
 10
1154.667724609375
 20
1033.6435546875
 30
0.0
 10
1154.667724609375
 20
1033.6435546875
 30
0.0
 10
1154.667724609375
 20
1023.693664550781
 30
0.0
 10
1154.667724609375
 20
1023.693664550781
 30
0.0
 10
1154.667724609375
 20
1023.693664550781
 30
0.0
 10
1166.65771484375
 20
1023.693664550781
 30
0.0
 10
1166.65771484375
 20
1023.693664550781
 30
0.0
 10
1166.65771484375
 20
1023.693664550781
 30
0.0
 10
1166.65771484375
 20
1034.193603515625
 30
0.0
 10
1166.65771484375
 20
1034.193603515625
 30
0.0
 10
1166.65771484375
 20
1035.91357421875
 30
0.0
 10
1167.247680664062
 20
1037.3935546875
 30
0.0
 10
1168.426635742188
 20
1038.614624023438
 30
0.0
 10
1169.607666015625
 20
1039.843627929688
 30
0.0
 10
1171.107666015625
 20
1040.45361328125
 30
0.0
 10
1172.926635742188
 20
1040.45361328125
 30
0.0
 10
1172.926635742188
 20
1040.45361328125
 30
0.0
 10
1183.007690429688
 20
1040.45361328125
 30
0.0
 10
1183.007690429688
 20
1040.45361328125
 30
0.0
 10
1184.817749023438
 20
1040.45361328125
 30
0.0
 10
1186.317749023438
 20
1039.843627929688
 30
0.0
 10
1187.497680664062
 20
1038.614624023438
 30
0.0
 10
1188.676635742188
 20
1037.3935546875
 30
0.0
 10
1189.267700195312
 20
1035.91357421875
 30
0.0
 10
1189.267700195312
 20
1034.193603515625
 30
0.0
 10
1189.267700195312
 20
1034.193603515625
 30
0.0
 10
1189.267700195312
 20
1028.063598632812
 30
0.0
 10
1189.267700195312
 20
1028.063598632812
 30
0.0
 10
1189.267700195312
 20
1028.063598632812
 30
0.0
 10
1200.306640625
 20
1028.063598632812
 30
0.0
 10
1200.306640625
 20
1028.063598632812
 30
0.0
 10
1200.306640625
 20
1028.063598632812
 30
0.0
 10
1200.306640625
 20
1033.6435546875
 30
0.0
 10
1200.306640625
 20
1033.6435546875
 30
0.0
 10
1200.306640625
 20
1036.093627929688
 30
0.0
 10
1199.8466796875
 20
1038.41357421875
 30
0.0
 10
1198.94775390625
 20
1040.593627929688
 30
0.0
  0
SPLINE
  5
99
330
4A
100
AcDbEntity
  8
Layer 1
370
     0
100
AcDbSpline
210
0.0
220
0.0
230
1.0
 70
    11
 71
     3
 72
    95
 73
    91
 74
     0
 42
0.0000000001
 43
0.0000000001
 12
1.0
 22
0.0
 32
0.0
 13
1.0
 23
0.0
 33
0.0
 40
0.0
 40
0.0
 40
0.0
 40
0.0
 40
1.0
 40
1.0
 40
1.0
 40
2.0
 40
2.0
 40
2.0
 40
3.0
 40
3.0
 40
3.0
 40
4.0
 40
4.0
 40
4.0
 40
5.0
 40
5.0
 40
5.0
 40
6.0
 40
6.0
 40
6.0
 40
7.0
 40
7.0
 40
7.0
 40
8.0
 40
8.0
 40
8.0
 40
9.0
 40
9.0
 40
9.0
 40
10.0
 40
10.0
 40
10.0
 40
11.0
 40
11.0
 40
11.0
 40
12.0
 40
12.0
 40
12.0
 40
13.0
 40
13.0
 40
13.0
 40
14.0
 40
14.0
 40
14.0
 40
15.0
 40
15.0
 40
15.0
 40
16.0
 40
16.0
 40
16.0
 40
17.0
 40
17.0
 40
17.0
 40
18.0
 40
18.0
 40
18.0
 40
19.0
 40
19.0
 40
19.0
 40
20.0
 40
20.0
 40
20.0
 40
21.0
 40
21.0
 40
21.0
 40
22.0
 40
22.0
 40
22.0
 40
23.0
 40
23.0
 40
23.0
 40
24.0
 40
24.0
 40
24.0
 40
25.0
 40
25.0
 40
25.0
 40
26.0
 40
26.0
 40
26.0
 40
27.0
 40
27.0
 40
27.0
 40
28.0
 40
28.0
 40
28.0
 40
29.0
 40
29.0
 40
29.0
 40
30.0
 40
30.0
 40
30.0
 40
30.0
 10
1198.19775390625
 20
991.763671875
 30
0.0
 10
1196.056640625
 20
994.8036499023438
 30
0.0
 10
1193.357666015625
 20
997.503662109375
 30
0.0
 10
1190.087646484375
 20
999.8636474609375
 30
0.0
 10
1190.087646484375
 20
999.8636474609375
 30
0.0
 10
1173.056640625
 20
1011.443664550781
 30
0.0
 10
1173.056640625
 20
1011.443664550781
 30
0.0
 10
1171.337646484375
 20
1012.623657226562
 30
0.0
 10
1169.837646484375
 20
1013.983642578125
 30
0.0
 10
1168.567749023438
 20
1015.523620605469
 30
0.0
 10
1168.417724609375
 20
1015.70361328125
 30
0.0
 10
1168.287719726562
 20
1015.883666992188
 30
0.0
 10
1168.15771484375
 20
1016.074645996094
 30
0.0
 10
1168.15771484375
 20
1016.074645996094
 30
0.0
 10
1155.357666015625
 20
1016.074645996094
 30
0.0
 10
1155.357666015625
 20
1016.074645996094
 30
0.0
 10
1155.88671875
 20
1014.114624023438
 30
0.0
 10
1156.727661132812
 20
1012.324645996094
 30
0.0
 10
1157.877685546875
 20
1010.693664550781
 30
0.0
 10
1160.007690429688
 20
1007.654663085938
 30
0.0
 10
1162.757690429688
 20
1004.944641113281
 30
0.0
 10
1166.11767578125
 20
1002.583618164062
 30
0.0
 10
1166.11767578125
 20
1002.583618164062
 30
0.0
 10
1183.007690429688
 20
990.8736572265625
 30
0.0
 10
1183.007690429688
 20
990.8736572265625
 30
0.0
 10
1184.727661132812
 20
989.6946411132812
 30
0.0
 10
1186.227661132812
 20
988.3336181640625
 30
0.0
 10
1187.497680664062
 20
986.78466796875
 30
0.0
 10
1188.767700195312
 20
985.24365234375
 30
0.0
 10
1189.40771484375
 20
983.3836669921875
 30
0.0
 10
1189.40771484375
 20
981.20361328125
 30
0.0
 10
1189.40771484375
 20
981.20361328125
 30
0.0
 10
1189.40771484375
 20
965.8146362304688
 30
0.0
 10
1189.40771484375
 20
965.8146362304688
 30
0.0
 10
1189.40771484375
 20
963.99365234375
 30
0.0
 10
1188.817749023438
 20
962.49365234375
 30
0.0
 10
1187.63671875
 20
961.3146362304688
 30
0.0
 10
1186.457641601562
 20
960.1336669921875
 30
0.0
 10
1184.997680664062
 20
959.5436401367188
 30
0.0
 10
1183.277709960938
 20
959.5436401367188
 30
0.0
 10
1183.277709960938
 20
959.5436401367188
 30
0.0
 10
1172.247680664062
 20
959.5436401367188
 30
0.0
 10
1172.247680664062
 20
959.5436401367188
 30
0.0
 10
1170.517700195312
 20
959.5436401367188
 30
0.0
 10
1169.047729492188
 20
960.1336669921875
 30
0.0
 10
1167.817749023438
 20
961.3146362304688
 30
0.0
 10
1166.587646484375
 20
962.49365234375
 30
0.0
 10
1165.977661132812
 20
963.99365234375
 30
0.0
 10
1165.977661132812
 20
965.8146362304688
 30
0.0
 10
1165.977661132812
 20
965.8146362304688
 30
0.0
 10
1165.977661132812
 20
971.9336547851562
 30
0.0
 10
1165.977661132812
 20
971.9336547851562
 30
0.0
 10
1165.977661132812
 20
971.9336547851562
 30
0.0
 10
1154.94775390625
 20
971.9336547851562
 30
0.0
 10
1154.94775390625
 20
971.9336547851562
 30
0.0
 10
1154.94775390625
 20
971.9336547851562
 30
0.0
 10
1154.94775390625
 20
966.213623046875
 30
0.0
 10
1154.94775390625
 20
966.213623046875
 30
0.0
 10
1154.94775390625
 20
963.763671875
 30
0.0
 10
1155.417724609375
 20
961.4736328125
 30
0.0
 10
1156.377685546875
 20
959.3336181640625
 30
0.0
 10
1157.32763671875
 20
957.20361328125
 30
0.0
 10
1158.5966796875
 20
955.3246459960938
 30
0.0
 10
1160.187744140625
 20
953.6836547851562
 30
0.0
 10
1161.777709960938
 20
952.0536499023438
 30
0.0
 10
1163.667724609375
 20
950.774658203125
 30
0.0
 10
1165.837646484375
 20
949.8736572265625
 30
0.0
 10
1168.017700195312
 20
948.963623046875
 30
0.0
 10
1170.337646484375
 20
948.513671875
 30
0.0
 10
1172.787719726562
 20
948.513671875
 30
0.0
 10
1172.787719726562
 20
948.513671875
 30
0.0
 10
1183.687744140625
 20
948.513671875
 30
0.0
 10
1183.687744140625
 20
948.513671875
 30
0.0
 10
1186.13671875
 20
948.513671875
 30
0.0
 10
1188.426635742188
 20
948.963623046875
 30
0.0
 10
1190.567749023438
 20
949.8736572265625
 30
0.0
 10
1192.69775390625
 20
950.774658203125
 30
0.0
 10
1194.556640625
 20
952.0536499023438
 30
0.0
 10
1196.147705078125
 20
953.6836547851562
 30
0.0
 10
1197.737670898438
 20
955.3246459960938
 30
0.0
 10
1199.007690429688
 20
957.20361328125
 30
0.0
 10
1199.967651367188
 20
959.3336181640625
 30
0.0
 10
1200.917724609375
 20
961.4736328125
 30
0.0
 10
1201.397705078125
 20
963.763671875
 30
0.0
 10
1201.397705078125
 20
966.213623046875
 30
0.0
 10
1201.397705078125
 20
966.213623046875
 30
0.0
 10
1201.397705078125
 20
980.7936401367188
 30
0.0
 10
1201.397705078125
 20
980.7936401367188
 30
0.0
 10
1201.397705078125
 20
985.0646362304688
 30
0.0
 10
1200.32763671875
 20
988.713623046875
 30
0.0
 10
1198.19775390625
 20
991.763671875
 30
0.0
  0
SPLINE
  5
9A
330
4A
100
AcDbEntity
  8
Layer 1
370
     0
100
AcDbSpline
210
0.0
220
0.0
230
1.0
 70
    11
 71
     3
 72
    47
 73
    43
 74
     0
 42
0.0000000001
 43
0.0000000001
 12
1.0
 22
0.0
 32
0.0
 13
1.0
 23
0.0
 33
0.0
 40
0.0
 40
0.0
 40
0.0
 40
0.0
 40
1.0
 40
1.0
 40
1.0
 40
2.0
 40
2.0
 40
2.0
 40
3.0
 40
3.0
 40
3.0
 40
4.0
 40
4.0
 40
4.0
 40
5.0
 40
5.0
 40
5.0
 40
6.0
 40
6.0
 40
6.0
 40
7.0
 40
7.0
 40
7.0
 40
8.0
 40
8.0
 40
8.0
 40
9.0
 40
9.0
 40
9.0
 40
10.0
 40
10.0
 40
10.0
 40
11.0
 40
11.0
 40
11.0
 40
12.0
 40
12.0
 40
12.0
 40
13.0
 40
13.0
 40
13.0
 40
14.0
 40
14.0
 40
14.0
 40
14.0
 10
1258.3974609375
 20
1041.2041015625
 30
0.0
 10
1257.537475585938
 20
1043.254150390625
 30
0.0
 10
1256.357421875
 20
1045.024169921875
 30
0.0
 10
1254.857421875
 20
1046.51416015625
 30
0.0
 10
1253.357421875
 20
1048.01416015625
 30
0.0
 10
1251.58740234375
 20
1049.194213867188
 30
0.0
 10
1249.547485351562
 20
1050.064208984375
 30
0.0
 10
1247.507446289062
 20
1050.924194335938
 30
0.0
 10
1245.347412109375
 20
1051.354125976562
 30
0.0
 10
1243.077514648438
 20
1051.354125976562
 30
0.0
 10
1243.077514648438
 20
1051.354125976562
 30
0.0
 10
1212.287475585938
 20
1051.354125976562
 30
0.0
 10
1212.287475585938
 20
1051.354125976562
 30
0.0
 10
1212.287475585938
 20
1051.354125976562
 30
0.0
 10
1212.287475585938
 20
1023.694213867188
 30
0.0
 10
1212.287475585938
 20
1023.694213867188
 30
0.0
 10
1212.287475585938
 20
1023.694213867188
 30
0.0
 10
1224.277465820312
 20
1023.694213867188
 30
0.0
 10
1224.277465820312
 20
1023.694213867188
 30
0.0
 10
1224.277465820312
 20
1023.694213867188
 30
0.0
 10
1224.277465820312
 20
1040.32421875
 30
0.0
 10
1224.277465820312
 20
1040.32421875
 30
0.0
 10
1224.277465820312
 20
1040.32421875
 30
0.0
 10
1242.66748046875
 20
1040.32421875
 30
0.0
 10
1242.66748046875
 20
1040.32421875
 30
0.0
 10
1244.117431640625
 20
1040.32421875
 30
0.0
 10
1245.327514648438
 20
1039.82421875
 30
0.0
 10
1246.277465820312
 20
1038.82421875
 30
0.0
 10
1247.228515625
 20
1037.82421875
 30
0.0
 10
1247.70751953125
 20
1036.594116210938
 30
0.0
 10
1247.70751953125
 20
1035.144165039062
 30
0.0
 10
1247.70751953125
 20
1035.144165039062
 30
0.0
 10
1247.70751953125
 20
1023.694213867188
 30
0.0
 10
1247.70751953125
 20
1023.694213867188
 30
0.0
 10
1247.70751953125
 20
1023.694213867188
 30
0.0
 10
1259.697509765625
 20
1023.694213867188
 30
0.0
 10
1259.697509765625
 20
1023.694213867188
 30
0.0
 10
1259.697509765625
 20
1023.694213867188
 30
0.0
 10
1259.697509765625
 20
1034.734130859375
 30
0.0
 10
1259.697509765625
 20
1034.734130859375
 30
0.0
 10
1259.697509765625
 20
1037.004150390625
 30
0.0
 10
1259.268432617188
 20
1039.164184570312
 30
0.0
 10
1258.3974609375
 20
1041.2041015625
 30
0.0
  0
SPLINE
  5
9B
330
4A
100
AcDbEntity
  8
Layer 1
370
     0
100
AcDbSpline
210
0.0
220
0.0
230
1.0
 70
    11
 71
     3
 72
    53
 73
    49
 74
     0
 42
0.0000000001
 43
0.0000000001
 12
1.0
 22
0.0
 32
0.0
 13
1.0
 23
0.0
 33
0.0
 40
0.0
 40
0.0
 40
0.0
 40
0.0
 40
1.0
 40
1.0
 40
1.0
 40
2.0
 40
2.0
 40
2.0
 40
3.0
 40
3.0
 40
3.0
 40
4.0
 40
4.0
 40
4.0
 40
5.0
 40
5.0
 40
5.0
 40
6.0
 40
6.0
 40
6.0
 40
7.0
 40
7.0
 40
7.0
 40
8.0
 40
8.0
 40
8.0
 40
9.0
 40
9.0
 40
9.0
 40
10.0
 40
10.0
 40
10.0
 40
11.0
 40
11.0
 40
11.0
 40
12.0
 40
12.0
 40
12.0
 40
13.0
 40
13.0
 40
13.0
 40
14.0
 40
14.0
 40
14.0
 40
15.0
 40
15.0
 40
15.0
 40
16.0
 40
16.0
 40
16.0
 40
16.0
 10
1247.70751953125
 20
1016.07421875
 30
0.0
 10
1247.70751953125
 20
1016.07421875
 30
0.0
 10
1247.70751953125
 20
996.4541625976562
 30
0.0
 10
1247.70751953125
 20
996.4541625976562
 30
0.0
 10
1247.70751953125
 20
995.0941772460938
 30
0.0
 10
1247.228515625
 20
993.8941650390625
 30
0.0
 10
1246.277465820312
 20
992.8441772460938
 30
0.0
 10
1245.327514648438
 20
991.8031616210938
 30
0.0
 10
1244.117431640625
 20
991.2841796875
 30
0.0
 10
1242.66748046875
 20
991.2841796875
 30
0.0
 10
1242.66748046875
 20
991.2841796875
 30
0.0
 10
1224.277465820312
 20
991.2841796875
 30
0.0
 10
1224.277465820312
 20
991.2841796875
 30
0.0
 10
1224.277465820312
 20
991.2841796875
 30
0.0
 10
1224.277465820312
 20
1016.07421875
 30
0.0
 10
1224.277465820312
 20
1016.07421875
 30
0.0
 10
1224.277465820312
 20
1016.07421875
 30
0.0
 10
1212.287475585938
 20
1016.07421875
 30
0.0
 10
1212.287475585938
 20
1016.07421875
 30
0.0
 10
1212.287475585938
 20
1016.07421875
 30
0.0
 10
1212.287475585938
 20
948.51318359375
 30
0.0
 10
1212.287475585938
 20
948.51318359375
 30
0.0
 10
1212.287475585938
 20
948.51318359375
 30
0.0
 10
1224.277465820312
 20
948.51318359375
 30
0.0
 10
1224.277465820312
 20
948.51318359375
 30
0.0
 10
1224.277465820312
 20
948.51318359375
 30
0.0
 10
1224.277465820312
 20
980.2442016601562
 30
0.0
 10
1224.277465820312
 20
980.2442016601562
 30
0.0
 10
1224.277465820312
 20
980.2442016601562
 30
0.0
 10
1243.077514648438
 20
980.2442016601562
 30
0.0
 10
1243.077514648438
 20
980.2442016601562
 30
0.0
 10
1245.347412109375
 20
980.2442016601562
 30
0.0
 10
1247.507446289062
 20
980.7232055664062
 30
0.0
 10
1249.547485351562
 20
981.6741943359375
 30
0.0
 10
1251.58740234375
 20
982.6342163085938
 30
0.0
 10
1253.357421875
 20
983.8842163085938
 30
0.0
 10
1254.857421875
 20
985.4241943359375
 30
0.0
 10
1256.357421875
 20
986.9641723632812
 30
0.0
 10
1257.537475585938
 20
988.76318359375
 30
0.0
 10
1258.3974609375
 20
990.8031616210938
 30
0.0
 10
1259.268432617188
 20
992.8441772460938
 30
0.0
 10
1259.697509765625
 20
994.9141845703125
 30
0.0
 10
1259.697509765625
 20
997.0042114257812
 30
0.0
 10
1259.697509765625
 20
997.0042114257812
 30
0.0
 10
1259.697509765625
 20
1016.07421875
 30
0.0
 10
1259.697509765625
 20
1016.07421875
 30
0.0
 10
1259.697509765625
 20
1016.07421875
 30
0.0
 10
1247.70751953125
 20
1016.07421875
 30
0.0
 10
1247.70751953125
 20
1016.07421875
 30
0.0
  0
POLYLINE
  5
9C
330
4A
100
AcDbEntity
  8
Layer 1
370
     0
100
AcDb2dPolyline
 66
     1
 10
0.0
 20
0.0
 30
0.0
  0
VERTEX
  5
9D
330
9C
100
AcDbEntity
  8
Layer 1
370
     0
100
AcDbVertex
100
AcDb2dVertex
 10
1270.457641601562
 20
1023.69384765625
 30
0.0
  0
VERTEX
  5
9E
330
9C
100
AcDbEntity
  8
Layer 1
370
     0
100
AcDbVertex
100
AcDb2dVertex
 10
1282.44775390625
 20
1023.69384765625
 30
0.0
  0
VERTEX
  5
9F
330
9C
100
AcDbEntity
  8
Layer 1
370
     0
100
AcDbVertex
100
AcDb2dVertex
 10
1282.44775390625
 20
1051.493774414062
 30
0.0
  0
VERTEX
  5
A0
330
9C
100
AcDbEntity
  8
Layer 1
370
     0
100
AcDbVertex
100
AcDb2dVertex
 10
1270.457641601562
 20
1051.493774414062
 30
0.0
  0
VERTEX
  5
A1
330
9C
100
AcDbEntity
  8
Layer 1
370
     0
100
AcDbVertex
100
AcDb2dVertex
 10
1270.457641601562
 20
1023.69384765625
 30
0.0
  0
SEQEND
  5
A2
330
9C
100
AcDbEntity
  8
Layer 1
370
     0
  0
POLYLINE
  5
A3
330
4A
100
AcDbEntity
  8
Layer 1
370
     0
100
AcDb2dPolyline
 66
     1
 10
0.0
 20
0.0
 30
0.0
  0
VERTEX
  5
A4
330
A3
100
AcDbEntity
  8
Layer 1
370
     0
100
AcDbVertex
100
AcDb2dVertex
 10
1282.44775390625
 20
959.5438842773438
 30
0.0
  0
VERTEX
  5
A5
330
A3
100
AcDbEntity
  8
Layer 1
370
     0
100
AcDbVertex
100
AcDb2dVertex
 10
1282.44775390625
 20
1016.073852539062
 30
0.0
  0
VERTEX
  5
A6
330
A3
100
AcDbEntity
  8
Layer 1
370
     0
100
AcDbVertex
100
AcDb2dVertex
 10
1270.457641601562
 20
1016.073852539062
 30
0.0
  0
VERTEX
  5
A7
330
A3
100
AcDbEntity
  8
Layer 1
370
     0
100
AcDbVertex
100
AcDb2dVertex
 10
1270.457641601562
 20
948.5138549804688
 30
0.0
  0
VERTEX
  5
A8
330
A3
100
AcDbEntity
  8
Layer 1
370
     0
100
AcDbVertex
100
AcDb2dVertex
 10
1306.967651367188
 20
948.5138549804688
 30
0.0
  0
VERTEX
  5
A9
330
A3
100
AcDbEntity
  8
Layer 1
370
     0
100
AcDbVertex
100
AcDb2dVertex
 10
1306.967651367188
 20
959.5438842773438
 30
0.0
  0
VERTEX
  5
AA
330
A3
100
AcDbEntity
  8
Layer 1
370
     0
100
AcDbVertex
100
AcDb2dVertex
 10
1282.44775390625
 20
959.5438842773438
 30
0.0
  0
SEQEND
  5
AB
330
A3
100
AcDbEntity
  8
Layer 1
370
     0
  0
SPLINE
  5
AC
330
4A
100
AcDbEntity
  8
Layer 1
370
     0
100
AcDbSpline
210
0.0
220
0.0
230
1.0
 70
    11
 71
     3
 72
    65
 73
    61
 74
     0
 42
0.0000000001
 43
0.0000000001
 12
1.0
 22
0.0
 32
0.0
 13
1.0
 23
0.0
 33
0.0
 40
0.0
 40
0.0
 40
0.0
 40
0.0
 40
1.0
 40
1.0
 40
1.0
 40
2.0
 40
2.0
 40
2.0
 40
3.0
 40
3.0
 40
3.0
 40
4.0
 40
4.0
 40
4.0
 40
5.0
 40
5.0
 40
5.0
 40
6.0
 40
6.0
 40
6.0
 40
7.0
 40
7.0
 40
7.0
 40
8.0
 40
8.0
 40
8.0
 40
9.0
 40
9.0
 40
9.0
 40
10.0
 40
10.0
 40
10.0
 40
11.0
 40
11.0
 40
11.0
 40
12.0
 40
12.0
 40
12.0
 40
13.0
 40
13.0
 40
13.0
 40
14.0
 40
14.0
 40
14.0
 40
15.0
 40
15.0
 40
15.0
 40
16.0
 40
16.0
 40
16.0
 40
17.0
 40
17.0
 40
17.0
 40
18.0
 40
18.0
 40
18.0
 40
19.0
 40
19.0
 40
19.0
 40
20.0
 40
20.0
 40
20.0
 40
20.0
 10
1362.197265625
 20
1041.2041015625
 30
0.0
 10
1361.337280273438
 20
1043.254150390625
 30
0.0
 10
1360.1572265625
 20
1045.024169921875
 30
0.0
 10
1358.6572265625
 20
1046.51416015625
 30
0.0
 10
1357.1572265625
 20
1048.01416015625
 30
0.0
 10
1355.38720703125
 20
1049.194213867188
 30
0.0
 10
1353.347290039062
 20
1050.064208984375
 30
0.0
 10
1351.297241210938
 20
1050.924194335938
 30
0.0
 10
1349.148315429688
 20
1051.354125976562
 30
0.0
 10
1346.877319335938
 20
1051.354125976562
 30
0.0
 10
1346.877319335938
 20
1051.354125976562
 30
0.0
 10
1332.847290039062
 20
1051.354125976562
 30
0.0
 10
1332.847290039062
 20
1051.354125976562
 30
0.0
 10
1330.478271484375
 20
1051.354125976562
 30
0.0
 10
1328.297241210938
 20
1050.874145507812
 30
0.0
 10
1326.307250976562
 20
1049.924194335938
 30
0.0
 10
1324.307250976562
 20
1048.97412109375
 30
0.0
 10
1322.537231445312
 20
1047.72412109375
 30
0.0
 10
1320.997314453125
 20
1046.174194335938
 30
0.0
 10
1319.447265625
 20
1044.634155273438
 30
0.0
 10
1318.247314453125
 20
1042.864135742188
 30
0.0
 10
1317.38720703125
 20
1040.864135742188
 30
0.0
 10
1316.518310546875
 20
1038.864135742188
 30
0.0
 10
1316.087280273438
 20
1036.82421875
 30
0.0
 10
1316.087280273438
 20
1034.734130859375
 30
0.0
 10
1316.087280273438
 20
1034.734130859375
 30
0.0
 10
1316.087280273438
 20
1023.694213867188
 30
0.0
 10
1316.087280273438
 20
1023.694213867188
 30
0.0
 10
1316.087280273438
 20
1023.694213867188
 30
0.0
 10
1328.077270507812
 20
1023.694213867188
 30
0.0
 10
1328.077270507812
 20
1023.694213867188
 30
0.0
 10
1328.077270507812
 20
1023.694213867188
 30
0.0
 10
1328.077270507812
 20
1035.144165039062
 30
0.0
 10
1328.077270507812
 20
1035.144165039062
 30
0.0
 10
1328.077270507812
 20
1036.594116210938
 30
0.0
 10
1328.577270507812
 20
1037.82421875
 30
0.0
 10
1329.577270507812
 20
1038.82421875
 30
0.0
 10
1330.577270507812
 20
1039.82421875
 30
0.0
 10
1331.797241210938
 20
1040.32421875
 30
0.0
 10
1333.247314453125
 20
1040.32421875
 30
0.0
 10
1333.247314453125
 20
1040.32421875
 30
0.0
 10
1346.327270507812
 20
1040.32421875
 30
0.0
 10
1346.327270507812
 20
1040.32421875
 30
0.0
 10
1347.7783203125
 20
1040.32421875
 30
0.0
 10
1349.00732421875
 20
1039.82421875
 30
0.0
 10
1350.00732421875
 20
1038.82421875
 30
0.0
 10
1351.00732421875
 20
1037.82421875
 30
0.0
 10
1351.50732421875
 20
1036.594116210938
 30
0.0
 10
1351.50732421875
 20
1035.144165039062
 30
0.0
 10
1351.50732421875
 20
1035.144165039062
 30
0.0
 10
1351.50732421875
 20
1023.694213867188
 30
0.0
 10
1351.50732421875
 20
1023.694213867188
 30
0.0
 10
1351.50732421875
 20
1023.694213867188
 30
0.0
 10
1363.497314453125
 20
1023.694213867188
 30
0.0
 10
1363.497314453125
 20
1023.694213867188
 30
0.0
 10
1363.497314453125
 20
1023.694213867188
 30
0.0
 10
1363.497314453125
 20
1034.734130859375
 30
0.0
 10
1363.497314453125
 20
1034.734130859375
 30
0.0
 10
1363.497314453125
 20
1037.004150390625
 30
0.0
 10
1363.057250976562
 20
1039.164184570312
 30
0.0
 10
1362.197265625
 20
1041.2041015625
 30
0.0
  0
POLYLINE
  5
AD
330
4A
100
AcDbEntity
  8
Layer 1
370
     0
100
AcDb2dPolyline
 66
     1
 10
0.0
 20
0.0
 30
0.0
  0
VERTEX
  5
AE
330
AD
100
AcDbEntity
  8
Layer 1
370
     0
100
AcDbVertex
100
AcDb2dVertex
 10
1351.50732421875
 20
1016.07421875
 30
0.0
  0
VERTEX
  5
AF
330
AD
100
AcDbEntity
  8
Layer 1
370
     0
100
AcDbVertex
100
AcDb2dVertex
 10
1351.50732421875
 20
991.82421875
 30
0.0
  0
VERTEX
  5
B0
330
AD
100
AcDbEntity
  8
Layer 1
370
     0
100
AcDbVertex
100
AcDb2dVertex
 10
1328.077270507812
 20
991.82421875
 30
0.0
  0
VERTEX
  5
B1
330
AD
100
AcDbEntity
  8
Layer 1
370
     0
100
AcDbVertex
100
AcDb2dVertex
 10
1328.077270507812
 20
1016.07421875
 30
0.0
  0
VERTEX
  5
B2
330
AD
100
AcDbEntity
  8
Layer 1
370
     0
100
AcDbVertex
100
AcDb2dVertex
 10
1316.087280273438
 20
1016.07421875
 30
0.0
  0
VERTEX
  5
B3
330
AD
100
AcDbEntity
  8
Layer 1
370
     0
100
AcDbVertex
100
AcDb2dVertex
 10
1316.087280273438
 20
948.51318359375
 30
0.0
  0
VERTEX
  5
B4
330
AD
100
AcDbEntity
  8
Layer 1
370
     0
100
AcDbVertex
100
AcDb2dVertex
 10
1328.077270507812
 20
948.51318359375
 30
0.0
  0
VERTEX
  5
B5
330
AD
100
AcDbEntity
  8
Layer 1
370
     0
100
AcDbVertex
100
AcDb2dVertex
 10
1328.077270507812
 20
980.794189453125
 30
0.0
  0
VERTEX
  5
B6
330
AD
100
AcDbEntity
  8
Layer 1
370
     0
100
AcDbVertex
100
AcDb2dVertex
 10
1351.50732421875
 20
980.794189453125
 30
0.0
  0
VERTEX
  5
B7
330
AD
100
AcDbEntity
  8
Layer 1
370
     0
100
AcDbVertex
100
AcDb2dVertex
 10
1351.50732421875
 20
948.51318359375
 30
0.0
  0
VERTEX
  5
B8
330
AD
100
AcDbEntity
  8
Layer 1
370
     0
100
AcDbVertex
100
AcDb2dVertex
 10
1363.497314453125
 20
948.51318359375
 30
0.0
  0
VERTEX
  5
B9
330
AD
100
AcDbEntity
  8
Layer 1
370
     0
100
AcDbVertex
100
AcDb2dVertex
 10
1363.497314453125
 20
1016.07421875
 30
0.0
  0
VERTEX
  5
BA
330
AD
100
AcDbEntity
  8
Layer 1
370
     0
100
AcDbVertex
100
AcDb2dVertex
 10
1351.50732421875
 20
1016.07421875
 30
0.0
  0
SEQEND
  5
BB
330
AD
100
AcDbEntity
  8
Layer 1
370
     0
  0
SPLINE
  5
BC
330
4A
100
AcDbEntity
  8
Layer 1
370
     0
100
AcDbSpline
210
0.0
220
0.0
230
1.0
 70
    11
 71
     3
 72
    23
 73
    19
 74
     0
 42
0.0000000001
 43
0.0000000001
 12
1.0
 22
0.0
 32
0.0
 13
1.0
 23
0.0
 33
0.0
 40
0.0
 40
0.0
 40
0.0
 40
0.0
 40
1.0
 40
1.0
 40
1.0
 40
2.0
 40
2.0
 40
2.0
 40
3.0
 40
3.0
 40
3.0
 40
4.0
 40
4.0
 40
4.0
 40
5.0
 40
5.0
 40
5.0
 40
6.0
 40
6.0
 40
6.0
 40
6.0
 10
1382.157958984375
 20
1051.494140625
 30
0.0
 10
1382.157958984375
 20
1051.494140625
 30
0.0
 10
1369.756958007812
 20
1051.494140625
 30
0.0
 10
1369.756958007812
 20
1051.494140625
 30
0.0
 10
1370.207885742188
 20
1050.1240234375
 30
0.0
 10
1371.046875
 20
1047.634033203125
 30
0.0
 10
1372.277954101562
 20
1043.994140625
 30
0.0
 10
1373.506958007812
 20
1040.364135742188
 30
0.0
 10
1374.93798828125
 20
1036.1640625
 30
0.0
 10
1376.56787109375
 20
1031.39404296875
 30
0.0
 10
1377.416870117188
 20
1028.9140625
 30
0.0
 10
1378.296875
 20
1026.344116210938
 30
0.0
 10
1379.18798828125
 20
1023.694091796875
 30
0.0
 10
1379.18798828125
 20
1023.694091796875
 30
0.0
 10
1391.636962890625
 20
1023.694091796875
 30
0.0
 10
1391.636962890625
 20
1023.694091796875
 30
0.0
 10
1391.636962890625
 20
1023.694091796875
 30
0.0
 10
1382.157958984375
 20
1051.494140625
 30
0.0
 10
1382.157958984375
 20
1051.494140625
 30
0.0
  0
SPLINE
  5
BD
330
4A
100
AcDbEntity
  8
Layer 1
370
     0
100
AcDbSpline
210
0.0
220
0.0
230
1.0
 70
    11
 71
     3
 72
    38
 73
    34
 74
     0
 42
0.0000000001
 43
0.0000000001
 12
1.0
 22
0.0
 32
0.0
 13
1.0
 23
0.0
 33
0.0
 40
0.0
 40
0.0
 40
0.0
 40
0.0
 40
1.0
 40
1.0
 40
1.0
 40
2.0
 40
2.0
 40
2.0
 40
3.0
 40
3.0
 40
3.0
 40
4.0
 40
4.0
 40
4.0
 40
5.0
 40
5.0
 40
5.0
 40
6.0
 40
6.0
 40
6.0
 40
7.0
 40
7.0
 40
7.0
 40
8.0
 40
8.0
 40
8.0
 40
9.0
 40
9.0
 40
9.0
 40
10.0
 40
10.0
 40
10.0
 40
11.0
 40
11.0
 40
11.0
 40
11.0
 10
1405.43798828125
 20
1016.074096679688
 30
0.0
 10
1405.43798828125
 20
1016.074096679688
 30
0.0
 10
1399.85791015625
 20
999.5941162109375
 30
0.0
 10
1399.85791015625
 20
999.5941162109375
 30
0.0
 10
1399.85791015625
 20
999.5941162109375
 30
0.0
 10
1394.237915039062
 20
1016.074096679688
 30
0.0
 10
1394.237915039062
 20
1016.074096679688
 30
0.0
 10
1394.237915039062
 20
1016.074096679688
 30
0.0
 10
1381.767944335938
 20
1016.074096679688
 30
0.0
 10
1381.767944335938
 20
1016.074096679688
 30
0.0
 10
1383.577880859375
 20
1010.694091796875
 30
0.0
 10
1385.31787109375
 20
1005.634094238281
 30
0.0
 10
1386.987915039062
 20
1000.884094238281
 30
0.0
 10
1388.666870117188
 20
996.1141357421875
 30
0.0
 10
1390.117919921875
 20
991.8941040039062
 30
0.0
 10
1391.346923828125
 20
988.214111328125
 30
0.0
 10
1392.577880859375
 20
984.5441284179688
 30
0.0
 10
1393.416870117188
 20
982.0640869140625
 30
0.0
 10
1393.867919921875
 20
980.7941284179688
 30
0.0
 10
1393.867919921875
 20
980.7941284179688
 30
0.0
 10
1393.867919921875
 20
948.5140991210938
 30
0.0
 10
1393.867919921875
 20
948.5140991210938
 30
0.0
 10
1393.867919921875
 20
948.5140991210938
 30
0.0
 10
1405.85791015625
 20
948.5140991210938
 30
0.0
 10
1405.85791015625
 20
948.5140991210938
 30
0.0
 10
1405.85791015625
 20
948.5140991210938
 30
0.0
 10
1405.85791015625
 20
980.7941284179688
 30
0.0
 10
1405.85791015625
 20
980.7941284179688
 30
0.0
 10
1405.85791015625
 20
980.7941284179688
 30
0.0
 10
1417.81787109375
 20
1016.074096679688
 30
0.0
 10
1417.81787109375
 20
1016.074096679688
 30
0.0
 10
1417.81787109375
 20
1016.074096679688
 30
0.0
 10
1405.43798828125
 20
1016.074096679688
 30
0.0
 10
1405.43798828125
 20
1016.074096679688
 30
0.0
  0
POLYLINE
  5
BE
330
4A
100
AcDbEntity
  8
Layer 1
370
     0
100
AcDb2dPolyline
 66
     1
 10
0.0
 20
0.0
 30
0.0
  0
VERTEX
  5
BF
330
BE
100
AcDbEntity
  8
Layer 1
370
     0
100
AcDbVertex
100
AcDb2dVertex
 10
1417.43798828125
 20
1051.494140625
 30
0.0
  0
VERTEX
  5
C0
330
BE
100
AcDbEntity
  8
Layer 1
370
     0
100
AcDbVertex
100
AcDb2dVertex
 10
1408.017944335938
 20
1023.694091796875
 30
0.0
  0
VERTEX
  5
C1
330
BE
100
AcDbEntity
  8
Layer 1
370
     0
100
AcDbVertex
100
AcDb2dVertex
 10
1420.39794921875
 20
1023.694091796875
 30
0.0
  0
VERTEX
  5
C2
330
BE
100
AcDbEntity
  8
Layer 1
370
     0
100
AcDbVertex
100
AcDb2dVertex
 10
1429.827880859375
 20
1051.494140625
 30
0.0
  0
VERTEX
  5
C3
330
BE
100
AcDbEntity
  8
Layer 1
370
     0
100
AcDbVertex
100
AcDb2dVertex
 10
1417.43798828125
 20
1051.494140625
 30
0.0
  0
SEQEND
  5
C4
330
BE
100
AcDbEntity
  8
Layer 1
370
     0
  0
SPLINE
  5
C5
330
4A
100
AcDbEntity
  8
Layer 1
370
     0
100
AcDbSpline
210
0.0
220
0.0
230
1.0
 70
    11
 71
     3
 72
    29
 73
    25
 74
     0
 42
0.0000000001
 43
0.0000000001
 12
1.0
 22
0.0
 32
0.0
 13
1.0
 23
0.0
 33
0.0
 40
0.0
 40
0.0
 40
0.0
 40
0.0
 40
1.0
 40
1.0
 40
1.0
 40
2.0
 40
2.0
 40
2.0
 40
3.0
 40
3.0
 40
3.0
 40
4.0
 40
4.0
 40
4.0
 40
5.0
 40
5.0
 40
5.0
 40
6.0
 40
6.0
 40
6.0
 40
7.0
 40
7.0
 40
7.0
 40
8.0
 40
8.0
 40
8.0
 40
8.0
 10
1566.568115234375
 20
857.3539428710938
 30
0.0
 10
1566.568115234375
 20
857.3539428710938
 30
0.0
 10
433.4341125488281
 20
857.3539428710938
 30
0.0
 10
433.4341125488281
 20
857.3539428710938
 30
0.0
 10
424.89208984375
 20
857.3539428710938
 30
0.0
 10
417.9421081542969
 20
864.302978515625
 30
0.0
 10
417.9421081542969
 20
872.845947265625
 30
0.0
 10
417.9421081542969
 20
872.845947265625
 30
0.0
 10
417.9421081542969
 20
1127.154907226562
 30
0.0
 10
417.9421081542969
 20
1127.154907226562
 30
0.0
 10
417.9421081542969
 20
1135.696899414062
 30
0.0
 10
424.89208984375
 20
1142.64697265625
 30
0.0
 10
433.4341125488281
 20
1142.64697265625
 30
0.0
 10
433.4341125488281
 20
1142.64697265625
 30
0.0
 10
1566.568115234375
 20
1142.64697265625
 30
0.0
 10
1566.568115234375
 20
1142.64697265625
 30
0.0
 10
1575.110107421875
 20
1142.64697265625
 30
0.0
 10
1582.05908203125
 20
1135.696899414062
 30
0.0
 10
1582.05908203125
 20
1127.154907226562
 30
0.0
 10
1582.05908203125
 20
1127.154907226562
 30
0.0
 10
1582.05908203125
 20
872.845947265625
 30
0.0
 10
1582.05908203125
 20
872.845947265625
 30
0.0
 10
1582.05908203125
 20
864.302978515625
 30
0.0
 10
1575.110107421875
 20
857.3539428710938
 30
0.0
 10
1566.568115234375
 20
857.3539428710938
 30
0.0
  0
SPLINE
  5
C6
330
4A
100
AcDbEntity
  8
Layer 1
370
     0
100
AcDbSpline
210
0.0
220
0.0
230
1.0
 70
    11
 71
     3
 72
    29
 73
    25
 74
     0
 42
0.0000000001
 43
0.0000000001
 12
1.0
 22
0.0
 32
0.0
 13
1.0
 23
0.0
 33
0.0
 40
0.0
 40
0.0
 40
0.0
 40
0.0
 40
1.0
 40
1.0
 40
1.0
 40
2.0
 40
2.0
 40
2.0
 40
3.0
 40
3.0
 40
3.0
 40
4.0
 40
4.0
 40
4.0
 40
5.0
 40
5.0
 40
5.0
 40
6.0
 40
6.0
 40
6.0
 40
7.0
 40
7.0
 40
7.0
 40
8.0
 40
8.0
 40
8.0
 40
8.0
 10
433.4341125488281
 20
1132.64697265625
 30
0.0
 10
430.4060974121094
 20
1132.64697265625
 30
0.0
 10
427.9421081542969
 20
1130.183959960938
 30
0.0
 10
427.9421081542969
 20
1127.154907226562
 30
0.0
 10
427.9421081542969
 20
1127.154907226562
 30
0.0
 10
427.9421081542969
 20
872.845947265625
 30
0.0
 10
427.9421081542969
 20
872.845947265625
 30
0.0
 10
427.9421081542969
 20
869.8159790039062
 30
0.0
 10
430.4060974121094
 20
867.3539428710938
 30
0.0
 10
433.4341125488281
 20
867.3539428710938
 30
0.0
 10
433.4341125488281
 20
867.3539428710938
 30
0.0
 10
1566.568115234375
 20
867.3539428710938
 30
0.0
 10
1566.568115234375
 20
867.3539428710938
 30
0.0
 10
1569.596069335938
 20
867.3539428710938
 30
0.0
 10
1572.05908203125
 20
869.8159790039062
 30
0.0
 10
1572.05908203125
 20
872.845947265625
 30
0.0
 10
1572.05908203125
 20
872.845947265625
 30
0.0
 10
1572.05908203125
 20
1127.154907226562
 30
0.0
 10
1572.05908203125
 20
1127.154907226562
 30
0.0
 10
1572.05908203125
 20
1130.183959960938
 30
0.0
 10
1569.596069335938
 20
1132.64697265625
 30
0.0
 10
1566.568115234375
 20
1132.64697265625
 30
0.0
 10
1566.568115234375
 20
1132.64697265625
 30
0.0
 10
433.4341125488281
 20
1132.64697265625
 30
0.0
 10
433.4341125488281
 20
1132.64697265625
 30
0.0
  0
SPLINE
  5
C7
330
4A
100
AcDbEntity
  8
Layer 1
370
     0
100
AcDbSpline
210
0.0
220
0.0
230
1.0
 70
    11
 71
     3
 72
    29
 73
    25
 74
     0
 42
0.0000000001
 43
0.0000000001
 12
1.0
 22
0.0
 32
0.0
 13
1.0
 23
0.0
 33
0.0
 40
0.0
 40
0.0
 40
0.0
 40
0.0
 40
1.0
 40
1.0
 40
1.0
 40
2.0
 40
2.0
 40
2.0
 40
3.0
 40
3.0
 40
3.0
 40
4.0
 40
4.0
 40
4.0
 40
5.0
 40
5.0
 40
5.0
 40
6.0
 40
6.0
 40
6.0
 40
7.0
 40
7.0
 40
7.0
 40
8.0
 40
8.0
 40
8.0
 40
8.0
 10
1455.360107421875
 20
905.8262329101562
 30
0.0
 10
1455.360107421875
 20
905.8262329101562
 30
0.0
 10
544.64208984375
 20
905.8262329101562
 30
0.0
 10
544.64208984375
 20
905.8262329101562
 30
0.0
 10
536.8480834960938
 20
905.8262329101562
 30
0.0
 10
530.5060424804688
 20
912.168212890625
 30
0.0
 10
530.5060424804688
 20
919.9631958007812
 30
0.0
 10
530.5060424804688
 20
919.9631958007812
 30
0.0
 10
530.5060424804688
 20
1080.037109375
 30
0.0
 10
530.5060424804688
 20
1080.037109375
 30
0.0
 10
530.5060424804688
 20
1087.831176757812
 30
0.0
 10
536.8480834960938
 20
1094.173217773438
 30
0.0
 10
544.64208984375
 20
1094.173217773438
 30
0.0
 10
544.64208984375
 20
1094.173217773438
 30
0.0
 10
1455.360107421875
 20
1094.173217773438
 30
0.0
 10
1455.360107421875
 20
1094.173217773438
 30
0.0
 10
1463.154052734375
 20
1094.173217773438
 30
0.0
 10
1469.4951171875
 20
1087.831176757812
 30
0.0
 10
1469.4951171875
 20
1080.037109375
 30
0.0
 10
1469.4951171875
 20
1080.037109375
 30
0.0
 10
1469.4951171875
 20
919.9631958007812
 30
0.0
 10
1469.4951171875
 20
919.9631958007812
 30
0.0
 10
1469.4951171875
 20
912.168212890625
 30
0.0
 10
1463.154052734375
 20
905.8262329101562
 30
0.0
 10
1455.360107421875
 20
905.8262329101562
 30
0.0
  0
SPLINE
  5
C8
330
4A
100
AcDbEntity
  8
Layer 1
370
     0
100
AcDbSpline
210
0.0
220
0.0
230
1.0
 70
    11
 71
     3
 72
    29
 73
    25
 74
     0
 42
0.0000000001
 43
0.0000000001
 12
1.0
 22
0.0
 32
0.0
 13
1.0
 23
0.0
 33
0.0
 40
0.0
 40
0.0
 40
0.0
 40
0.0
 40
1.0
 40
1.0
 40
1.0
 40
2.0
 40
2.0
 40
2.0
 40
3.0
 40
3.0
 40
3.0
 40
4.0
 40
4.0
 40
4.0
 40
5.0
 40
5.0
 40
5.0
 40
6.0
 40
6.0
 40
6.0
 40
7.0
 40
7.0
 40
7.0
 40
8.0
 40
8.0
 40
8.0
 40
8.0
 10
544.64208984375
 20
1086.88623046875
 30
0.0
 10
540.8660888671875
 20
1086.88623046875
 30
0.0
 10
537.7930297851562
 20
1083.814208984375
 30
0.0
 10
537.7930297851562
 20
1080.037109375
 30
0.0
 10
537.7930297851562
 20
1080.037109375
 30
0.0
 10
537.7930297851562
 20
919.9631958007812
 30
0.0
 10
537.7930297851562
 20
919.9631958007812
 30
0.0
 10
537.7930297851562
 20
916.1851806640625
 30
0.0
 10
540.8660888671875
 20
913.1132202148438
 30
0.0
 10
544.64208984375
 20
913.1132202148438
 30
0.0
 10
544.64208984375
 20
913.1132202148438
 30
0.0
 10
1455.360107421875
 20
913.1132202148438
 30
0.0
 10
1455.360107421875
 20
913.1132202148438
 30
0.0
 10
1459.136108398438
 20
913.1132202148438
 30
0.0
 10
1462.20703125
 20
916.1851806640625
 30
0.0
 10
1462.20703125
 20
919.9631958007812
 30
0.0
 10
1462.20703125
 20
919.9631958007812
 30
0.0
 10
1462.20703125
 20
1080.037109375
 30
0.0
 10
1462.20703125
 20
1080.037109375
 30
0.0
 10
1462.20703125
 20
1083.814208984375
 30
0.0
 10
1459.136108398438
 20
1086.88623046875
 30
0.0
 10
1455.360107421875
 20
1086.88623046875
 30
0.0
 10
1455.360107421875
 20
1086.88623046875
 30
0.0
 10
544.64208984375
 20
1086.88623046875
 30
0.0
 10
544.64208984375
 20
1086.88623046875
 30
0.0
  0
POLYLINE
  5
C9
330
4A
100
AcDbEntity
  8
Layer 1
370
     0
100
AcDb2dPolyline
 66
     1
 10
0.0
 20
0.0
 30
0.0
  0
VERTEX
  5
CA
330
C9
100
AcDbEntity
  8
Layer 1
370
     0
100
AcDbVertex
100
AcDb2dVertex
 10
460.8819885253906
 20
1036.180053710938
 30
0.0
  0
VERTEX
  5
CB
330
C9
100
AcDbEntity
  8
Layer 1
370
     0
100
AcDbVertex
100
AcDb2dVertex
 10
422.9409790039062
 20
1036.180053710938
 30
0.0
  0
VERTEX
  5
CC
330
C9
100
AcDbEntity
  8
Layer 1
370
     0
100
AcDbVertex
100
AcDb2dVertex
 10
422.9409790039062
 20
1105.381103515625
 30
0.0
  0
VERTEX
  5
CD
330
C9
100
AcDbEntity
  8
Layer 1
370
     0
100
AcDbVertex
100
AcDb2dVertex
 10
460.8819885253906
 20
1105.381103515625
 30
0.0
  0
VERTEX
  5
CE
330
C9
100
AcDbEntity
  8
Layer 1
370
     0
100
AcDbVertex
100
AcDb2dVertex
 10
460.8819885253906
 20
1036.180053710938
 30
0.0
  0
SEQEND
  5
CF
330
C9
100
AcDbEntity
  8
Layer 1
370
     0
  0
POLYLINE
  5
D0
330
4A
100
AcDbEntity
  8
Layer 1
370
     0
100
AcDb2dPolyline
 66
     1
 10
0.0
 20
0.0
 30
0.0
  0
VERTEX
  5
D1
330
D0
100
AcDbEntity
  8
Layer 1
370
     0
100
AcDbVertex
100
AcDb2dVertex
 10
0.0
 20
2000.0
 30
0.0
  0
VERTEX
  5
D2
330
D0
100
AcDbEntity
  8
Layer 1
370
     0
100
AcDbVertex
100
AcDb2dVertex
 10
2000.0
 20
2000.0
 30
0.0
  0
VERTEX
  5
D3
330
D0
100
AcDbEntity
  8
Layer 1
370
     0
100
AcDbVertex
100
AcDb2dVertex
 10
2000.0
 20
0.0
 30
0.0
  0
VERTEX
  5
D4
330
D0
100
AcDbEntity
  8
Layer 1
370
     0
100
AcDbVertex
100
AcDb2dVertex
 10
0.0
 20
0.0
 30
0.0
  0
VERTEX
  5
D5
330
D0
100
AcDbEntity
  8
Layer 1
370
     0
100
AcDbVertex
100
AcDb2dVertex
 10
0.0
 20
2000.0
 30
0.0
  0
SEQEND
  5
D6
330
D0
100
AcDbEntity
  8
Layer 1
370
     0
  0
POLYLINE
  5
D7
330
4A
100
AcDbEntity
  8
Layer 1
370
     0
100
AcDb2dPolyline
 66
     1
 10
0.0
 20
0.0
 30
0.0
  0
VERTEX
  5
D8
330
D7
100
AcDbEntity
  8
Layer 1
370
     0
100
AcDbVertex
100
AcDb2dVertex
 10
695.897705078125
 20
959.5441284179688
 30
0.0
  0
VERTEX
  5
D9
330
D7
100
AcDbEntity
  8
Layer 1
370
     0
100
AcDbVertex
100
AcDb2dVertex
 10
695.897705078125
 20
991.694091796875
 30
0.0
  0
VERTEX
  5
DA
330
D7
100
AcDbEntity
  8
Layer 1
370
     0
100
AcDbVertex
100
AcDb2dVertex
 10
721.36767578125
 20
991.694091796875
 30
0.0
  0
VERTEX
  5
DB
330
D7
100
AcDbEntity
  8
Layer 1
370
     0
100
AcDbVertex
100
AcDb2dVertex
 10
721.36767578125
 20
1002.72412109375
 30
0.0
  0
VERTEX
  5
DC
330
D7
100
AcDbEntity
  8
Layer 1
370
     0
100
AcDbVertex
100
AcDb2dVertex
 10
695.897705078125
 20
1002.72412109375
 30
0.0
  0
VERTEX
  5
DD
330
D7
100
AcDbEntity
  8
Layer 1
370
     0
100
AcDbVertex
100
AcDb2dVertex
 10
695.897705078125
 20
1016.074096679688
 30
0.0
  0
VERTEX
  5
DE
330
D7
100
AcDbEntity
  8
Layer 1
370
     0
100
AcDbVertex
100
AcDb2dVertex
 10
683.90771484375
 20
1016.074096679688
 30
0.0
  0
VERTEX
  5
DF
330
D7
100
AcDbEntity
  8
Layer 1
370
     0
100
AcDbVertex
100
AcDb2dVertex
 10
683.90771484375
 20
948.5140991210938
 30
0.0
  0
VERTEX
  5
E0
330
D7
100
AcDbEntity
  8
Layer 1
370
     0
100
AcDbVertex
100
AcDb2dVertex
 10
725.0476684570312
 20
948.5140991210938
 30
0.0
  0
VERTEX
  5
E1
330
D7
100
AcDbEntity
  8
Layer 1
370
     0
100
AcDbVertex
100
AcDb2dVertex
 10
725.0476684570312
 20
959.5441284179688
 30
0.0
  0
VERTEX
  5
E2
330
D7
100
AcDbEntity
  8
Layer 1
370
     0
100
AcDbVertex
100
AcDb2dVertex
 10
695.897705078125
 20
959.5441284179688
 30
0.0
  0
SEQEND
  5
E3
330
D7
100
AcDbEntity
  8
Layer 1
370
     0
  0
POLYLINE
  5
E4
330
4A
100
AcDbEntity
  8
Layer 1
370
     0
100
AcDb2dPolyline
 66
     1
 10
0.0
 20
0.0
 30
0.0
  0
VERTEX
  5
E5
330
E4
100
AcDbEntity
  8
Layer 1
370
     0
100
AcDbVertex
100
AcDb2dVertex
 10
683.90771484375
 20
1051.494140625
 30
0.0
  0
VERTEX
  5
E6
330
E4
100
AcDbEntity
  8
Layer 1
370
     0
100
AcDbVertex
100
AcDb2dVertex
 10
683.90771484375
 20
1023.694091796875
 30
0.0
  0
VERTEX
  5
E7
330
E4
100
AcDbEntity
  8
Layer 1
370
     0
100
AcDbVertex
100
AcDb2dVertex
 10
695.897705078125
 20
1023.694091796875
 30
0.0
  0
VERTEX
  5
E8
330
E4
100
AcDbEntity
  8
Layer 1
370
     0
100
AcDbVertex
100
AcDb2dVertex
 10
695.897705078125
 20
1040.324096679688
 30
0.0
  0
VERTEX
  5
E9
330
E4
100
AcDbEntity
  8
Layer 1
370
     0
100
AcDbVertex
100
AcDb2dVertex
 10
725.1876831054688
 20
1040.324096679688
 30
0.0
  0
VERTEX
  5
EA
330
E4
100
AcDbEntity
  8
Layer 1
370
     0
100
AcDbVertex
100
AcDb2dVertex
 10
725.1876831054688
 20
1051.494140625
 30
0.0
  0
VERTEX
  5
EB
330
E4
100
AcDbEntity
  8
Layer 1
370
     0
100
AcDbVertex
100
AcDb2dVertex
 10
683.90771484375
 20
1051.494140625
 30
0.0
  0
SEQEND
  5
EC
330
E4
100
AcDbEntity
  8
Layer 1
370
     0
  0
POLYLINE
  5
ED
330
4A
100
AcDbEntity
  8
Layer 1
370
     0
100
AcDb2dPolyline
 66
     1
 10
0.0
 20
0.0
 30
0.0
  0
VERTEX
  5
EE
330
ED
100
AcDbEntity
  8
Layer 1
370
     0
100
AcDbVertex
100
AcDb2dVertex
 10
660.8870239257812
 20
1023.693969726562
 30
0.0
  0
VERTEX
  5
EF
330
ED
100
AcDbEntity
  8
Layer 1
370
     0
100
AcDbVertex
100
AcDb2dVertex
 10
672.738037109375
 20
1023.693969726562
 30
0.0
  0
VERTEX
  5
F0
330
ED
100
AcDbEntity
  8
Layer 1
370
     0
100
AcDbVertex
100
AcDb2dVertex
 10
672.738037109375
 20
1051.494018554688
 30
0.0
  0
VERTEX
  5
F1
330
ED
100
AcDbEntity
  8
Layer 1
370
     0
100
AcDbVertex
100
AcDb2dVertex
 10
660.8870239257812
 20
1051.494018554688
 30
0.0
  0
VERTEX
  5
F2
330
ED
100
AcDbEntity
  8
Layer 1
370
     0
100
AcDbVertex
100
AcDb2dVertex
 10
660.8870239257812
 20
1023.693969726562
 30
0.0
  0
SEQEND
  5
F3
330
ED
100
AcDbEntity
  8
Layer 1
370
     0
  0
POLYLINE
  5
F4
330
4A
100
AcDbEntity
  8
Layer 1
370
     0
100
AcDb2dPolyline
 66
     1
 10
0.0
 20
0.0
 30
0.0
  0
VERTEX
  5
F5
330
F4
100
AcDbEntity
  8
Layer 1
370
     0
100
AcDbVertex
100
AcDb2dVertex
 10
660.8870239257812
 20
1016.073974609375
 30
0.0
  0
VERTEX
  5
F6
330
F4
100
AcDbEntity
  8
Layer 1
370
     0
100
AcDbVertex
100
AcDb2dVertex
 10
660.8870239257812
 20
1001.364013671875
 30
0.0
  0
VERTEX
  5
F7
330
F4
100
AcDbEntity
  8
Layer 1
370
     0
100
AcDbVertex
100
AcDb2dVertex
 10
637.4580078125
 20
1001.364013671875
 30
0.0
  0
VERTEX
  5
F8
330
F4
100
AcDbEntity
  8
Layer 1
370
     0
100
AcDbVertex
100
AcDb2dVertex
 10
637.4580078125
 20
1016.073974609375
 30
0.0
  0
VERTEX
  5
F9
330
F4
100
AcDbEntity
  8
Layer 1
370
     0
100
AcDbVertex
100
AcDb2dVertex
 10
625.47802734375
 20
1016.073974609375
 30
0.0
  0
VERTEX
  5
FA
330
F4
100
AcDbEntity
  8
Layer 1
370
     0
100
AcDbVertex
100
AcDb2dVertex
 10
625.47802734375
 20
948.5139770507812
 30
0.0
  0
VERTEX
  5
FB
330
F4
100
AcDbEntity
  8
Layer 1
370
     0
100
AcDbVertex
100
AcDb2dVertex
 10
637.4580078125
 20
948.5139770507812
 30
0.0
  0
VERTEX
  5
FC
330
F4
100
AcDbEntity
  8
Layer 1
370
     0
100
AcDbVertex
100
AcDb2dVertex
 10
637.4580078125
 20
990.323974609375
 30
0.0
  0
VERTEX
  5
FD
330
F4
100
AcDbEntity
  8
Layer 1
370
     0
100
AcDbVertex
100
AcDb2dVertex
 10
660.8870239257812
 20
990.323974609375
 30
0.0
  0
VERTEX
  5
FE
330
F4
100
AcDbEntity
  8
Layer 1
370
     0
100
AcDbVertex
100
AcDb2dVertex
 10
660.8870239257812
 20
948.5139770507812
 30
0.0
  0
VERTEX
  5
FF
330
F4
100
AcDbEntity
  8
Layer 1
370
     0
100
AcDbVertex
100
AcDb2dVertex
 10
672.7379760742188
 20
948.5139770507812
 30
0.0
  0
VERTEX
  5
100
330
F4
100
AcDbEntity
  8
Layer 1
370
     0
100
AcDbVertex
100
AcDb2dVertex
 10
672.7379760742188
 20
1016.073974609375
 30
0.0
  0
VERTEX
  5
101
330
F4
100
AcDbEntity
  8
Layer 1
370
     0
100
AcDbVertex
100
AcDb2dVertex
 10
660.8870239257812
 20
1016.073974609375
 30
0.0
  0
SEQEND
  5
102
330
F4
100
AcDbEntity
  8
Layer 1
370
     0
  0
POLYLINE
  5
103
330
4A
100
AcDbEntity
  8
Layer 1
370
     0
100
AcDb2dPolyline
 66
     1
 10
0.0
 20
0.0
 30
0.0
  0
VERTEX
  5
104
330
103
100
AcDbEntity
  8
Layer 1
370
     0
100
AcDbVertex
100
AcDb2dVertex
 10
625.47802734375
 20
1023.693969726562
 30
0.0
  0
VERTEX
  5
105
330
103
100
AcDbEntity
  8
Layer 1
370
     0
100
AcDbVertex
100
AcDb2dVertex
 10
637.45703125
 20
1023.693969726562
 30
0.0
  0
VERTEX
  5
106
330
103
100
AcDbEntity
  8
Layer 1
370
     0
100
AcDbVertex
100
AcDb2dVertex
 10
637.45703125
 20
1051.494018554688
 30
0.0
  0
VERTEX
  5
107
330
103
100
AcDbEntity
  8
Layer 1
370
     0
100
AcDbVertex
100
AcDb2dVertex
 10
625.47802734375
 20
1051.494018554688
 30
0.0
  0
VERTEX
  5
108
330
103
100
AcDbEntity
  8
Layer 1
370
     0
100
AcDbVertex
100
AcDb2dVertex
 10
625.47802734375
 20
1023.693969726562
 30
0.0
  0
SEQEND
  5
109
330
103
100
AcDbEntity
  8
Layer 1
370
     0
  0
POLYLINE
  5
10A
330
4A
100
AcDbEntity
  8
Layer 1
370
     0
100
AcDb2dPolyline
 66
     1
 10
0.0
 20
0.0
 30
0.0
  0
VERTEX
  5
10B
330
10A
100
AcDbEntity
  8
Layer 1
370
     0
100
AcDbVertex
100
AcDb2dVertex
 10
570.1669921875
 20
1051.494018554688
 30
0.0
  0
VERTEX
  5
10C
330
10A
100
AcDbEntity
  8
Layer 1
370
     0
100
AcDbVertex
100
AcDb2dVertex
 10
570.1669921875
 20
1040.323974609375
 30
0.0
  0
VERTEX
  5
10D
330
10A
100
AcDbEntity
  8
Layer 1
370
     0
100
AcDbVertex
100
AcDb2dVertex
 10
587.3369750976562
 20
1040.323974609375
 30
0.0
  0
VERTEX
  5
10E
330
10A
100
AcDbEntity
  8
Layer 1
370
     0
100
AcDbVertex
100
AcDb2dVertex
 10
587.3369750976562
 20
1023.693969726562
 30
0.0
  0
VERTEX
  5
10F
330
10A
100
AcDbEntity
  8
Layer 1
370
     0
100
AcDbVertex
100
AcDb2dVertex
 10
599.18798828125
 20
1023.693969726562
 30
0.0
  0
VERTEX
  5
110
330
10A
100
AcDbEntity
  8
Layer 1
370
     0
100
AcDbVertex
100
AcDb2dVertex
 10
599.18798828125
 20
1040.323974609375
 30
0.0
  0
VERTEX
  5
111
330
10A
100
AcDbEntity
  8
Layer 1
370
     0
100
AcDbVertex
100
AcDb2dVertex
 10
616.3469848632812
 20
1040.323974609375
 30
0.0
  0
VERTEX
  5
112
330
10A
100
AcDbEntity
  8
Layer 1
370
     0
100
AcDbVertex
100
AcDb2dVertex
 10
616.3469848632812
 20
1051.494018554688
 30
0.0
  0
VERTEX
  5
113
330
10A
100
AcDbEntity
  8
Layer 1
370
     0
100
AcDbVertex
100
AcDb2dVertex
 10
570.1669921875
 20
1051.494018554688
 30
0.0
  0
SEQEND
  5
114
330
10A
100
AcDbEntity
  8
Layer 1
370
     0
  0
POLYLINE
  5
115
330
4A
100
AcDbEntity
  8
Layer 1
370
     0
100
AcDb2dPolyline
 66
     1
 10
0.0
 20
0.0
 30
0.0
  0
VERTEX
  5
116
330
115
100
AcDbEntity
  8
Layer 1
370
     0
100
AcDbVertex
100
AcDb2dVertex
 10
587.3369750976562
 20
948.5139770507812
 30
0.0
  0
VERTEX
  5
117
330
115
100
AcDbEntity
  8
Layer 1
370
     0
100
AcDbVertex
100
AcDb2dVertex
 10
599.18798828125
 20
948.5139770507812
 30
0.0
  0
VERTEX
  5
118
330
115
100
AcDbEntity
  8
Layer 1
370
     0
100
AcDbVertex
100
AcDb2dVertex
 10
599.18798828125
 20
1016.074951171875
 30
0.0
  0
VERTEX
  5
119
330
115
100
AcDbEntity
  8
Layer 1
370
     0
100
AcDbVertex
100
AcDb2dVertex
 10
587.3369750976562
 20
1016.074951171875
 30
0.0
  0
VERTEX
  5
11A
330
115
100
AcDbEntity
  8
Layer 1
370
     0
100
AcDbVertex
100
AcDb2dVertex
 10
587.3369750976562
 20
948.5139770507812
 30
0.0
  0
SEQEND
  5
11B
330
115
100
AcDbEntity
  8
Layer 1
370
     0
  0
ENDBLK
  5
4D
330
4A
100
AcDbEntity
  8
0
100
AcDbBlockEnd
  0
ENDSEC
  0
SECTION
  2
ENTITIES
  0
POLYLINE
  5
41
330
1F
100
AcDbEntity
  8
Layer 2
370
     0
100
AcDb2dPolyline
 66
     1
 10
0.0
 20
0.0
 30
0.0
  0
VERTEX
  5
42
330
41
100
AcDbEntity
  8
Layer 2
370
     0
100
AcDbVertex
100
AcDb2dVertex
 10
0.0010000000474975
 20
0.0
 30
0.0
  0
VERTEX
  5
43
330
41
100
AcDbEntity
  8
Layer 2
370
     0
100
AcDbVertex
100
AcDb2dVertex
 10
2000.0
 20
0.0
 30
0.0
  0
VERTEX
  5
44
330
41
100
AcDbEntity
  8
Layer 2
370
     0
100
AcDbVertex
100
AcDb2dVertex
 10
2000.0
 20
2000.0
 30
0.0
  0
VERTEX
  5
45
330
41
100
AcDbEntity
  8
Layer 2
370
     0
100
AcDbVertex
100
AcDb2dVertex
 10
0.0010000000474975
 20
2000.0
 30
0.0
  0
VERTEX
  5
46
330
41
100
AcDbEntity
  8
Layer 2
370
     0
100
AcDbVertex
100
AcDb2dVertex
 10
0.0010000000474975
 20
0.0
 30
0.0
  0
SEQEND
  5
48
330
41
100
AcDbEntity
  8
Layer 2
370
     0
  0
HATCH
  5
47
330
1F
100
AcDbEntity
  8
Layer 2
 62
     7
420
 16777215
100
AcDbHatch
 10
0.0
 20
0.0
 30
0.0
210
0.0
220
0.0
230
1.0
  2
SOLID
 70
     1
 71
     0
 91
        1
 92
        1
 93
        4
 72
     1
 10
0.0010000000474975
 20
0.0
 11
2000.0
 21
0.0
 72
     1
 10
2000.0
 20
0.0
 11
2000.0
 21
2000.0
 72
     1
 10
2000.0
 20
2000.0
 11
0.0010000000474975
 21
2000.0
 72
     1
 10
0.0010000000474975
 20
2000.0
 11
0.0010000000474975
 21
0.0
 97
        0
 75
     2
 76
     1
 98
        0
  0
INSERT
  5
4B
330
1F
100
AcDbEntity
  8
Layer 1
100
AcDbBlockReference
  2
block 2
 10
0.0
 20
0.0
 30
0.0
  0
ENDSEC
  0
SECTION
  2
OBJECTS
  0
DICTIONARY
  5
C
330
0
100
AcDbDictionary
281
     1
  3
ACAD_GROUP
350
D
  3
ACAD_LAYOUT
350
1A
  3
ACAD_MATERIAL
350
3B
  3
ACAD_MLEADERSTYLE
350
11D
  3
ACAD_MLINESTYLE
350
17
  3
ACAD_PLOTSETTINGS
350
19
  3
ACAD_PLOTSTYLENAME
350
E
  3
ACAD_TABLESTYLE
350
11C
  3
ACAD_VISUALSTYLE
350
2A
  0
SUN
  5
3F
330
29
100
AcDbSun
 90
        1
290
     0
 63
     7
421
 16777215
 40
1.0
291
     1
 91
  2455826
 92
 54000000
292
     0
 70
     2
 71
   256
280
     1
  0
DICTIONARY
  5
D
102
{ACAD_REACTORS
330
C
102
}
330
C
100
AcDbDictionary
281
     1
  0
DICTIONARY
  5
1A
102
{ACAD_REACTORS
330
C
102
}
330
C
100
AcDbDictionary
281
     1
  3
Layout1
350
1E
  3
Layout2
350
26
  3
Model
350
22
  0
DICTIONARY
  5
3B
102
{ACAD_REACTORS
330
C
102
}
330
C
100
AcDbDictionary
281
     1
  3
ByBlock
350
3D
  3
ByLayer
350
3C
  3
Global
350
3E
  0
DICTIONARY
  5
11D
102
{ACAD_REACTORS
330
C
102
}
330
C
100
AcDbDictionary
281
     1
  0
DICTIONARY
  5
17
102
{ACAD_REACTORS
330
C
102
}
330
C
100
AcDbDictionary
281
     1
  3
Standard
350
18
  0
DICTIONARY
  5
19
102
{ACAD_REACTORS
330
C
102
}
330
C
100
AcDbDictionary
281
     1
  0
ACDBDICTIONARYWDFLT
  5
E
102
{ACAD_REACTORS
330
C
102
}
330
C
100
AcDbDictionary
281
     1
  3
Normal
350
F
100
AcDbDictionaryWithDefault
340
F
  0
DICTIONARY
  5
11C
102
{ACAD_REACTORS
330
C
102
}
330
C
100
AcDbDictionary
281
     1
  0
DICTIONARY
  5
2A
102
{ACAD_REACTORS
330
C
102
}
330
C
100
AcDbDictionary
281
     1
  3
2dWireframe
350
2F
  3
3D Hidden
350
31
  3
3dWireframe
350
30
  3
Basic
350
32
  3
Brighten
350
36
  3
ColorChange
350
3A
  3
Conceptual
350
34
  3
Dim
350
35
  3
Facepattern
350
39
  3
Flat
350
2B
  3
FlatWithEdges
350
2C
  3
Gouraud
350
2D
  3
GouraudWithEdges
350
2E
  3
Linepattern
350
38
  3
Realistic
350
33
  3
Thicken
350
37
  0
LAYOUT
  5
1E
102
{ACAD_REACTORS
330
1A
102
}
330
1A
100
AcDbPlotSettings
  1

  2
none_device
  4

  6

 40
0.0
 41
0.0
 42
0.0
 43
0.0
 44
0.0
 45
0.0
 46
0.0
 47
0.0
 48
0.0
 49
0.0
140
0.0
141
0.0
142
1.0
143
1.0
 70
   688
 72
     0
 73
     0
 74
     5
  7

 75
    16
 76
     0
 77
     2
 78
   300
147
1.0
148
0.0
149
0.0
100
AcDbLayout
  1
Layout1
 70
     1
 71
     1
 10
0.0
 20
0.0
 11
12.0
 21
9.0
 12
0.0
 22
0.0
 32
0.0
 14
1.000000000000000E+20
 24
1.000000000000000E+20
 34
1.000000000000000E+20
 15
-1.000000000000000E+20
 25
-1.000000000000000E+20
 35
-1.000000000000000E+20
146
0.0
 13
0.0
 23
0.0
 33
0.0
 16
1.0
 26
0.0
 36
0.0
 17
0.0
 27
1.0
 37
0.0
 76
     0
330
1B
  0
LAYOUT
  5
26
102
{ACAD_REACTORS
330
1A
102
}
330
1A
100
AcDbPlotSettings
  1

  2
none_device
  4

  6

 40
0.0
 41
0.0
 42
0.0
 43
0.0
 44
0.0
 45
0.0
 46
0.0
 47
0.0
 48
0.0
 49
0.0
140
0.0
141
0.0
142
1.0
143
1.0
 70
   688
 72
     0
 73
     0
 74
     5
  7

 75
    16
 76
     0
 77
     2
 78
   300
147
1.0
148
0.0
149
0.0
100
AcDbLayout
  1
Layout2
 70
     1
 71
     2
 10
0.0
 20
0.0
 11
0.0
 21
0.0
 12
0.0
 22
0.0
 32
0.0
 14
0.0
 24
0.0
 34
0.0
 15
0.0
 25
0.0
 35
0.0
146
0.0
 13
0.0
 23
0.0
 33
0.0
 16
1.0
 26
0.0
 36
0.0
 17
0.0
 27
1.0
 37
0.0
 76
     0
330
23
  0
LAYOUT
  5
22
102
{ACAD_REACTORS
330
1A
102
}
330
1A
100
AcDbPlotSettings
  1

  2
none_device
  4

  6

 40
0.0
 41
0.0
 42
0.0
 43
0.0
 44
0.0
 45
0.0
 46
0.0
 47
0.0
 48
0.0
 49
0.0
140
0.0
141
0.0
142
1.0
143
1.0
 70
  1712
 72
     0
 73
     0
 74
     0
  7

 75
     0
 76
     0
 77
     2
 78
   300
147
1.0
148
0.0
149
0.0
100
AcDbLayout
  1
Model
 70
     1
 71
     0
 10
0.0
 20
0.0
 11
12.0
 21
9.0
 12
0.0
 22
0.0
 32
0.0
 14
1.000000000000000E+20
 24
1.000000000000000E+20
 34
1.000000000000000E+20
 15
-1.000000000000000E+20
 25
-1.000000000000000E+20
 35
-1.000000000000000E+20
146
0.0
 13
0.0
 23
0.0
 33
0.0
 16
1.0
 26
0.0
 36
0.0
 17
0.0
 27
1.0
 37
0.0
 76
     0
330
1F
331
29
  0
MATERIAL
  5
3D
102
{ACAD_REACTORS
330
3B
102
}
330
3B
100
AcDbMaterial
  1
ByBlock
 72
     1
 94
      127
  0
MATERIAL
  5
3C
102
{ACAD_REACTORS
330
3B
102
}
330
3B
100
AcDbMaterial
  1
ByLayer
 72
     1
 94
      127
  0
MATERIAL
  5
3E
102
{ACAD_REACTORS
330
3B
102
}
330
3B
100
AcDbMaterial
  1
Global
 72
     1
 94
      127
  0
MLINESTYLE
  5
18
102
{ACAD_REACTORS
330
17
102
}
330
17
100
AcDbMlineStyle
  2
Standard
 70
     0
  3

 62
   256
 51
90.0
 52
90.0
 71
     2
 49
0.5
 62
   256
  6
BYLAYER
 49
-0.5
 62
   256
  6
BYLAYER
  0
ACDBPLACEHOLDER
  5
F
102
{ACAD_REACTORS
330
E
102
}
330
E
  0
VISUALSTYLE
  5
2F
102
{ACAD_REACTORS
330
2A
102
}
330
2A
100
AcDbVisualStyle
  2
2dWireframe
 70
     4
177
     2
291
     0
 71
     0
176
     1
 72
     2
176
     1
 73
     0
176
     1
 90
        0
176
     1
 40
-0.6
176
     1
 41
-30.0
176
     1
 62
     5
 63
     7
421
 16777215
176
     1
 74
     1
176
     1
 91
        4
176
     1
 64
     7
176
     1
 65
   257
176
     1
 75
     1
176
     1
175
     1
176
     1
 42
1.0
176
     1
 92
        0
176
     1
 66
   257
176
     1
 43
1.0
176
     1
 76
     1
176
     1
 77
     6
176
     1
 78
     2
176
     1
 67
     7
176
     1
 79
     5
176
     1
170
     0
176
     1
171
     0
176
     1
290
     0
176
     1
 93
        1
176
     1
 44
0.0
176
     1
173
     0
176
     1
  0
VISUALSTYLE
  5
31
102
{ACAD_REACTORS
330
2A
102
}
330
2A
100
AcDbVisualStyle
  2
3D Hidden
 70
     6
177
     2
291
     0
 71
     1
176
     1
 72
     2
176
     1
 73
     2
176
     1
 90
        0
176
     1
 40
-0.6
176
     1
 41
-30.0
176
     1
 62
     5
 63
     7
421
 16777215
176
     1
 74
     2
176
     1
 91
        2
176
     1
 64
     7
176
     1
 65
   257
176
     1
 75
     2
176
     1
175
     1
176
     1
 42
40.0
176
     1
 92
        0
176
     1
 66
   257
176
     1
 43
1.0
176
     1
 76
     1
176
     1
 77
     6
176
     1
 78
     2
176
     1
 67
     7
176
     1
 79
     3
176
     1
170
     0
176
     1
171
     0
176
     1
290
     0
176
     1
 93
        1
176
     1
 44
0.0
176
     1
173
     0
176
     1
  0
VISUALSTYLE
  5
30
102
{ACAD_REACTORS
330
2A
102
}
330
2A
100
AcDbVisualStyle
  2
3dWireframe
 70
     5
177
     2
291
     0
 71
     0
176
     1
 72
     2
176
     1
 73
     0
176
     1
 90
        0
176
     1
 40
-0.6
176
     1
 41
-30.0
176
     1
 62
     5
 63
     7
421
 16777215
176
     1
 74
     1
176
     1
 91
        4
176
     1
 64
     7
176
     1
 65
   257
176
     1
 75
     1
176
     1
175
     1
176
     1
 42
1.0
176
     1
 92
        0
176
     1
 66
   257
176
     1
 43
1.0
176
     1
 76
     1
176
     1
 77
     6
176
     1
 78
     2
176
     1
 67
     7
176
     1
 79
     5
176
     1
170
     0
176
     1
171
     0
176
     1
290
     0
176
     1
 93
        1
176
     1
 44
0.0
176
     1
173
     0
176
     1
  0
VISUALSTYLE
  5
32
102
{ACAD_REACTORS
330
2A
102
}
330
2A
100
AcDbVisualStyle
  2
Basic
 70
     7
177
     2
291
     1
 71
     1
176
     1
 72
     0
176
     1
 73
     1
176
     1
 90
        0
176
     1
 40
-0.6
176
     1
 41
-30.0
176
     1
 62
     5
 63
     7
421
 16777215
176
     1
 74
     0
176
     1
 91
        4
176
     1
 64
     7
176
     1
 65
   257
176
     1
 75
     1
176
     1
175
     1
176
     1
 42
1.0
176
     1
 92
        8
176
     1
 66
     7
176
     1
 43
1.0
176
     1
 76
     1
176
     1
 77
     6
176
     1
 78
     2
176
     1
 67
     7
176
     1
 79
     5
176
     1
170
     0
176
     1
171
     0
176
     1
290
     0
176
     1
 93
        1
176
     1
 44
0.0
176
     1
173
     0
176
     1
  0
VISUALSTYLE
  5
36
102
{ACAD_REACTORS
330
2A
102
}
330
2A
100
AcDbVisualStyle
  2
Brighten
 70
    12
177
     2
291
     1
 71
     2
176
     1
 72
     2
176
     1
 73
     0
176
     1
 90
        0
176
     1
 40
-0.6
176
     1
 41
-30.0
176
     1
 62
     5
 63
     7
421
 16777215
176
     1
 74
     1
176
     1
 91
        4
176
     1
 64
     7
176
     1
 65
   257
176
     1
 75
     1
176
     1
175
     1
176
     1
 42
1.0
176
     1
 92
        8
176
     1
 66
     7
176
     1
 43
1.0
176
     1
 76
     1
176
     1
 77
     6
176
     1
 78
     2
176
     1
 67
     7
176
     1
 79
     5
176
     1
170
     0
176
     1
171
     0
176
     1
290
     0
176
     1
 93
        1
176
     1
 44
50.0
176
     1
173
     0
176
     1
  0
VISUALSTYLE
  5
3A
102
{ACAD_REACTORS
330
2A
102
}
330
2A
100
AcDbVisualStyle
  2
ColorChange
 70
    16
177
     2
291
     1
 71
     2
176
     1
 72
     2
176
     1
 73
     3
176
     1
 90
        0
176
     1
 40
-0.6
176
     1
 41
-30.0
176
     1
 62
     5
 63
     8
421
  8421504
176
     1
 74
     1
176
     1
 91
        4
176
     1
 64
     7
176
     1
 65
   257
176
     1
 75
     1
176
     1
175
     1
176
     1
 42
1.0
176
     1
 92
        8
176
     1
 66
     8
424
  8421504
176
     1
 43
1.0
176
     1
 76
     1
176
     1
 77
     6
176
     1
 78
     2
176
     1
 67
     7
176
     1
 79
     5
176
     1
170
     0
176
     1
171
     0
176
     1
290
     0
176
     1
 93
        1
176
     1
 44
0.0
176
     1
173
     0
176
     1
  0
VISUALSTYLE
  5
34
102
{ACAD_REACTORS
330
2A
102
}
330
2A
100
AcDbVisualStyle
  2
Conceptual
 70
     9
177
     2
291
     0
 71
     3
176
     1
 72
     2
176
     1
 73
     0
176
     1
 90
        0
176
     1
 40
-0.6
176
     1
 41
-30.0
176
     1
 62
     5
 63
     7
421
 16777215
176
     1
 74
     2
176
     1
 91
        2
176
     1
 64
     7
176
     1
 65
   257
176
     1
 75
     1
176
     1
175
     1
176
     1
 42
40.0
176
     1
 92
        8
176
     1
 66
     7
176
     1
 43
1.0
176
     1
 76
     1
176
     1
 77
     6
176
     1
 78
     2
176
     1
 67
     7
176
     1
 79
     3
176
     1
170
     0
176
     1
171
     0
176
     1
290
     0
176
     1
 93
        1
176
     1
 44
0.0
176
     1
173
     0
176
     1
  0
VISUALSTYLE
  5
35
102
{ACAD_REACTORS
330
2A
102
}
330
2A
100
AcDbVisualStyle
  2
Dim
 70
    11
177
     2
291
     1
 71
     2
176
     1
 72
     2
176
     1
 73
     0
176
     1
 90
        0
176
     1
 40
-0.6
176
     1
 41
-30.0
176
     1
 62
     5
 63
     7
421
 16777215
176
     1
 74
     1
176
     1
 91
        4
176
     1
 64
     7
176
     1
 65
   257
176
     1
 75
     1
176
     1
175
     1
176
     1
 42
1.0
176
     1
 92
        8
176
     1
 66
     7
176
     1
 43
1.0
176
     1
 76
     1
176
     1
 77
     6
176
     1
 78
     2
176
     1
 67
     7
176
     1
 79
     5
176
     1
170
     0
176
     1
171
     0
176
     1
290
     0
176
     1
 93
        1
176
     1
 44
-50.0
176
     1
173
     0
176
     1
  0
VISUALSTYLE
  5
39
102
{ACAD_REACTORS
330
2A
102
}
330
2A
100
AcDbVisualStyle
  2
Facepattern
 70
    15
177
     2
291
     1
 71
     2
176
     1
 72
     2
176
     1
 73
     0
176
     1
 90
        0
176
     1
 40
-0.6
176
     1
 41
-30.0
176
     1
 62
     5
 63
     7
421
 16777215
176
     1
 74
     1
176
     1
 91
        4
176
     1
 64
     7
176
     1
 65
   257
176
     1
 75
     1
176
     1
175
     1
176
     1
 42
1.0
176
     1
 92
        8
176
     1
 66
     7
176
     1
 43
1.0
176
     1
 76
     1
176
     1
 77
     6
176
     1
 78
     2
176
     1
 67
     7
176
     1
 79
     5
176
     1
170
     0
176
     1
171
     0
176
     1
290
     0
176
     1
 93
        1
176
     1
 44
0.0
176
     1
173
     0
176
     1
  0
VISUALSTYLE
  5
2B
102
{ACAD_REACTORS
330
2A
102
}
330
2A
100
AcDbVisualStyle
  2
Flat
 70
     0
177
     2
291
     1
 71
     2
176
     1
 72
     1
176
     1
 73
     1
176
     1
 90
        2
176
     1
 40
-0.6
176
     1
 41
30.0
176
     1
 62
     5
 63
     7
421
 16777215
176
     1
 74
     0
176
     1
 91
        4
176
     1
 64
     7
176
     1
 65
   257
176
     1
 75
     1
176
     1
175
     1
176
     1
 42
1.0
176
     1
 92
        8
176
     1
 66
     7
176
     1
 43
1.0
176
     1
 76
     1
176
     1
 77
     6
176
     1
 78
     2
176
     1
 67
     7
176
     1
 79
     5
176
     1
170
     0
176
     1
171
     0
176
     1
290
     0
176
     1
 93
       13
176
     1
 44
0.0
176
     1
173
     0
176
     1
  0
VISUALSTYLE
  5
2C
102
{ACAD_REACTORS
330
2A
102
}
330
2A
100
AcDbVisualStyle
  2
FlatWithEdges
 70
     1
177
     2
291
     1
 71
     2
176
     1
 72
     1
176
     1
 73
     1
176
     1
 90
        2
176
     1
 40
-0.6
176
     1
 41
30.0
176
     1
 62
     5
 63
     7
421
 16777215
176
     1
 74
     1
176
     1
 91
        4
176
     1
 64
     7
176
     1
 65
   257
176
     1
 75
     1
176
     1
175
     1
176
     1
 42
1.0
176
     1
 92
        0
176
     1
 66
   257
176
     1
 43
1.0
176
     1
 76
     1
176
     1
 77
     6
176
     1
 78
     2
176
     1
 67
     7
176
     1
 79
     5
176
     1
170
     0
176
     1
171
     0
176
     1
290
     0
176
     1
 93
       13
176
     1
 44
0.0
176
     1
173
     0
176
     1
  0
VISUALSTYLE
  5
2D
102
{ACAD_REACTORS
330
2A
102
}
330
2A
100
AcDbVisualStyle
  2
Gouraud
 70
     2
177
     2
291
     1
 71
     2
176
     1
 72
     2
176
     1
 73
     1
176
     1
 90
        2
176
     1
 40
-0.6
176
     1
 41
30.0
176
     1
 62
     5
 63
     7
421
 16777215
176
     1
 74
     0
176
     1
 91
        4
176
     1
 64
     7
176
     1
 65
   257
176
     1
 75
     1
176
     1
175
     1
176
     1
 42
1.0
176
     1
 92
        0
176
     1
 66
     7
176
     1
 43
1.0
176
     1
 76
     1
176
     1
 77
     6
176
     1
 78
     2
176
     1
 67
     7
176
     1
 79
     5
176
     1
170
     0
176
     1
171
     0
176
     1
290
     0
176
     1
 93
       13
176
     1
 44
0.0
176
     1
173
     0
176
     1
  0
VISUALSTYLE
  5
2E
102
{ACAD_REACTORS
330
2A
102
}
330
2A
100
AcDbVisualStyle
  2
GouraudWithEdges
 70
     3
177
     2
291
     1
 71
     2
176
     1
 72
     2
176
     1
 73
     1
176
     1
 90
        2
176
     1
 40
-0.6
176
     1
 41
30.0
176
     1
 62
     5
 63
     7
421
 16777215
176
     1
 74
     1
176
     1
 91
        4
176
     1
 64
     7
176
     1
 65
   257
176
     1
 75
     1
176
     1
175
     1
176
     1
 42
1.0
176
     1
 92
        0
176
     1
 66
   257
176
     1
 43
1.0
176
     1
 76
     1
176
     1
 77
     6
176
     1
 78
     2
176
     1
 67
     7
176
     1
 79
     5
176
     1
170
     0
176
     1
171
     0
176
     1
290
     0
176
     1
 93
       13
176
     1
 44
0.0
176
     1
173
     0
176
     1
  0
VISUALSTYLE
  5
38
102
{ACAD_REACTORS
330
2A
102
}
330
2A
100
AcDbVisualStyle
  2
Linepattern
 70
    14
177
     2
291
     1
 71
     2
176
     1
 72
     2
176
     1
 73
     0
176
     1
 90
        0
176
     1
 40
-0.6
176
     1
 41
-30.0
176
     1
 62
     5
 63
     7
421
 16777215
176
     1
 74
     1
176
     1
 91
        4
176
     1
 64
     7
176
     1
 65
   257
176
     1
 75
     7
176
     1
175
     7
176
     1
 42
1.0
176
     1
 92
        8
176
     1
 66
     7
176
     1
 43
1.0
176
     1
 76
     1
176
     1
 77
     6
176
     1
 78
     2
176
     1
 67
     7
176
     1
 79
     5
176
     1
170
     0
176
     1
171
     0
176
     1
290
     0
176
     1
 93
        1
176
     1
 44
0.0
176
     1
173
     0
176
     1
  0
VISUALSTYLE
  5
33
102
{ACAD_REACTORS
330
2A
102
}
330
2A
100
AcDbVisualStyle
  2
Realistic
 70
     8
177
     2
291
     0
 71
     2
176
     1
 72
     2
176
     1
 73
     0
176
     1
 90
        0
176
     1
 40
-0.6
176
     1
 41
-30.0
176
     1
 62
     5
 63
     7
421
 16777215
176
     1
 74
     1
176
     1
 91
        0
176
     1
 64
     7
176
     1
 65
   257
176
     1
 75
     1
176
     1
175
     1
176
     1
 42
1.0
176
     1
 92
        8
176
     1
 66
     8
424
  7895160
176
     1
 43
1.0
176
     1
 76
     1
176
     1
 77
     6
176
     1
 78
     2
176
     1
 67
     7
176
     1
 79
     5
176
     1
170
     0
176
     1
171
     0
176
     1
290
     0
176
     1
 93
       13
176
     1
 44
0.0
176
     1
173
     0
176
     1
  0
VISUALSTYLE
  5
37
102
{ACAD_REACTORS
330
2A
102
}
330
2A
100
AcDbVisualStyle
  2
Thicken
 70
    13
177
     2
291
     1
 71
     2
176
     1
 72
     2
176
     1
 73
     0
176
     1
 90
        0
176
     1
 40
-0.6
176
     1
 41
-30.0
176
     1
 62
     5
 63
     7
421
 16777215
176
     1
 74
     1
176
     1
 91
        4
176
     1
 64
     7
176
     1
 65
   257
176
     1
 75
     1
176
     1
175
     1
176
     1
 42
1.0
176
     1
 92
       12
176
     1
 66
     7
176
     1
 43
1.0
176
     1
 76
     1
176
     1
 77
     6
176
     1
 78
     2
176
     1
 67
     7
176
     1
 79
     5
176
     1
170
     0
176
     1
171
     0
176
     1
290
     0
176
     1
 93
        1
176
     1
 44
0.0
176
     1
173
     0
176
     1
  0
ENDSEC
  0
EOF
