G04 DesignSpark PCB Gerber Version 10.0 Build 5299*
G04 #@! TF.Part,Single*
G04 #@! TF.FileFunction,Copper,L2,Bot*
G04 #@! TF.FilePolarity,Positive*
%FSLAX35Y35*%
%MOIN*%
G04 #@! TA.AperFunction,WasherPad*
%ADD71R,0.06142X0.06142*%
G04 #@! TD.AperFunction*
%ADD16C,0.01500*%
G04 #@! TA.AperFunction,ViaPad*
%ADD17C,0.04800*%
G04 #@! TA.AperFunction,WasherPad*
%ADD70C,0.06142*%
G04 #@! TD.AperFunction*
X0Y0D02*
D02*
D16*
X78990Y32423D02*
Y73085D01*
X96707Y90801D01*
X152573D01*
X166549Y104778D01*
X92770Y78990D02*
Y31746D01*
X165565Y3793D02*
X166549Y4778D01*
X275841Y71793D02*
Y23872D01*
X275644D01*
X256549Y4778D01*
X283715Y63919D02*
Y21943D01*
X266549Y4778D01*
D02*
D17*
X78990Y32423D03*
X92770Y31746D03*
Y78990D03*
X275841Y71793D03*
X283715Y63919D03*
D02*
D70*
X166549Y104778D03*
X176549Y4778D03*
Y104778D03*
X186549Y4778D03*
Y104778D03*
X196549Y4778D03*
Y104778D03*
X206549Y4778D03*
Y104778D03*
X216549Y4778D03*
Y104778D03*
X226549Y4778D03*
Y104778D03*
X236549Y4778D03*
Y104778D03*
X246549Y4778D03*
Y104778D03*
X256549Y4778D03*
Y104778D03*
X266549Y4778D03*
Y104778D03*
X276549Y4778D03*
Y104778D03*
X286549Y4778D03*
Y104778D03*
X296549Y4778D03*
Y104778D03*
X306549Y4778D03*
Y104778D03*
X316549Y4778D03*
Y104778D03*
X326549Y4778D03*
Y104778D03*
X336549Y4778D03*
Y104778D03*
X346549Y4778D03*
Y104778D03*
D02*
D71*
X166549Y4778D03*
X0Y0D02*
M02*
