G04 DesignSpark PCB Gerber Version 10.0 Build 5299*
G04 #@! TF.Part,Single*
G04 #@! TF.FileFunction,Soldermask,Top*
G04 #@! TF.FilePolarity,Negative*
%FSLAX35Y35*%
%MOIN*%
G04 #@! TA.AperFunction,WasherPad*
%ADD24R,0.06772X0.06772*%
%ADD22R,0.14430X0.04530*%
G04 #@! TA.AperFunction,ViaPad*
%ADD20C,0.05430*%
G04 #@! TA.AperFunction,WasherPad*
%ADD21R,0.14430X0.06930*%
%ADD23C,0.06772*%
G04 #@! TD.AperFunction*
X0Y0D02*
D02*
D20*
X78990Y32423D03*
X92770Y31746D03*
Y78990D03*
X275841Y71793D03*
X283715Y63919D03*
D02*
D21*
X59970Y15297D03*
Y88919D03*
D02*
D22*
X37332Y24549D03*
Y32423D03*
Y40297D03*
Y48171D03*
Y56045D03*
Y63919D03*
Y71793D03*
Y78289D03*
D02*
D23*
X166549Y104778D03*
X176549Y4778D03*
Y104778D03*
X186549Y4778D03*
Y104778D03*
X196549Y4778D03*
Y104778D03*
X206549Y4778D03*
Y104778D03*
X216549Y4778D03*
Y104778D03*
X226549Y4778D03*
Y104778D03*
X236549Y4778D03*
Y104778D03*
X246549Y4778D03*
Y104778D03*
X256549Y4778D03*
Y104778D03*
X266549Y4778D03*
Y104778D03*
X276549Y4778D03*
Y104778D03*
X286549Y4778D03*
Y104778D03*
X296549Y4778D03*
Y104778D03*
X306549Y4778D03*
Y104778D03*
X316549Y4778D03*
Y104778D03*
X326549Y4778D03*
Y104778D03*
X336549Y4778D03*
Y104778D03*
X346549Y4778D03*
Y104778D03*
D02*
D24*
X166549Y4778D03*
X0Y0D02*
M02*
