G04 DesignSpark PCB Gerber Version 10.0 Build 5299*
G04 #@! TF.Part,Single*
G04 #@! TF.FileFunction,Legend,Bot*
G04 #@! TF.FilePolarity,Positive*
%FSLAX35Y35*%
%MOIN*%
%ADD13C,0.00100*%
%ADD25C,0.00500*%
G04 #@! TD.AperFunction*
X0Y0D02*
D02*
D13*
X12520Y39218D02*
X11052D01*
X11270Y39495D01*
X11320Y39560D01*
X11363Y39626D01*
X11401Y39691D01*
X11432Y39756D01*
X11455Y39826D01*
X11470Y39895D01*
X11482Y39964D01*
X11486Y40033D01*
Y40602D01*
X11482Y40683D01*
X11470Y40756D01*
X11455Y40829D01*
X11432Y40902D01*
X11401Y40971D01*
X11363Y41037D01*
X11320Y41102D01*
X11270Y41164D01*
X11013Y41463D01*
X10955Y41521D01*
X10882Y41575D01*
X10802Y41621D01*
X10706Y41663D01*
X10606Y41698D01*
X10506Y41725D01*
X10409Y41740D01*
X10313Y41744D01*
X9048D01*
X8964Y41740D01*
X8875Y41725D01*
X8783Y41702D01*
X8691Y41671D01*
X8602Y41633D01*
X8526Y41591D01*
X8460Y41544D01*
X8410Y41498D01*
X8156Y41229D01*
X8106Y41171D01*
X8060Y41102D01*
X8014Y41021D01*
X7976Y40929D01*
X7941Y40837D01*
X7914Y40752D01*
X7899Y40675D01*
X7895Y40602D01*
Y40068D01*
X7902Y39972D01*
X7922Y39868D01*
X7956Y39768D01*
X8002Y39660D01*
X8064Y39553D01*
X8141Y39445D01*
X8226Y39333D01*
X8329Y39218D01*
X8206D01*
X8145Y39214D01*
X8087Y39195D01*
X8033Y39168D01*
X7987Y39126D01*
X7945Y39080D01*
X7918Y39026D01*
X7899Y38968D01*
X7895Y38907D01*
X7899Y38845D01*
X7918Y38787D01*
X7945Y38734D01*
X7987Y38688D01*
X8033Y38645D01*
X8087Y38619D01*
X8145Y38603D01*
X8206Y38595D01*
X12520D01*
X12581Y38603D01*
X12639Y38619D01*
X12693Y38649D01*
X12739Y38688D01*
X12781Y38738D01*
X12808Y38787D01*
X12824Y38845D01*
X12831Y38907D01*
X12824Y38968D01*
X12808Y39026D01*
X12781Y39080D01*
X12739Y39126D01*
X12693Y39168D01*
X12639Y39195D01*
X12581Y39214D01*
X12520Y39218D01*
X10855Y40556D02*
Y40126D01*
X10852Y40052D01*
X10836Y39987D01*
X10817Y39933D01*
X10786Y39887D01*
X10306Y39326D01*
X10252Y39280D01*
X10186Y39245D01*
X10106Y39226D01*
X10017Y39218D01*
X9310D01*
X9237Y39226D01*
X9167Y39249D01*
X9106Y39287D01*
X9052Y39341D01*
X8625Y39841D01*
X8583Y39899D01*
X8548Y39952D01*
X8533Y40010D01*
X8526Y40068D01*
Y40579D01*
X8529Y40629D01*
X8541Y40679D01*
X8564Y40725D01*
X8591Y40764D01*
X8814Y41014D01*
X8856Y41056D01*
X8906Y41091D01*
X8964Y41106D01*
X9025Y41114D01*
X10344D01*
X10417Y41106D01*
X10478Y41091D01*
X10536Y41056D01*
X10578Y41014D01*
X10771Y40787D01*
X10806Y40733D01*
X10832Y40675D01*
X10852Y40618D01*
X10855Y40556D01*
X8206Y43098D02*
X11167D01*
X11228Y43105D01*
X11286Y43120D01*
X11340Y43148D01*
X11386Y43190D01*
X11428Y43236D01*
X11455Y43290D01*
X11470Y43348D01*
X11478Y43409D01*
X11474Y43467D01*
X11463Y43517D01*
X11444Y43563D01*
X11417Y43605D01*
X11386Y43640D01*
X11344Y43670D01*
X11298Y43693D01*
X11240Y43713D01*
X11298Y43778D01*
X11347Y43847D01*
X11390Y43917D01*
X11424Y43986D01*
X11451Y44063D01*
X11470Y44135D01*
X11482Y44213D01*
X11486Y44293D01*
X11482Y44381D01*
X11467Y44470D01*
X11440Y44555D01*
X11405Y44631D01*
X11359Y44709D01*
X11305Y44778D01*
X11240Y44847D01*
X11167Y44908D01*
X11240Y44981D01*
X11305Y45058D01*
X11359Y45139D01*
X11405Y45220D01*
X11440Y45300D01*
X11467Y45385D01*
X11482Y45474D01*
X11486Y45562D01*
X11482Y45631D01*
X11474Y45700D01*
X11455Y45770D01*
X11436Y45831D01*
X11405Y45893D01*
X11370Y45954D01*
X11328Y46008D01*
X11278Y46066D01*
X11224Y46116D01*
X11170Y46158D01*
X11109Y46196D01*
X11044Y46227D01*
X10978Y46254D01*
X10905Y46273D01*
X10832Y46285D01*
X10756Y46293D01*
X8206Y46381D01*
X8145Y46377D01*
X8087Y46358D01*
X8037Y46327D01*
X7987Y46289D01*
X7945Y46239D01*
X7918Y46189D01*
X7899Y46131D01*
X7895Y46070D01*
X7899Y46008D01*
X7918Y45950D01*
X7949Y45896D01*
X7987Y45846D01*
X8037Y45804D01*
X8087Y45777D01*
X8145Y45758D01*
X8206Y45750D01*
X10656Y45677D01*
X10702Y45674D01*
X10744Y45666D01*
X10778Y45658D01*
X10806Y45643D01*
X10828Y45628D01*
X10844Y45604D01*
X10852Y45581D01*
X10855Y45554D01*
X10852Y45524D01*
X10840Y45489D01*
X10824Y45458D01*
X10798Y45424D01*
X10486Y45051D01*
X8206D01*
X8145Y45047D01*
X8091Y45028D01*
X8037Y45001D01*
X7991Y44958D01*
X7952Y44912D01*
X7926Y44858D01*
X7906Y44801D01*
X7902Y44739D01*
X7906Y44678D01*
X7926Y44620D01*
X7952Y44570D01*
X7995Y44520D01*
X8041Y44481D01*
X8095Y44451D01*
X8152Y44435D01*
X8214Y44428D01*
X10694D01*
X10732Y44424D01*
X10767Y44420D01*
X10794Y44409D01*
X10817Y44393D01*
X10832Y44374D01*
X10844Y44351D01*
X10852Y44324D01*
X10855Y44289D01*
X10852Y44259D01*
X10844Y44228D01*
X10828Y44197D01*
X10806Y44170D01*
X10429Y43720D01*
X8206D01*
X8145Y43717D01*
X8087Y43697D01*
X8037Y43670D01*
X7987Y43632D01*
X7945Y43586D01*
X7918Y43532D01*
X7899Y43478D01*
X7895Y43417D01*
X7899Y43355D01*
X7918Y43294D01*
X7945Y43240D01*
X7987Y43194D01*
X8037Y43151D01*
X8087Y43120D01*
X8145Y43105D01*
X8206Y43098D01*
X11044Y50280D02*
X12520D01*
X12581Y50283D01*
X12639Y50303D01*
X12693Y50330D01*
X12739Y50368D01*
X12781Y50414D01*
X12808Y50468D01*
X12824Y50522D01*
X12831Y50583D01*
X12824Y50645D01*
X12808Y50706D01*
X12781Y50760D01*
X12739Y50806D01*
X12693Y50848D01*
X12639Y50879D01*
X12581Y50894D01*
X12520Y50902D01*
X8206D01*
X8145Y50898D01*
X8087Y50879D01*
X8033Y50848D01*
X7987Y50810D01*
X7945Y50760D01*
X7918Y50710D01*
X7899Y50652D01*
X7895Y50591D01*
X7899Y50526D01*
X7918Y50468D01*
X7945Y50414D01*
X7987Y50368D01*
X8033Y50330D01*
X8087Y50303D01*
X8145Y50283D01*
X8206Y50280D01*
X8345D01*
X8241Y50168D01*
X8148Y50057D01*
X8072Y49945D01*
X8006Y49837D01*
X7956Y49733D01*
X7922Y49626D01*
X7902Y49526D01*
X7895Y49426D01*
Y48895D01*
X7899Y48815D01*
X7910Y48734D01*
X7933Y48653D01*
X7964Y48576D01*
X8002Y48496D01*
X8049Y48415D01*
X8106Y48334D01*
X8168Y48253D01*
X8387Y47996D01*
X8437Y47950D01*
X8502Y47907D01*
X8579Y47865D01*
X8675Y47826D01*
X8772Y47792D01*
X8868Y47765D01*
X8960Y47750D01*
X9048Y47746D01*
X10321D01*
X10425Y47750D01*
X10528Y47769D01*
X10628Y47796D01*
X10728Y47834D01*
X10824Y47880D01*
X10905Y47930D01*
X10970Y47984D01*
X11028Y48042D01*
X11248Y48300D01*
X11305Y48369D01*
X11351Y48442D01*
X11394Y48519D01*
X11424Y48599D01*
X11451Y48680D01*
X11470Y48765D01*
X11482Y48853D01*
X11486Y48945D01*
Y49395D01*
X11482Y49487D01*
X11470Y49576D01*
X11447Y49661D01*
X11420Y49745D01*
X11382Y49830D01*
X11340Y49910D01*
X11286Y49987D01*
X11224Y50064D01*
X11044Y50280D01*
X10855Y49372D02*
Y48938D01*
X10848Y48872D01*
X10828Y48807D01*
X10798Y48745D01*
X10756Y48688D01*
X10578Y48488D01*
X10528Y48442D01*
X10475Y48411D01*
X10413Y48392D01*
X10344Y48384D01*
X9018D01*
X8956Y48392D01*
X8894Y48415D01*
X8841Y48453D01*
X8787Y48507D01*
X8610Y48711D01*
X8572Y48761D01*
X8544Y48811D01*
X8529Y48861D01*
X8526Y48915D01*
Y49426D01*
X8533Y49476D01*
X8552Y49533D01*
X8591Y49595D01*
X8641Y49664D01*
X9052Y50156D01*
X9079Y50187D01*
X9110Y50210D01*
X9141Y50233D01*
X9171Y50249D01*
X9241Y50272D01*
X9317Y50280D01*
X9990D01*
X10044D01*
X10098Y50272D01*
X10144Y50260D01*
X10186Y50249D01*
X10229Y50230D01*
X10263Y50206D01*
X10298Y50180D01*
X10325Y50149D01*
X10763Y49641D01*
X10802Y49587D01*
X10832Y49522D01*
X10848Y49453D01*
X10855Y49372D01*
X7902Y59787D02*
Y56950D01*
X10059D01*
X10121Y56954D01*
X10183Y56962D01*
X10244Y56977D01*
X10298Y56996D01*
X10356Y57023D01*
X10406Y57054D01*
X10456Y57093D01*
X10506Y57135D01*
X10548Y57181D01*
X10586Y57231D01*
X10617Y57281D01*
X10644Y57335D01*
X10663Y57392D01*
X10678Y57450D01*
X10686Y57511D01*
X10690Y57573D01*
Y59469D01*
X12209D01*
Y57239D01*
X12213Y57177D01*
X12232Y57115D01*
X12259Y57065D01*
X12301Y57015D01*
X12347Y56977D01*
X12401Y56950D01*
X12459Y56931D01*
X12520Y56927D01*
X12581Y56931D01*
X12639Y56950D01*
X12693Y56977D01*
X12739Y57015D01*
X12781Y57065D01*
X12808Y57115D01*
X12824Y57177D01*
X12831Y57239D01*
Y59469D01*
X12828Y59530D01*
X12820Y59591D01*
X12805Y59653D01*
X12785Y59711D01*
X12758Y59765D01*
X12728Y59815D01*
X12689Y59865D01*
X12647Y59915D01*
X12601Y59957D01*
X12551Y59995D01*
X12501Y60026D01*
X12447Y60053D01*
X12389Y60072D01*
X12331Y60087D01*
X12270Y60095D01*
X12209Y60099D01*
X10690D01*
X10625Y60095D01*
X10563Y60087D01*
X10502Y60072D01*
X10448Y60053D01*
X10390Y60026D01*
X10340Y59995D01*
X10290Y59957D01*
X10244Y59915D01*
X10198Y59865D01*
X10163Y59815D01*
X10133Y59765D01*
X10106Y59711D01*
X10086Y59653D01*
X10071Y59591D01*
X10063Y59530D01*
X10059Y59469D01*
Y57573D01*
X8526D01*
Y59787D01*
X8518Y59849D01*
X8502Y59907D01*
X8476Y59957D01*
X8433Y60007D01*
X8387Y60045D01*
X8333Y60076D01*
X8276Y60095D01*
X8214Y60099D01*
X8152Y60095D01*
X8095Y60076D01*
X8041Y60045D01*
X7995Y60007D01*
X7952Y59957D01*
X7926Y59907D01*
X7906Y59849D01*
X7902Y59787D01*
X8502Y61537D02*
X12235D01*
X12297Y61541D01*
X12355Y61548D01*
X12413Y61564D01*
X12466Y61583D01*
X12516Y61606D01*
X12566Y61637D01*
X12616Y61675D01*
X12662Y61714D01*
X12701Y61760D01*
X12739Y61810D01*
X12770Y61860D01*
X12793Y61910D01*
X12812Y61964D01*
X12828Y62021D01*
X12835Y62079D01*
X12839Y62137D01*
Y64082D01*
X12835Y64144D01*
X12828Y64201D01*
X12812Y64255D01*
X12793Y64309D01*
X12770Y64359D01*
X12739Y64409D01*
X12701Y64455D01*
X12662Y64501D01*
X12616Y64543D01*
X12566Y64578D01*
X12516Y64609D01*
X12466Y64636D01*
X12413Y64655D01*
X12355Y64667D01*
X12297Y64674D01*
X12235Y64678D01*
X8502D01*
X8444Y64674D01*
X8383Y64667D01*
X8326Y64655D01*
X8272Y64636D01*
X8222Y64609D01*
X8172Y64578D01*
X8126Y64543D01*
X8080Y64501D01*
X8037Y64455D01*
X8002Y64409D01*
X7972Y64359D01*
X7945Y64309D01*
X7926Y64251D01*
X7914Y64197D01*
X7906Y64136D01*
X7902Y64078D01*
Y62137D01*
X7906Y62075D01*
X7914Y62017D01*
X7926Y61960D01*
X7945Y61906D01*
X7972Y61852D01*
X8002Y61802D01*
X8037Y61756D01*
X8080Y61710D01*
X8126Y61671D01*
X8172Y61637D01*
X8222Y61606D01*
X8272Y61579D01*
X8326Y61560D01*
X8383Y61548D01*
X8444Y61541D01*
X8502Y61537D01*
X8526Y64063D02*
X12209D01*
Y62160D01*
X8526D01*
Y64063D01*
X7902Y68976D02*
Y66139D01*
X10059D01*
X10121Y66143D01*
X10183Y66150D01*
X10244Y66166D01*
X10298Y66185D01*
X10356Y66212D01*
X10406Y66243D01*
X10456Y66281D01*
X10506Y66324D01*
X10548Y66370D01*
X10586Y66420D01*
X10617Y66470D01*
X10644Y66524D01*
X10663Y66581D01*
X10678Y66639D01*
X10686Y66700D01*
X10690Y66762D01*
Y68657D01*
X12209D01*
Y66428D01*
X12213Y66366D01*
X12232Y66304D01*
X12259Y66254D01*
X12301Y66204D01*
X12347Y66166D01*
X12401Y66139D01*
X12459Y66120D01*
X12520Y66116D01*
X12581Y66120D01*
X12639Y66139D01*
X12693Y66166D01*
X12739Y66204D01*
X12781Y66254D01*
X12808Y66304D01*
X12824Y66366D01*
X12831Y66428D01*
Y68657D01*
X12828Y68719D01*
X12820Y68780D01*
X12805Y68842D01*
X12785Y68900D01*
X12758Y68954D01*
X12728Y69004D01*
X12689Y69053D01*
X12647Y69103D01*
X12601Y69146D01*
X12551Y69184D01*
X12501Y69215D01*
X12447Y69242D01*
X12389Y69261D01*
X12331Y69276D01*
X12270Y69284D01*
X12209Y69288D01*
X10690D01*
X10625Y69284D01*
X10563Y69276D01*
X10502Y69261D01*
X10448Y69242D01*
X10390Y69215D01*
X10340Y69184D01*
X10290Y69146D01*
X10244Y69103D01*
X10198Y69053D01*
X10163Y69004D01*
X10133Y68954D01*
X10106Y68900D01*
X10086Y68842D01*
X10071Y68780D01*
X10063Y68719D01*
X10059Y68657D01*
Y66762D01*
X8526D01*
Y68976D01*
X8518Y69038D01*
X8502Y69096D01*
X8476Y69146D01*
X8433Y69196D01*
X8387Y69234D01*
X8333Y69265D01*
X8276Y69284D01*
X8214Y69288D01*
X8152Y69284D01*
X8095Y69265D01*
X8041Y69234D01*
X7995Y69196D01*
X7952Y69146D01*
X7926Y69096D01*
X7906Y69038D01*
X7902Y68976D01*
X8526Y71033D02*
Y71991D01*
X12209D01*
Y71049D01*
X12213Y70987D01*
X12232Y70930D01*
X12259Y70876D01*
X12301Y70830D01*
X12347Y70787D01*
X12401Y70760D01*
X12459Y70745D01*
X12520Y70737D01*
X12581Y70745D01*
X12639Y70760D01*
X12693Y70787D01*
X12739Y70830D01*
X12781Y70876D01*
X12808Y70930D01*
X12824Y70987D01*
X12831Y71049D01*
Y72613D01*
X8526D01*
Y73240D01*
X9825D01*
X9887Y73248D01*
X9940Y73263D01*
X9994Y73290D01*
X10044Y73333D01*
X10083Y73379D01*
X10113Y73433D01*
X10129Y73490D01*
X10136Y73552D01*
X10129Y73613D01*
X10113Y73671D01*
X10086Y73725D01*
X10044Y73771D01*
X9998Y73813D01*
X9944Y73840D01*
X9887Y73859D01*
X9825Y73863D01*
X8214D01*
X8152Y73859D01*
X8095Y73840D01*
X8041Y73813D01*
X7995Y73771D01*
X7952Y73725D01*
X7926Y73671D01*
X7906Y73613D01*
X7902Y73552D01*
Y71033D01*
X7906Y70972D01*
X7926Y70914D01*
X7956Y70860D01*
X7995Y70814D01*
X8045Y70772D01*
X8099Y70745D01*
X8160Y70730D01*
X8222Y70722D01*
X8283Y70730D01*
X8337Y70745D01*
X8391Y70772D01*
X8437Y70814D01*
X8476Y70860D01*
X8502Y70914D01*
X8518Y70972D01*
X8526Y71033D01*
X8024Y38654D02*
X12699D01*
X7938Y38748D02*
X12787D01*
X7900Y38842D02*
X12823D01*
X7897Y38935D02*
X12828D01*
X7920Y39029D02*
X12807D01*
X7984Y39123D02*
X12742D01*
X8329Y39217D02*
X9324D01*
X10017D02*
X11050D01*
X8246Y39310D02*
X9083D01*
X10287D02*
X11124D01*
X8172Y39404D02*
X8998D01*
X10372D02*
X11198D01*
X8104Y39498D02*
X8919D01*
X10453D02*
X11272D01*
X8042Y39591D02*
X8839D01*
X10533D02*
X11341D01*
X7992Y39685D02*
X8758D01*
X10613D02*
X11398D01*
X7953Y39779D02*
X8678D01*
X10693D02*
X11439D01*
X7921Y39872D02*
X8602D01*
X10774D02*
X11465D01*
X7904Y39966D02*
X8545D01*
X10829D02*
X11482D01*
X7896Y40060D02*
X8527D01*
X10852D02*
X11486D01*
X7895Y40154D02*
X8526D01*
X10855D02*
X11486D01*
X7895Y40247D02*
X8526D01*
X10855D02*
X11486D01*
X7895Y40341D02*
X8526D01*
X10855D02*
X11486D01*
X7895Y40435D02*
X8526D01*
X10855D02*
X11486D01*
X7895Y40528D02*
X8526D01*
X10855D02*
X11486D01*
X7896Y40622D02*
X8529D01*
X10850D02*
X11485D01*
X7907Y40716D02*
X8559D01*
X10813D02*
X11477D01*
X7932Y40809D02*
X8631D01*
X10752D02*
X11459D01*
X7966Y40903D02*
X8715D01*
X10672D02*
X11431D01*
X8004Y40997D02*
X8799D01*
X10593D02*
X11386D01*
X8054Y41091D02*
X8906D01*
X10478D02*
X11328D01*
X8118Y41184D02*
X11253D01*
X8202Y41278D02*
X11172D01*
X8291Y41372D02*
X11092D01*
X8380Y41465D02*
X11011D01*
X8481Y41559D02*
X10904D01*
X8648Y41653D02*
X10730D01*
X8037Y43152D02*
X11344D01*
X7942Y43246D02*
X11433D01*
X7904Y43339D02*
X11468D01*
X7896Y43433D02*
X11477D01*
X7916Y43527D02*
X11458D01*
X7976Y43620D02*
X11403D01*
X8138Y43714D02*
X11241D01*
X10502Y43808D02*
X11319D01*
X10580Y43902D02*
X11381D01*
X10659Y43995D02*
X11428D01*
X10737Y44089D02*
X11458D01*
X10816Y44183D02*
X11478D01*
X10854Y44276D02*
X11485D01*
X10834Y44370D02*
X11482D01*
X8072Y44464D02*
X11468D01*
X7963Y44557D02*
X11439D01*
X7915Y44651D02*
X11393D01*
X7903Y44745D02*
X11331D01*
X7919Y44839D02*
X11248D01*
X7969Y44932D02*
X11191D01*
X8091Y45026D02*
X11278D01*
X10544Y45120D02*
X11346D01*
X10622Y45213D02*
X11402D01*
X10700Y45307D02*
X11442D01*
X10779Y45401D02*
X11469D01*
X10842Y45494D02*
X11483D01*
X10849Y45588D02*
X11484D01*
X10498Y45682D02*
X11476D01*
X8087Y45776D02*
X11453D01*
X7970Y45869D02*
X11417D01*
X7914Y45963D02*
X11364D01*
X7896Y46057D02*
X11286D01*
X7905Y46150D02*
X11180D01*
X7950Y46244D02*
X11002D01*
X8054Y46338D02*
X9453D01*
X8649Y47837D02*
X10734D01*
X8466Y47931D02*
X10906D01*
X8363Y48024D02*
X11011D01*
X8283Y48118D02*
X11093D01*
X8203Y48212D02*
X11173D01*
X8128Y48306D02*
X11253D01*
X8060Y48399D02*
X8936D01*
X10437D02*
X11324D01*
X8004Y48493D02*
X8801D01*
X10583D02*
X11380D01*
X7960Y48587D02*
X8718D01*
X10666D02*
X11420D01*
X7926Y48680D02*
X8637D01*
X10749D02*
X11451D01*
X7905Y48774D02*
X8565D01*
X10812D02*
X11472D01*
X7896Y48868D02*
X8529D01*
X10846D02*
X11483D01*
X7895Y48961D02*
X8526D01*
X10855D02*
X11486D01*
X7895Y49055D02*
X8526D01*
X10855D02*
X11486D01*
X7895Y49149D02*
X8526D01*
X10855D02*
X11486D01*
X7895Y49243D02*
X8526D01*
X10855D02*
X11486D01*
X7895Y49336D02*
X8526D01*
X10855D02*
X11486D01*
X7895Y49430D02*
X8526D01*
X10850D02*
X11484D01*
X7902Y49524D02*
X8549D01*
X10832D02*
X11477D01*
X7920Y49617D02*
X8607D01*
X10780D02*
X11459D01*
X7949Y49711D02*
X8680D01*
X10703D02*
X11431D01*
X7991Y49805D02*
X8758D01*
X10622D02*
X11393D01*
X8043Y49898D02*
X8836D01*
X10541D02*
X11346D01*
X8104Y49992D02*
X8915D01*
X10460D02*
X11282D01*
X8172Y50086D02*
X8993D01*
X10379D02*
X11206D01*
X8252Y50180D02*
X9072D01*
X10298D02*
X11128D01*
X8339Y50273D02*
X9256D01*
X10098D02*
X11049D01*
X7987Y50367D02*
X12738D01*
X7922Y50461D02*
X12805D01*
X7897Y50554D02*
X12828D01*
X7898Y50648D02*
X12823D01*
X7935Y50742D02*
X12791D01*
X8018Y50835D02*
X12707D01*
X12500Y56926D02*
X12520D01*
X7902Y57020D02*
X10348D01*
X12297D02*
X12743D01*
X7902Y57113D02*
X10480D01*
X12233D02*
X12807D01*
X7902Y57207D02*
X10568D01*
X12211D02*
X12828D01*
X7902Y57301D02*
X10627D01*
X12209D02*
X12831D01*
X7902Y57394D02*
X10664D01*
X12209D02*
X12831D01*
X7902Y57488D02*
X10683D01*
X12209D02*
X12831D01*
X7902Y57582D02*
X8526D01*
X10059D02*
X10690D01*
X12209D02*
X12831D01*
X7902Y57676D02*
X8526D01*
X10059D02*
X10690D01*
X12209D02*
X12831D01*
X7902Y57769D02*
X8526D01*
X10059D02*
X10690D01*
X12209D02*
X12831D01*
X7902Y57863D02*
X8526D01*
X10059D02*
X10690D01*
X12209D02*
X12831D01*
X7902Y57957D02*
X8526D01*
X10059D02*
X10690D01*
X12209D02*
X12831D01*
X7902Y58050D02*
X8526D01*
X10059D02*
X10690D01*
X12209D02*
X12831D01*
X7902Y58144D02*
X8526D01*
X10059D02*
X10690D01*
X12209D02*
X12831D01*
X7902Y58238D02*
X8526D01*
X10059D02*
X10690D01*
X12209D02*
X12831D01*
X7902Y58331D02*
X8526D01*
X10059D02*
X10690D01*
X12209D02*
X12831D01*
X7902Y58425D02*
X8526D01*
X10059D02*
X10690D01*
X12209D02*
X12831D01*
X7902Y58519D02*
X8526D01*
X10059D02*
X10690D01*
X12209D02*
X12831D01*
X7902Y58613D02*
X8526D01*
X10059D02*
X10690D01*
X12209D02*
X12831D01*
X7902Y58706D02*
X8526D01*
X10059D02*
X10690D01*
X12209D02*
X12831D01*
X7902Y58800D02*
X8526D01*
X10059D02*
X10690D01*
X12209D02*
X12831D01*
X7902Y58894D02*
X8526D01*
X10059D02*
X10690D01*
X12209D02*
X12831D01*
X7902Y58987D02*
X8526D01*
X10059D02*
X10690D01*
X12209D02*
X12831D01*
X7902Y59081D02*
X8526D01*
X10059D02*
X10690D01*
X12209D02*
X12831D01*
X7902Y59175D02*
X8526D01*
X10059D02*
X10690D01*
X12209D02*
X12831D01*
X7902Y59269D02*
X8526D01*
X10059D02*
X10690D01*
X12209D02*
X12831D01*
X7902Y59362D02*
X8526D01*
X10059D02*
X10690D01*
X12209D02*
X12831D01*
X7902Y59456D02*
X8526D01*
X10059D02*
X10690D01*
X12209D02*
X12831D01*
X7902Y59550D02*
X8526D01*
X10066D02*
X12825D01*
X7902Y59643D02*
X8526D01*
X10084D02*
X12807D01*
X7902Y59737D02*
X8526D01*
X10119D02*
X12772D01*
X7905Y59831D02*
X8520D01*
X10174D02*
X12715D01*
X7935Y59924D02*
X8493D01*
X10255D02*
X12636D01*
X8009Y60018D02*
X8419D01*
X10377D02*
X12514D01*
X8213Y61611D02*
X12524D01*
X8086Y61705D02*
X12652D01*
X8005Y61798D02*
X12731D01*
X7952Y61892D02*
X12785D01*
X7920Y61986D02*
X12818D01*
X7906Y62080D02*
X12835D01*
X7902Y62173D02*
X8526D01*
X12209D02*
X12839D01*
X7902Y62267D02*
X8526D01*
X12209D02*
X12839D01*
X7902Y62361D02*
X8526D01*
X12209D02*
X12839D01*
X7902Y62454D02*
X8526D01*
X12209D02*
X12839D01*
X7902Y62548D02*
X8526D01*
X12209D02*
X12839D01*
X7902Y62642D02*
X8526D01*
X12209D02*
X12839D01*
X7902Y62735D02*
X8526D01*
X12209D02*
X12839D01*
X7902Y62829D02*
X8526D01*
X12209D02*
X12839D01*
X7902Y62923D02*
X8526D01*
X12209D02*
X12839D01*
X7902Y63017D02*
X8526D01*
X12209D02*
X12839D01*
X7902Y63110D02*
X8526D01*
X12209D02*
X12839D01*
X7902Y63204D02*
X8526D01*
X12209D02*
X12839D01*
X7902Y63298D02*
X8526D01*
X12209D02*
X12839D01*
X7902Y63391D02*
X8526D01*
X12209D02*
X12839D01*
X7902Y63485D02*
X8526D01*
X12209D02*
X12839D01*
X7902Y63579D02*
X8526D01*
X12209D02*
X12839D01*
X7902Y63672D02*
X8526D01*
X12209D02*
X12839D01*
X7902Y63766D02*
X8526D01*
X12209D02*
X12839D01*
X7902Y63860D02*
X8526D01*
X12209D02*
X12839D01*
X7902Y63954D02*
X8526D01*
X12209D02*
X12839D01*
X7902Y64047D02*
X8526D01*
X12209D02*
X12839D01*
X7907Y64141D02*
X12835D01*
X7922Y64235D02*
X12818D01*
X7955Y64328D02*
X12784D01*
X8012Y64422D02*
X12728D01*
X8095Y64516D02*
X12646D01*
X8222Y64609D02*
X12515D01*
X7902Y66202D02*
X10335D01*
X12303D02*
X12737D01*
X7902Y66296D02*
X10473D01*
X12236D02*
X12804D01*
X7902Y66390D02*
X10563D01*
X12211D02*
X12827D01*
X7902Y66483D02*
X10624D01*
X12209D02*
X12831D01*
X7902Y66577D02*
X10662D01*
X12209D02*
X12831D01*
X7902Y66671D02*
X10682D01*
X12209D02*
X12831D01*
X7902Y66765D02*
X8526D01*
X10059D02*
X10690D01*
X12209D02*
X12831D01*
X7902Y66858D02*
X8526D01*
X10059D02*
X10690D01*
X12209D02*
X12831D01*
X7902Y66952D02*
X8526D01*
X10059D02*
X10690D01*
X12209D02*
X12831D01*
X7902Y67046D02*
X8526D01*
X10059D02*
X10690D01*
X12209D02*
X12831D01*
X7902Y67139D02*
X8526D01*
X10059D02*
X10690D01*
X12209D02*
X12831D01*
X7902Y67233D02*
X8526D01*
X10059D02*
X10690D01*
X12209D02*
X12831D01*
X7902Y67327D02*
X8526D01*
X10059D02*
X10690D01*
X12209D02*
X12831D01*
X7902Y67420D02*
X8526D01*
X10059D02*
X10690D01*
X12209D02*
X12831D01*
X7902Y67514D02*
X8526D01*
X10059D02*
X10690D01*
X12209D02*
X12831D01*
X7902Y67608D02*
X8526D01*
X10059D02*
X10690D01*
X12209D02*
X12831D01*
X7902Y67702D02*
X8526D01*
X10059D02*
X10690D01*
X12209D02*
X12831D01*
X7902Y67795D02*
X8526D01*
X10059D02*
X10690D01*
X12209D02*
X12831D01*
X7902Y67889D02*
X8526D01*
X10059D02*
X10690D01*
X12209D02*
X12831D01*
X7902Y67983D02*
X8526D01*
X10059D02*
X10690D01*
X12209D02*
X12831D01*
X7902Y68076D02*
X8526D01*
X10059D02*
X10690D01*
X12209D02*
X12831D01*
X7902Y68170D02*
X8526D01*
X10059D02*
X10690D01*
X12209D02*
X12831D01*
X7902Y68264D02*
X8526D01*
X10059D02*
X10690D01*
X12209D02*
X12831D01*
X7902Y68357D02*
X8526D01*
X10059D02*
X10690D01*
X12209D02*
X12831D01*
X7902Y68451D02*
X8526D01*
X10059D02*
X10690D01*
X12209D02*
X12831D01*
X7902Y68545D02*
X8526D01*
X10059D02*
X10690D01*
X12209D02*
X12831D01*
X7902Y68639D02*
X8526D01*
X10059D02*
X10690D01*
X12209D02*
X12831D01*
X7902Y68732D02*
X8526D01*
X10065D02*
X12826D01*
X7902Y68826D02*
X8526D01*
X10082D02*
X12809D01*
X7902Y68920D02*
X8526D01*
X10116D02*
X12775D01*
X7905Y69013D02*
X8521D01*
X10170D02*
X12720D01*
X7932Y69107D02*
X8496D01*
X10248D02*
X12643D01*
X8001Y69201D02*
X8427D01*
X10367D02*
X12524D01*
X8019Y70794D02*
X8415D01*
X12340D02*
X12700D01*
X7941Y70887D02*
X8489D01*
X12253D02*
X12787D01*
X7906Y70981D02*
X8519D01*
X12215D02*
X12822D01*
X7902Y71075D02*
X8526D01*
X12209D02*
X12831D01*
X7902Y71169D02*
X8526D01*
X12209D02*
X12831D01*
X7902Y71262D02*
X8526D01*
X12209D02*
X12831D01*
X7902Y71356D02*
X8526D01*
X12209D02*
X12831D01*
X7902Y71450D02*
X8526D01*
X12209D02*
X12831D01*
X7902Y71543D02*
X8526D01*
X12209D02*
X12831D01*
X7902Y71637D02*
X8526D01*
X12209D02*
X12831D01*
X7902Y71731D02*
X8526D01*
X12209D02*
X12831D01*
X7902Y71824D02*
X8526D01*
X12209D02*
X12831D01*
X7902Y71918D02*
X8526D01*
X12209D02*
X12831D01*
X7902Y72012D02*
X12831D01*
X7902Y72106D02*
X12831D01*
X7902Y72199D02*
X12831D01*
X7902Y72293D02*
X12831D01*
X7902Y72387D02*
X12831D01*
X7902Y72480D02*
X12831D01*
X7902Y72574D02*
X12831D01*
X7902Y72668D02*
X8526D01*
X7902Y72761D02*
X8526D01*
X7902Y72855D02*
X8526D01*
X7902Y72949D02*
X8526D01*
X7902Y73043D02*
X8526D01*
X7902Y73136D02*
X8526D01*
X7902Y73230D02*
X8526D01*
X7902Y73324D02*
X10033D01*
X7902Y73417D02*
X10105D01*
X7902Y73511D02*
X10131D01*
X7906Y73605D02*
X10130D01*
X7939Y73698D02*
X10100D01*
X8018Y73792D02*
X10021D01*
D02*
D25*
X250Y2772D02*
X351431D01*
Y112220D01*
X250D01*
Y2772D01*
X110369Y71572D02*
G75*
G03*
X110294Y71183I1046J-402D01*
G01*
G75*
G03*
X110240Y66136I4590223J-51935D01*
G01*
G75*
G03*
X110200Y60423I909165J-9248D01*
G01*
G75*
G03*
X110186Y53732I1711433J-6769D01*
G01*
G75*
G03*
X110198Y42559I5518787J53D01*
G01*
G75*
G03*
X110265Y38685I125939J263D01*
G01*
G75*
G03*
X110396Y36614I34076J1118D01*
G01*
G75*
G03*
X110767Y36057I704J66D01*
G01*
G75*
G03*
X111767Y35806I1002J1872D01*
G01*
G75*
G03*
X188147Y35741I1899175J843519190D01*
G01*
G75*
G03*
X264367Y35680I1203575J843519255D01*
G01*
G75*
G03*
X265712Y35928I3J3747D01*
G01*
G75*
G03*
X265995Y36302I-159J415D01*
G01*
G75*
G03*
X266107Y37980I-32564J3020D01*
G01*
G75*
G03*
X266173Y40884I-78653J3233D01*
G01*
G75*
G03*
X266186Y47478I-1594237J6533D01*
G01*
Y58846D01*
X261686D01*
Y68446D01*
X266186D01*
Y70046D01*
G75*
G03*
X266172Y70674I-13522J0D01*
G01*
G75*
G03*
X266128Y71235I-8763J-406D01*
G01*
G75*
G03*
X266065Y71693I-9112J-1014D01*
G01*
G75*
G03*
X265788Y71929I-278J-45D01*
G01*
G75*
G03*
X243045Y71987I-1691898J-651547725D01*
G01*
G75*
G03*
X217945Y72032I-40561J-15803535D01*
G01*
G75*
G03*
X188169Y72046I-30063J-31019277D01*
G01*
G75*
G03*
X141941Y72034I948J-88287387D01*
G01*
G75*
G03*
X122893Y71970I1896J-3432081D01*
G01*
G75*
G03*
X110825Y71888I51460J-8432104D01*
G01*
G75*
G03*
X110369Y71572I4J-493D01*
G01*
X125369Y65272D02*
G75*
G03*
X125294Y64893I1041J-400D01*
G01*
G75*
G03*
X125240Y61686I1249682J-22933D01*
G01*
G75*
G03*
X125200Y58008I382470J-6015D01*
G01*
G75*
G03*
X125186Y53732I695938J-4317D01*
G01*
G75*
G03*
X125198Y46706I2053993J55D01*
G01*
G75*
G03*
X125267Y44169I53398J181D01*
G01*
G75*
G03*
X125414Y42846I11205J574D01*
G01*
G75*
G03*
X125767Y42357I676J116D01*
G01*
G75*
G03*
X126765Y42106I1000J1869D01*
G01*
G75*
G03*
X188148Y42041I966823J843512889D01*
G01*
G75*
G03*
X249371Y41981I716357J701571000D01*
G01*
G75*
G03*
X250712Y42228I4J3732D01*
G01*
G75*
G03*
X250995Y42602I-159J415D01*
G01*
G75*
G03*
X251107Y44296I-33338J3059D01*
G01*
G75*
G03*
X251173Y47224I-79985J3261D01*
G01*
G75*
G03*
X251186Y53878I-1622396J6591D01*
G01*
G75*
G03*
X251172Y58289I-675761J34D01*
G01*
G75*
G03*
X251128Y62036I-353691J-2326D01*
G01*
G75*
G03*
X251068Y65354I-2088943J-35772D01*
G01*
G75*
G03*
X250986Y65546I-279J-6D01*
G01*
G75*
G03*
X250789Y65629I-199J-198D01*
G01*
G75*
G03*
X232451Y65687I-1129519J-350218543D01*
G01*
G75*
G03*
X212193Y65732I-32687J-10271773D01*
G01*
G75*
G03*
X188169Y65746I-24286J-20242597D01*
G01*
G75*
G03*
X150915Y65734I369J-56169695D01*
G01*
G75*
G03*
X135522Y65670I1521J-2238529D01*
G01*
G75*
G03*
X125822Y65587I33283J-4411085D01*
G01*
G75*
G03*
X125369Y65272I5J-491D01*
G01*
X132029Y59176D02*
X132627Y57405D01*
X131900Y57266D01*
G75*
G02*
X131368Y57238I-368J1925D01*
G01*
G75*
G02*
X131055Y57405I37J446D01*
G01*
G75*
G02*
X130796Y57866I1301J1036D01*
G01*
G75*
G02*
X130288Y59291I65792J24236D01*
G01*
X129719Y60946D01*
X130575D01*
G75*
G02*
X131070Y60875I-1J-1763D01*
G01*
G75*
G02*
X131390Y60664I-183J-624D01*
G01*
G75*
G02*
X131654Y60211I-1277J-1049D01*
G01*
G75*
G02*
X132029Y59176I-23682J-9158D01*
G01*
X135370Y53597D02*
G75*
G03*
X134953Y52278I24006J-8314D01*
G01*
G75*
G03*
X134684Y51148I12230J-3507D01*
G01*
G75*
G03*
X134536Y50078I10580J-2009D01*
G01*
G75*
G03*
X134486Y48947I12911J-1133D01*
G01*
G75*
G02*
X134471Y47601I-60164J-4D01*
G01*
G75*
G02*
X134385Y47131I-1495J33D01*
G01*
G75*
G02*
X134170Y46919I-329J117D01*
G01*
G75*
G02*
X133736Y46846I-433J1259D01*
G01*
G75*
G02*
X133303Y46922I0J1281D01*
G01*
G75*
G02*
X133087Y47141I120J334D01*
G01*
G75*
G02*
X133001Y47628I1524J520D01*
G01*
G75*
G02*
X132986Y49044I68289J1430D01*
G01*
G75*
G03*
X132943Y50177I-14638J3D01*
G01*
G75*
G03*
X132811Y51243I-11742J-912D01*
G01*
G75*
G03*
X132579Y52310I-12036J-2053D01*
G01*
G75*
G03*
X132236Y53446I-16487J-4354D01*
G01*
G75*
G02*
X131628Y55279I120250J40902D01*
G01*
G75*
G02*
X131546Y55837I1625J525D01*
G01*
G75*
G02*
X131739Y56069I241J-4D01*
G01*
G75*
G02*
X132287Y56091I345J-1689D01*
G01*
G75*
G02*
X132691Y55989I-191J-1601D01*
G01*
G75*
G02*
X132991Y55793I-328J-829D01*
G01*
G75*
G02*
X133226Y55463I-859J-863D01*
G01*
G75*
G02*
X133439Y54946I-3822J-1871D01*
G01*
X133790Y53896D01*
X134161Y55021D01*
G75*
G02*
X134395Y55626I6183J-2041D01*
G01*
G75*
G02*
X134622Y55941I868J-386D01*
G01*
G75*
G02*
X134925Y56096I439J-481D01*
G01*
G75*
G02*
X135393Y56146I470J-2183D01*
G01*
X136253D01*
X135370Y53597D01*
X137786Y60850D02*
G75*
G02*
X137717Y60443I-1226J-1D01*
G01*
G75*
G02*
X137247Y59143I-79702J28070D01*
G01*
G75*
G02*
X136755Y57844I-84592J31345D01*
G01*
G75*
G02*
X136551Y57515I-984J382D01*
G01*
G75*
G02*
X136185Y57265I-712J649D01*
G01*
G75*
G02*
X135673Y57149I-660J1715D01*
G01*
G75*
G02*
X135241Y57192I-98J1210D01*
G01*
G75*
G02*
X135086Y57397I59J205D01*
G01*
G75*
G02*
X135111Y57612I942J-2D01*
G01*
G75*
G02*
X135235Y58112I21504J-5030D01*
G01*
G75*
G02*
X135398Y58706I20586J-5342D01*
G01*
G75*
G02*
X135591Y59345I28068J-8148D01*
G01*
G75*
G02*
X135908Y60268I18145J-5716D01*
G01*
G75*
G02*
X136152Y60684I1321J-493D01*
G01*
G75*
G02*
X136459Y60881I471J-397D01*
G01*
G75*
G02*
X136941Y60946I483J-1752D01*
G01*
G75*
G02*
X137265Y60939I-3J-7558D01*
G01*
G75*
G02*
X137538Y60918I-169J-3859D01*
G01*
G75*
G02*
X137754Y60888I-511J-4537D01*
G01*
G75*
G02*
X137786Y60850I-7J-38D01*
G01*
X144018Y60745D02*
G75*
G02*
X144591Y60235I-424J-1054D01*
G01*
G75*
G02*
X145080Y59096I-5826J-3171D01*
G01*
G75*
G02*
X145343Y57913I-6259J-2012D01*
G01*
G75*
G02*
X145130Y57289I-742J-94D01*
G01*
G75*
G02*
X145024Y57237I-131J131D01*
G01*
G75*
G02*
X144805Y57219I-257J1821D01*
G01*
G75*
G02*
X144535Y57230I-44J2300D01*
G01*
G75*
G02*
X144246Y57271I304J3161D01*
G01*
G75*
G02*
X143889Y57389I276J1436D01*
G01*
G75*
G02*
X143654Y57580I277J579D01*
G01*
G75*
G02*
X143509Y57883I671J508D01*
G01*
G75*
G02*
X143428Y58353I3119J780D01*
G01*
G75*
G03*
X143330Y58911I-3664J-356D01*
G01*
G75*
G03*
X143147Y59174I-443J-113D01*
G01*
G75*
G03*
X142793Y59307I-448J-650D01*
G01*
G75*
G03*
X141930Y59387I-1879J-15666D01*
G01*
X140524Y59478D01*
X140430Y58337D01*
G75*
G02*
X140333Y57626I-6666J549D01*
G01*
G75*
G02*
X140150Y57340I-448J86D01*
G01*
G75*
G02*
X139804Y57239I-320J448D01*
G01*
G75*
G02*
X138986Y57309I497J10609D01*
G01*
G75*
G02*
X138702Y57598I41J324D01*
G01*
G75*
G02*
X138705Y58453I3885J417D01*
G01*
G75*
G02*
X138917Y59426I4848J-548D01*
G01*
G75*
G02*
X139308Y60156I2264J-743D01*
G01*
G75*
G02*
X139723Y60587I2374J-1866D01*
G01*
G75*
G02*
X140132Y60813I753J-884D01*
G01*
G75*
G02*
X140707Y60910I654J-2111D01*
G01*
G75*
G02*
X141783Y60922I788J-22039D01*
G01*
G75*
G02*
X142521Y60902I-313J-25066D01*
G01*
G75*
G02*
X143204Y60861I-791J-18558D01*
G01*
G75*
G02*
X143774Y60807I-1468J-18540D01*
G01*
G75*
G02*
X144018Y60745I-102J-920D01*
G01*
X145286Y56146D02*
Y46806D01*
X144461Y46901D01*
G75*
G02*
X143976Y47029I202J1756D01*
G01*
G75*
G02*
X143735Y47274I174J413D01*
G01*
G75*
G02*
X143622Y47773I1498J603D01*
G01*
G75*
G02*
X143548Y49171I58859J3784D01*
G01*
X143460Y51346D01*
X140513D01*
X140424Y49171D01*
G75*
G02*
X140351Y47773I-58932J2386D01*
G01*
G75*
G02*
X140238Y47274I-1611J104D01*
G01*
G75*
G02*
X139996Y47029I-416J167D01*
G01*
G75*
G02*
X139511Y46901I-687J1628D01*
G01*
X138686Y46806D01*
Y56146D01*
X139586D01*
G75*
G02*
X140136Y56101I0J-3336D01*
G01*
G75*
G02*
X140370Y55934I-54J-324D01*
G01*
G75*
G02*
X140469Y55571I-713J-389D01*
G01*
G75*
G02*
X140486Y54496I-33572J-1066D01*
G01*
Y52846D01*
X143486D01*
Y54496D01*
G75*
G02*
X143504Y55571I33590J-4D01*
G01*
G75*
G02*
X143602Y55934I812J-26D01*
G01*
G75*
G02*
X143837Y56101I289J-157D01*
G01*
G75*
G02*
X144386Y56146I550J-3288D01*
G01*
X145286D01*
X151409Y59080D02*
G75*
G02*
X151376Y57924I-39959J592D01*
G01*
G75*
G02*
X151281Y57484I-1333J58D01*
G01*
G75*
G02*
X151069Y57282I-329J132D01*
G01*
G75*
G02*
X150659Y57212I-412J1176D01*
G01*
G75*
G02*
X150251Y57283I-2J1204D01*
G01*
G75*
G02*
X150031Y57489I129J358D01*
G01*
G75*
G02*
X149919Y57935I1277J556D01*
G01*
G75*
G02*
X149847Y59078I37295J2925D01*
G01*
G75*
G02*
X149802Y60317I52526J2524D01*
G01*
G75*
G02*
X149874Y60712I997J24D01*
G01*
G75*
G02*
X150089Y60893I277J-111D01*
G01*
G75*
G02*
X150597Y60946I508J-2403D01*
G01*
G75*
G02*
X151102Y60891I0J-2337D01*
G01*
G75*
G02*
X151325Y60707I-69J-311D01*
G01*
G75*
G02*
X151412Y60303I-954J-416D01*
G01*
G75*
G02*
X151409Y59080I-48550J-518D01*
G01*
X151436Y56145D02*
X151377Y46996D01*
X148932Y46909D01*
G75*
G02*
X147307Y46864I-3629J101941D01*
G01*
G75*
G02*
X146793Y46929I-35J1798D01*
G01*
G75*
G02*
X146565Y47139I90J326D01*
G01*
G75*
G02*
X146486Y47584I1215J446D01*
G01*
G75*
G02*
X146544Y48022I1705J-1D01*
G01*
G75*
G02*
X146724Y48237I318J-85D01*
G01*
G75*
G02*
X147111Y48329I422J-913D01*
G01*
G75*
G02*
X148136Y48346I1031J-29972D01*
G01*
X149786D01*
Y56146D01*
X150611Y56146D01*
X151436Y56145D01*
X159386Y56146D02*
Y46806D01*
X158561Y46901D01*
G75*
G02*
X158076Y47029I202J1756D01*
G01*
G75*
G02*
X157835Y47274I174J413D01*
G01*
G75*
G02*
X157722Y47773I1498J603D01*
G01*
G75*
G02*
X157648Y49171I58859J3784D01*
G01*
X157560Y51346D01*
X155957D01*
G75*
G02*
X154483Y51485I-1J7876D01*
G01*
G75*
G02*
X153599Y51939I330J1730D01*
G01*
G75*
G02*
X153091Y52806I1251J1316D01*
G01*
G75*
G02*
X152848Y54302I8261J2111D01*
G01*
X152714Y56146D01*
X153650D01*
G75*
G02*
X154230Y56103I-1J-3916D01*
G01*
G75*
G02*
X154469Y55939I-49J-328D01*
G01*
G75*
G02*
X154569Y55581I-673J-382D01*
G01*
G75*
G02*
X154586Y54496I-34298J-1078D01*
G01*
Y52846D01*
X157586D01*
Y54496D01*
G75*
G02*
X157604Y55571I33590J-4D01*
G01*
G75*
G02*
X157702Y55934I812J-26D01*
G01*
G75*
G02*
X157937Y56101I289J-157D01*
G01*
G75*
G02*
X158486Y56146I550J-3288D01*
G01*
X159386D01*
Y59171D02*
G75*
G02*
X159338Y58002I-14186J-3D01*
G01*
G75*
G02*
X159141Y57441I-1173J97D01*
G01*
G75*
G02*
X158759Y57220I-417J281D01*
G01*
G75*
G02*
X158111Y57280I-142J2014D01*
G01*
G75*
G02*
X157874Y57404I148J569D01*
G01*
G75*
G02*
X157710Y57624I420J485D01*
G01*
G75*
G02*
X157616Y57958I1043J475D01*
G01*
G75*
G02*
X157586Y58431I3809J475D01*
G01*
Y59446D01*
X154586D01*
Y58431D01*
G75*
G02*
X154556Y57883I-4853J-2D01*
G01*
G75*
G02*
X154443Y57577I-691J79D01*
G01*
G75*
G02*
X154218Y57391I-421J280D01*
G01*
G75*
G02*
X153813Y57269I-787J1881D01*
G01*
G75*
G02*
X153244Y57271I-278J1454D01*
G01*
G75*
G02*
X152913Y57520I94J471D01*
G01*
G75*
G02*
X152799Y58056I906J472D01*
G01*
G75*
G02*
X152915Y58990I7651J-480D01*
G01*
G75*
G02*
X153285Y59960I2870J-539D01*
G01*
G75*
G02*
X153934Y60555I1336J-806D01*
G01*
G75*
G02*
X155029Y60861I1377J-2808D01*
G01*
G75*
G02*
X156903Y60946I1878J-20684D01*
G01*
X159386D01*
Y59171D01*
X166468Y60192D02*
G75*
G02*
X166832Y59767I-2561J-2563D01*
G01*
G75*
G02*
X167044Y59366I-1278J-933D01*
G01*
G75*
G02*
X167136Y58917I-1533J-547D01*
G01*
G75*
G02*
X167129Y58340I-3975J-239D01*
G01*
G75*
G02*
X167053Y57767I-5962J502D01*
G01*
G75*
G02*
X166923Y57447I-834J154D01*
G01*
G75*
G02*
X166707Y57273I-387J259D01*
G01*
G75*
G02*
X166361Y57194I-429J1085D01*
G01*
G75*
G02*
X166033Y57206I-112J1569D01*
G01*
G75*
G02*
X165831Y57302I52J369D01*
G01*
G75*
G02*
X165721Y57496I252J272D01*
G01*
G75*
G02*
X165686Y57822I1530J328D01*
G01*
G75*
G03*
X165613Y58666I-4900J0D01*
G01*
G75*
G03*
X165365Y59135I-845J-148D01*
G01*
G75*
G03*
X164883Y59376I-625J-644D01*
G01*
G75*
G03*
X164010Y59446I-874J-5411D01*
G01*
G75*
G03*
X163269Y59420I6J-10751D01*
G01*
G75*
G03*
X162891Y59318I68J-997D01*
G01*
G75*
G03*
X162666Y59100I232J-463D01*
G01*
G75*
G03*
X162509Y58696I1540J-830D01*
G01*
G75*
G02*
X162381Y58350I-1669J419D01*
G01*
G75*
G02*
X162199Y58119I-634J315D01*
G01*
G75*
G02*
X161946Y57990I-417J504D01*
G01*
G75*
G02*
X161604Y57946I-341J1321D01*
G01*
G75*
G02*
X161131Y58063I0J1020D01*
G01*
G75*
G02*
X160910Y58370I195J372D01*
G01*
G75*
G02*
X160963Y58904I1053J165D01*
G01*
G75*
G02*
X161325Y59725I6816J-2516D01*
G01*
G75*
G02*
X161758Y60363I2883J-1491D01*
G01*
G75*
G02*
X162256Y60723I1025J-890D01*
G01*
G75*
G02*
X162980Y60898I901J-2141D01*
G01*
G75*
G02*
X164224Y60946I1249J-16218D01*
G01*
G75*
G02*
X165014Y60911I-3J-8888D01*
G01*
G75*
G02*
X165567Y60795I-213J-2394D01*
G01*
G75*
G02*
X166017Y60569I-570J-1696D01*
G01*
G75*
G02*
X166468Y60192I-1880J-2707D01*
G01*
X166893Y55557D02*
G75*
G02*
X166681Y55270I-1115J598D01*
G01*
G75*
G02*
X166253Y54861I-6156J6024D01*
G01*
G75*
G02*
X165724Y54422I-6610J7424D01*
G01*
G75*
G02*
X165157Y54013I-6515J8424D01*
G01*
G75*
G03*
X163555Y52881I24529J-36428D01*
G01*
G75*
G03*
X162831Y52175I2218J-2998D01*
G01*
G75*
G03*
X162496Y51461I1411J-1098D01*
G01*
G75*
G03*
X162386Y50454I4574J-1008D01*
G01*
G75*
G03*
X162466Y49411I6915J2D01*
G01*
G75*
G03*
X162734Y48790I1319J201D01*
G01*
G75*
G03*
X163232Y48457I757J593D01*
G01*
G75*
G03*
X164036Y48346I804J2877D01*
G01*
G75*
G03*
X164734Y48429I1J2990D01*
G01*
G75*
G03*
X165254Y48676I-326J1355D01*
G01*
G75*
G03*
X165573Y49077I-633J830D01*
G01*
G75*
G03*
X165686Y49606I-1174J528D01*
G01*
G75*
G02*
X165733Y49848I649J0D01*
G01*
G75*
G02*
X165866Y50017I357J-144D01*
G01*
G75*
G02*
X166096Y50115I333J-462D01*
G01*
G75*
G02*
X166436Y50146I341J-1858D01*
G01*
G75*
G02*
X166811Y50112I-2J-2087D01*
G01*
G75*
G02*
X167032Y50000I-78J-429D01*
G01*
G75*
G02*
X167150Y49790I-278J-293D01*
G01*
G75*
G02*
X167186Y49437I-1685J-351D01*
G01*
G75*
G02*
X166841Y48293I-2067J0D01*
G01*
G75*
G02*
X165892Y47397I-2402J1594D01*
G01*
G75*
G02*
X164518Y46928I-1850J3173D01*
G01*
G75*
G02*
X162996Y46994I-573J4383D01*
G01*
G75*
G02*
X161983Y47382I782J3559D01*
G01*
G75*
G02*
X161339Y48007I873J1543D01*
G01*
G75*
G02*
X160992Y48984I2213J1338D01*
G01*
G75*
G02*
X160886Y50484I10627J1501D01*
G01*
G75*
G02*
X160983Y51935I10886J0D01*
G01*
G75*
G02*
X161316Y52815I2067J-279D01*
G01*
G75*
G02*
X162072Y53639I3043J-2032D01*
G01*
G75*
G02*
X163964Y55094I37149J-46370D01*
G01*
G75*
G02*
X165157Y55823I4779J-6483D01*
G01*
G75*
G02*
X166257Y56174I1696J-3410D01*
G01*
G75*
G02*
X166808Y56016I106J-670D01*
G01*
G75*
G02*
X166893Y55557I-245J-282D01*
G01*
X171386Y52246D02*
G75*
G03*
X171402Y50119I144581J7D01*
G01*
G75*
G03*
X171470Y49071I10490J156D01*
G01*
G75*
G03*
X171600Y48513I2516J290D01*
G01*
G75*
G03*
X171836Y48346I237J84D01*
G01*
G75*
G02*
X172023Y48292I0J-351D01*
G01*
G75*
G02*
X172167Y48144I-234J-371D01*
G01*
G75*
G02*
X172257Y47903I-636J-374D01*
G01*
G75*
G02*
X172286Y47582I-1744J-320D01*
G01*
G75*
G02*
X172226Y47136I-1669J0D01*
G01*
G75*
G02*
X172036Y46931I-292J81D01*
G01*
G75*
G02*
X171622Y46864I-388J1077D01*
G01*
G75*
G02*
X170411Y46907I1143J49353D01*
G01*
G75*
G02*
X169317Y46979I1456J30626D01*
G01*
G75*
G02*
X168827Y47092I146J1757D01*
G01*
G75*
G02*
X168573Y47304I187J482D01*
G01*
G75*
G02*
X168441Y47671I820J503D01*
G01*
G75*
G02*
X168425Y48001I1759J249D01*
G01*
G75*
G02*
X168498Y48201I352J-15D01*
G01*
G75*
G02*
X168669Y48311I243J-188D01*
G01*
G75*
G02*
X168966Y48346I297J-1240D01*
G01*
G75*
G03*
X169311Y48500I0J466D01*
G01*
G75*
G03*
X169500Y48893I-567J513D01*
G01*
G75*
G03*
X169574Y49772I-5912J941D01*
G01*
G75*
G03*
X169586Y52246I-239107J2455D01*
G01*
Y56146D01*
X171386D01*
Y52246D01*
X172286Y60196D02*
G75*
G02*
X172257Y59890I-1615J-1D01*
G01*
G75*
G02*
X172168Y59652I-757J146D01*
G01*
G75*
G02*
X172030Y59501I-404J232D01*
G01*
G75*
G02*
X171854Y59446I-175J254D01*
G01*
G75*
G03*
X171663Y59371I0J-281D01*
G01*
G75*
G03*
X171509Y59160I463J-499D01*
G01*
G75*
G03*
X171396Y58810I1343J-627D01*
G01*
G75*
G03*
X171330Y58321I4602J-875D01*
G01*
G75*
G02*
X171233Y57622I-6376J526D01*
G01*
G75*
G02*
X171049Y57339I-443J87D01*
G01*
G75*
G02*
X170703Y57239I-319J455D01*
G01*
G75*
G02*
X169886Y57309I504J10668D01*
G01*
G75*
G02*
X169770Y57390I19J150D01*
G01*
G75*
G02*
X169674Y57633I1191J610D01*
G01*
G75*
G02*
X169608Y57970I1985J565D01*
G01*
G75*
G02*
X169586Y58361I3500J393D01*
G01*
G75*
G03*
X169556Y58860I-4129J3D01*
G01*
G75*
G03*
X169456Y59189I-974J-119D01*
G01*
G75*
G03*
X169271Y59401I-521J-267D01*
G01*
G75*
G03*
X168986Y59533I-508J-724D01*
G01*
G75*
G02*
X168744Y59641I207J792D01*
G01*
G75*
G02*
X168552Y59820I431J654D01*
G01*
G75*
G02*
X168429Y60053I628J481D01*
G01*
G75*
G02*
X168386Y60318I806J265D01*
G01*
G75*
G02*
X168470Y60658I734J0D01*
G01*
G75*
G02*
X168694Y60847I343J-179D01*
G01*
G75*
G02*
X169174Y60930I529J-1645D01*
G01*
G75*
G02*
X170336Y60946I1172J-40529D01*
G01*
G75*
G02*
X171574Y60930I-15J-48599D01*
G01*
G75*
G02*
X172017Y60843I-33J-1328D01*
G01*
G75*
G02*
X172219Y60628I-123J-318D01*
G01*
G75*
G02*
X172286Y60196I-1343J-432D01*
G01*
X180319Y51571D02*
X180236Y46996D01*
X177901Y46908D01*
G75*
G02*
X176442Y46877I-1702J45587D01*
G01*
G75*
G02*
X175769Y46957I-16J2728D01*
G01*
G75*
G02*
X175272Y47193I334J1343D01*
G01*
G75*
G02*
X174676Y47710I3336J4452D01*
G01*
X173786Y48600D01*
Y56146D01*
X175569D01*
X175652Y52321D01*
X175736Y48496D01*
X177161Y48405D01*
X178586Y48313D01*
Y56146D01*
X180402D01*
X180319Y51571D01*
X180386Y59146D02*
G75*
G02*
X180365Y58454I-11081J0D01*
G01*
G75*
G02*
X180298Y57864I-5967J371D01*
G01*
G75*
G02*
X180204Y57413I-5203J848D01*
G01*
G75*
G02*
X180086Y57309I-135J35D01*
G01*
G75*
G02*
X179270Y57239I-1320J10593D01*
G01*
G75*
G02*
X178924Y57339I-27J555D01*
G01*
G75*
G02*
X178740Y57622I259J370D01*
G01*
G75*
G02*
X178643Y58321I6280J1226D01*
G01*
X178550Y59446D01*
X175586D01*
Y58421D01*
G75*
G02*
X175517Y57755I-3221J0D01*
G01*
G75*
G02*
X175292Y57366I-707J149D01*
G01*
G75*
G02*
X174900Y57211I-404J452D01*
G01*
G75*
G02*
X174311Y57280I-48J2158D01*
G01*
G75*
G02*
X173910Y57647I146J563D01*
G01*
G75*
G02*
X173789Y58418I1952J701D01*
G01*
G75*
G02*
X173964Y59347I3113J-104D01*
G01*
G75*
G02*
X174408Y60156I2665J-938D01*
G01*
G75*
G02*
X174859Y60606I2087J-1642D01*
G01*
G75*
G02*
X175328Y60832I754J-963D01*
G01*
G75*
G02*
X176054Y60926I809J-3381D01*
G01*
G75*
G02*
X177708Y60946I1661J-68672D01*
G01*
X180386D01*
Y59146D01*
X191126Y59071D02*
G75*
G02*
X191040Y57810I-31299J1486D01*
G01*
G75*
G02*
X190876Y57405I-741J65D01*
G01*
G75*
G02*
X190538Y57248I-330J269D01*
G01*
G75*
G02*
X189688Y57309I136J7893D01*
G01*
G75*
G02*
X189582Y57393I17J130D01*
G01*
G75*
G02*
X189517Y57644I1170J437D01*
G01*
G75*
G02*
X189494Y57991I2036J308D01*
G01*
G75*
G02*
X189524Y58396I3784J-76D01*
G01*
X189659Y59446D01*
X187573D01*
G75*
G02*
X186237Y59461I-7J59016D01*
G01*
G75*
G02*
X185770Y59548I33J1479D01*
G01*
G75*
G02*
X185559Y59763I118J328D01*
G01*
G75*
G02*
X185486Y60196I1267J434D01*
G01*
G75*
G02*
X185583Y60632I1025J0D01*
G01*
G75*
G02*
X185848Y60852I367J-173D01*
G01*
G75*
G02*
X186451Y60933I637J-2432D01*
G01*
G75*
G02*
X188351Y60946I1912J-140640D01*
G01*
X191215D01*
X191126Y59071D01*
X191186Y56186D02*
Y46824D01*
X188411Y46910D01*
G75*
G02*
X186706Y46979I2893J92744D01*
G01*
G75*
G02*
X186035Y47081I163J3310D01*
G01*
G75*
G02*
X185707Y47289I161J617D01*
G01*
G75*
G02*
X185543Y47657I562J471D01*
G01*
G75*
G02*
X185572Y48026I830J119D01*
G01*
G75*
G02*
X185767Y48233I311J-98D01*
G01*
G75*
G02*
X186236Y48337I580J-1503D01*
G01*
G75*
G02*
X187488Y48407I3452J-50443D01*
G01*
X189528Y48496D01*
X189536Y52696D01*
X187811Y52786D01*
G75*
G02*
X186772Y52859I1526J29236D01*
G01*
G75*
G02*
X186350Y52973I110J1244D01*
G01*
G75*
G02*
X186154Y53192I160J342D01*
G01*
G75*
G02*
Y54000I1181J404D01*
G01*
G75*
G02*
X186350Y54220I357J-122D01*
G01*
G75*
G02*
X186770Y54333I530J-1125D01*
G01*
G75*
G02*
X187807Y54406I2554J-28933D01*
G01*
G75*
G03*
X188857Y54480I-1566J29849D01*
G01*
G75*
G03*
X189272Y54595I-104J1180D01*
G01*
G75*
G03*
X189465Y54820I-164J337D01*
G01*
G75*
G03*
X189532Y55246I-1389J435D01*
G01*
G75*
G02*
X189574Y55626I1813J-11D01*
G01*
G75*
G02*
X189703Y55863I478J-106D01*
G01*
G75*
G02*
X189946Y56008I397J-389D01*
G01*
G75*
G02*
X190361Y56091I707J-2457D01*
G01*
X191186Y56186D01*
X198330Y60335D02*
G75*
G02*
X198624Y59991I-1365J-1465D01*
G01*
G75*
G02*
X198828Y59596I-1569J-1061D01*
G01*
G75*
G02*
X198947Y59132I-2089J-783D01*
G01*
G75*
G02*
X198986Y58585I-3778J-547D01*
G01*
G75*
G02*
X198956Y57730I-12033J-2D01*
G01*
G75*
G02*
X198824Y57348I-774J55D01*
G01*
G75*
G02*
X198560Y57204I-272J185D01*
G01*
G75*
G02*
X198086Y57259I-42J1705D01*
G01*
G75*
G02*
X197835Y57385I171J655D01*
G01*
G75*
G02*
X197639Y57608I523J656D01*
G01*
G75*
G02*
X197503Y57931I1054J635D01*
G01*
G75*
G02*
X197428Y58352I2597J681D01*
G01*
G75*
G03*
X197330Y58924I-3955J-384D01*
G01*
G75*
G03*
X197147Y59169I-385J-96D01*
G01*
G75*
G03*
X196791Y59276I-390J-657D01*
G01*
G75*
G03*
X195836Y59296I-961J-22132D01*
G01*
G75*
G03*
X194977Y59275I2J-17450D01*
G01*
G75*
G03*
X194572Y59183I59J-1187D01*
G01*
G75*
G03*
X194357Y58983I169J-399D01*
G01*
G75*
G03*
X194241Y58621I1001J-521D01*
G01*
G75*
G02*
X194189Y58361I-2399J340D01*
G01*
G75*
G02*
X194113Y58138I-1472J377D01*
G01*
G75*
G02*
X194026Y57976I-968J417D01*
G01*
G75*
G02*
X193941Y57923I-98J65D01*
G01*
G75*
G03*
X193829Y57908I275J-2469D01*
G01*
G75*
G03*
X193642Y57878I2834J-17843D01*
G01*
G75*
G03*
X193428Y57840I3349J-19847D01*
G01*
G75*
G03*
X193211Y57800I3689J-20456D01*
G01*
G75*
G02*
X192793Y58008I-73J380D01*
G01*
G75*
G02*
X192659Y58680I1179J583D01*
G01*
G75*
G02*
X192878Y59580I2712J-184D01*
G01*
G75*
G02*
X193381Y60294I1983J-862D01*
G01*
G75*
G02*
X194358Y60816I1456J-1550D01*
G01*
G75*
G02*
X195859Y60993I1556J-6739D01*
G01*
G75*
G02*
X197358Y60841I57J-6894D01*
G01*
G75*
G02*
X198330Y60335I-430J-2011D01*
G01*
X198986Y52280D02*
G75*
G02*
X198907Y49057I-65700J-6D01*
G01*
G75*
G02*
X198520Y47778I-2761J136D01*
G01*
G75*
G02*
X197660Y47172I-1107J660D01*
G01*
G75*
G02*
X195836Y46996I-1823J9358D01*
G01*
G75*
G02*
X194704Y47021I-4J25661D01*
G01*
G75*
G02*
X194081Y47119I124J2815D01*
G01*
G75*
G02*
X193653Y47328I344J1251D01*
G01*
G75*
G02*
X193260Y47704I1288J1738D01*
G01*
G75*
G02*
X193040Y48039I1565J1267D01*
G01*
G75*
G02*
X192855Y48459I3080J1610D01*
G01*
G75*
G02*
X192728Y48896I3215J1170D01*
G01*
G75*
G02*
X192686Y49280I1746J384D01*
G01*
G75*
G02*
X192717Y49741I3530J-1D01*
G01*
G75*
G02*
X192826Y49985I462J-61D01*
G01*
G75*
G02*
X193042Y50109I287J-248D01*
G01*
G75*
G02*
X193436Y50146I395J-2069D01*
G01*
G75*
G02*
X193777Y50115I-1J-1891D01*
G01*
G75*
G02*
X194007Y50017I-103J-560D01*
G01*
G75*
G02*
X194140Y49848I-225J-313D01*
G01*
G75*
G02*
X194186Y49606I-603J-241D01*
G01*
G75*
G03*
X194300Y49077I1288J0D01*
G01*
G75*
G03*
X194619Y48676I952J430D01*
G01*
G75*
G03*
X195139Y48429I846J1107D01*
G01*
G75*
G03*
X195836Y48346I696J2906D01*
G01*
G75*
G03*
X196738Y48522I1J2393D01*
G01*
G75*
G03*
X197226Y49019I-331J814D01*
G01*
G75*
G03*
X197442Y50073I-3014J1167D01*
G01*
G75*
G03*
X197486Y52606I-72320J2526D01*
G01*
Y56146D01*
X198986D01*
Y52280D01*
X203186Y52368D02*
G75*
G03*
X203201Y50054I185190J9D01*
G01*
G75*
G03*
X203276Y49133I6659J83D01*
G01*
G75*
G03*
X203454Y48671I1143J174D01*
G01*
G75*
G03*
X203786Y48433I476J314D01*
G01*
G75*
G02*
X204043Y48319I-216J-830D01*
G01*
G75*
G02*
X204232Y48133I-385J-581D01*
G01*
G75*
G02*
X204347Y47877I-651J-448D01*
G01*
G75*
G02*
X204386Y47561I-1259J-316D01*
G01*
G75*
G02*
X204315Y47156I-1175J-1D01*
G01*
G75*
G02*
X204107Y46949I-328J120D01*
G01*
G75*
G02*
X203654Y46862I-490J1335D01*
G01*
G75*
G02*
X202436Y46846I-1209J46425D01*
G01*
G75*
G02*
X201199Y46862I0J48583D01*
G01*
G75*
G02*
X200756Y46950I33J1328D01*
G01*
G75*
G02*
X200554Y47164I123J318D01*
G01*
G75*
G02*
X200486Y47596I1344J433D01*
G01*
G75*
G02*
X200519Y47951I1987J-2D01*
G01*
G75*
G02*
X200621Y48178I499J-90D01*
G01*
G75*
G02*
X200806Y48304I298J-239D01*
G01*
G75*
G02*
X201086Y48346I281J-898D01*
G01*
G75*
G03*
X201419Y48503I0J430D01*
G01*
G75*
G03*
X201600Y48909I-648J533D01*
G01*
G75*
G03*
X201673Y49806I-6275J964D01*
G01*
G75*
G03*
X201686Y52246I-227733J2433D01*
G01*
Y56146D01*
X203186D01*
Y52368D01*
X204386Y60196D02*
G75*
G02*
X204355Y59845I-1963J-1D01*
G01*
G75*
G02*
X204253Y59618I-515J94D01*
G01*
G75*
G02*
X204073Y59490I-302J234D01*
G01*
G75*
G02*
X203804Y59446I-268J801D01*
G01*
G75*
G03*
X203516Y59385I0J-708D01*
G01*
G75*
G03*
X203324Y59214I174J-391D01*
G01*
G75*
G03*
X203202Y58890I812J-488D01*
G01*
G75*
G03*
X203130Y58321I6262J-1091D01*
G01*
G75*
G02*
X203056Y57746I-6495J538D01*
G01*
G75*
G02*
X202934Y57424I-897J156D01*
G01*
G75*
G02*
X202737Y57256I-357J220D01*
G01*
G75*
G02*
X202136I-300J728D01*
G01*
G75*
G02*
X201939Y57424I160J387D01*
G01*
G75*
G02*
X201817Y57746I775J478D01*
G01*
G75*
G02*
X201743Y58321I6422J1114D01*
G01*
G75*
G03*
X201670Y58890I-6335J-523D01*
G01*
G75*
G03*
X201549Y59214I-933J-164D01*
G01*
G75*
G03*
X201357Y59385I-367J-220D01*
G01*
G75*
G03*
X201069Y59446I-289J-647D01*
G01*
G75*
G02*
X200800Y59490I-1J844D01*
G01*
G75*
G02*
X200620Y59618I122J362D01*
G01*
G75*
G02*
X200518Y59845I413J321D01*
G01*
G75*
G02*
X200486Y60196I1931J352D01*
G01*
G75*
G02*
X200554Y60628I1411J-1D01*
G01*
G75*
G02*
X200756Y60843I325J-104D01*
G01*
G75*
G02*
X201199Y60930I476J-1240D01*
G01*
G75*
G02*
X202436Y60946I1252J-48567D01*
G01*
G75*
G02*
X203674Y60930I-15J-48599D01*
G01*
G75*
G02*
X204117Y60843I-33J-1328D01*
G01*
G75*
G02*
X204319Y60628I-123J-318D01*
G01*
G75*
G02*
X204386Y60196I-1343J-432D01*
G01*
X212426Y59071D02*
G75*
G02*
X212356Y58002I-30963J1470D01*
G01*
G75*
G02*
X212249Y57517I-1840J151D01*
G01*
G75*
G02*
X212056Y57284I-425J156D01*
G01*
G75*
G02*
X211736Y57196I-319J537D01*
G01*
G75*
G02*
X211435Y57256I-1J783D01*
G01*
G75*
G02*
X211238Y57426I161J387D01*
G01*
G75*
G02*
X211117Y57751I791J481D01*
G01*
G75*
G02*
X211043Y58336I6694J1144D01*
G01*
X210948Y59476D01*
X209393Y59386D01*
G75*
G03*
X208399Y59306I1263J-21809D01*
G01*
G75*
G03*
X208022Y59170I86J-830D01*
G01*
G75*
G03*
X207820Y58891I273J-409D01*
G01*
G75*
G03*
X207686Y58246I5031J-1384D01*
G01*
G75*
G02*
X207584Y57730I-4792J682D01*
G01*
G75*
G02*
X207440Y57421I-898J230D01*
G01*
G75*
G02*
X207231Y57255I-395J283D01*
G01*
G75*
G02*
X206936Y57196I-294J709D01*
G01*
G75*
G02*
X206631Y57261I0J757D01*
G01*
G75*
G02*
X206435Y57440I167J379D01*
G01*
G75*
G02*
X206317Y57792I913J502D01*
G01*
G75*
G02*
X206245Y58455I9235J1339D01*
G01*
G75*
G02*
X206344Y59715I4196J305D01*
G01*
G75*
G02*
X206858Y60460I1204J-281D01*
G01*
G75*
G02*
X207925Y60845I1301J-1934D01*
G01*
G75*
G02*
X209951Y60946I2026J-20152D01*
G01*
X212515D01*
X212426Y59071D01*
X212486Y56146D02*
Y46846D01*
X211736D01*
G75*
G02*
X211303Y46918I-1J1339D01*
G01*
G75*
G02*
X211089Y47130I113J329D01*
G01*
G75*
G02*
X211002Y47596I1387J500D01*
G01*
G75*
G02*
X210986Y48929I58698J1343D01*
G01*
G75*
G03*
X210966Y49739I-15867J4D01*
G01*
G75*
G03*
X210903Y50451I-9585J-489D01*
G01*
G75*
G03*
X210814Y51023I-9977J-1259D01*
G01*
G75*
G03*
X210701Y51187I-242J-45D01*
G01*
G75*
G03*
X210526Y51165I-74J-119D01*
G01*
G75*
G03*
X210052Y50648I9397J-9086D01*
G01*
G75*
G03*
X209497Y49958I8852J-7694D01*
G01*
G75*
G03*
X208892Y49105I18189J-13533D01*
G01*
G75*
G02*
X208081Y47950I-31135J21013D01*
G01*
G75*
G02*
X207527Y47304I-4420J3231D01*
G01*
G75*
G02*
X207072Y46962I-1458J1462D01*
G01*
G75*
G02*
X206627Y46846I-445J801D01*
G01*
G75*
G02*
X206106Y46954I-1J1310D01*
G01*
G75*
G02*
X205957Y47239I102J235D01*
G01*
G75*
G02*
X206189Y47808I1590J-319D01*
G01*
G75*
G02*
X207086Y49133I42060J-27507D01*
G01*
G75*
G03*
X207909Y50343I-43224J30287D01*
G01*
G75*
G03*
X208204Y50930I-2331J1537D01*
G01*
G75*
G03*
X208159Y51214I-280J102D01*
G01*
G75*
G03*
X207889Y51346I-271J-210D01*
G01*
G75*
G02*
X207693Y51392I-1J444D01*
G01*
G75*
G02*
X207416Y51550I1106J2246D01*
G01*
G75*
G02*
X207118Y51775I1696J2566D01*
G01*
G75*
G02*
X206839Y52041I2256J2648D01*
G01*
G75*
G02*
X206518Y52471I1724J1618D01*
G01*
G75*
G02*
X206320Y52943I1697J988D01*
G01*
G75*
G02*
X206217Y53554I3062J831D01*
G01*
G75*
G02*
X206186Y54441I12709J890D01*
G01*
G75*
G02*
X206204Y55494I32154J-2D01*
G01*
G75*
G02*
X206294Y55897I1112J-37D01*
G01*
G75*
G02*
X206504Y56084I306J-132D01*
G01*
G75*
G02*
X206921Y56146I419J-1377D01*
G01*
G75*
G02*
X207333Y56085I-1J-1419D01*
G01*
G75*
G02*
X207555Y55901I-108J-357D01*
G01*
G75*
G02*
X207672Y55511I-948J-498D01*
G01*
G75*
G02*
X207746Y54571I-22348J-2224D01*
G01*
X207836Y52996D01*
X209411Y52906D01*
X210986Y52815D01*
Y54481D01*
G75*
G02*
X211004Y55512I30470J-7D01*
G01*
G75*
G02*
X211095Y55905I1041J-35D01*
G01*
G75*
G02*
X211307Y56087I302J-136D01*
G01*
G75*
G02*
X211736Y56146I429J-1530D01*
G01*
X212486D01*
X220519Y51571D02*
X220436Y46996D01*
X219611Y46901D01*
X218786Y46806D01*
Y51346D01*
X217123D01*
G75*
G02*
X216225Y51378I-5J12684D01*
G01*
G75*
G02*
X215637Y51488I188J2635D01*
G01*
G75*
G02*
X215178Y51707I506J1646D01*
G01*
G75*
G02*
X214347Y52538I1728J2559D01*
G01*
G75*
G02*
X214128Y52997I1427J964D01*
G01*
G75*
G02*
X214018Y53585I2525J776D01*
G01*
G75*
G02*
X213986Y54483I12652J899D01*
G01*
G75*
G02*
X214004Y55504I29682J-4D01*
G01*
G75*
G02*
X214094Y55900I1080J-38D01*
G01*
G75*
G02*
X214303Y56085I305J-134D01*
G01*
G75*
G02*
X214716Y56146I413J-1368D01*
G01*
G75*
G02*
X215215Y56006I0J-957D01*
G01*
G75*
G02*
X215598Y55621I-594J-973D01*
G01*
G75*
G02*
X215752Y55112I-930J-560D01*
G01*
G75*
G02*
X215628Y54632I-837J-39D01*
G01*
G75*
G03*
X215564Y54459I391J-242D01*
G01*
G75*
G03*
X215542Y54191I1935J-294D01*
G01*
G75*
G03*
X215558Y53883I2366J-33D01*
G01*
G75*
G03*
X215614Y53579I2390J282D01*
G01*
G75*
G03*
X215776Y53181I1503J378D01*
G01*
G75*
G03*
X216014Y52967I444J256D01*
G01*
G75*
G03*
X216428Y52869I478J1093D01*
G01*
G75*
G03*
X217292Y52846I862J16248D01*
G01*
X218786D01*
Y54496D01*
G75*
G02*
X218804Y55573I33756J-4D01*
G01*
G75*
G02*
X218903Y55935I804J-26D01*
G01*
G75*
G02*
X219138Y56101I288J-159D01*
G01*
G75*
G02*
X219694Y56146I557J-3407D01*
G01*
X220602D01*
X220519Y51571D01*
X220586Y59196D02*
G75*
G02*
X220575Y58514I-20407J-11D01*
G01*
G75*
G02*
X220540Y57914I-12332J419D01*
G01*
G75*
G02*
X220492Y57419I-16023J1315D01*
G01*
G75*
G02*
X220430Y57289I-216J24D01*
G01*
G75*
G02*
X220324Y57237I-130J131D01*
G01*
G75*
G02*
X220100Y57220I-256J1897D01*
G01*
G75*
G02*
X219825Y57231I-39J2385D01*
G01*
G75*
G02*
X219530Y57274I324J3303D01*
G01*
G75*
G02*
X219145Y57394I333J1742D01*
G01*
G75*
G02*
X218927Y57581I202J457D01*
G01*
G75*
G02*
X218817Y57890I607J390D01*
G01*
G75*
G02*
X218786Y58431I4776J543D01*
G01*
Y59446D01*
X217319D01*
G75*
G03*
X216343Y59393I3J-8955D01*
G01*
G75*
G03*
X215863Y59187I98J-890D01*
G01*
G75*
G03*
X215644Y58779I406J-481D01*
G01*
G75*
G03*
X215631Y58021I3798J-446D01*
G01*
G75*
G02*
X215621Y57673I-1571J-130D01*
G01*
G75*
G02*
X215512Y57476I-313J44D01*
G01*
G75*
G02*
X215280Y57374I-287J338D01*
G01*
G75*
G02*
X214836Y57346I-443J3546D01*
G01*
G75*
G02*
X214346Y57384I0J3193D01*
G01*
G75*
G02*
X214117Y57522I54J348D01*
G01*
G75*
G02*
X214010Y57812I443J328D01*
G01*
G75*
G02*
X213986Y58494I9764J685D01*
G01*
G75*
G02*
X214197Y59698I3543J0D01*
G01*
G75*
G02*
X214805Y60444I1369J-495D01*
G01*
G75*
G02*
X215957Y60837I1450J-2362D01*
G01*
G75*
G02*
X217981Y60946I2025J-18741D01*
G01*
X220586D01*
Y59196D01*
X231386Y56146D02*
Y46846D01*
X228536D01*
G75*
G02*
X226659Y46859I-28J135833D01*
G01*
G75*
G02*
X226052Y46941I36J2569D01*
G01*
G75*
G02*
X225785Y47157I103J398D01*
G01*
G75*
G02*
X225686Y47583I865J426D01*
G01*
G75*
G02*
X225761Y48003I1218J0D01*
G01*
G75*
G02*
X225977Y48226I361J-133D01*
G01*
G75*
G02*
X226448Y48336I580J-1421D01*
G01*
G75*
G02*
X227711Y48407I3368J-48204D01*
G01*
X229736Y48496D01*
X229824Y50671D01*
X229913Y52846D01*
X228100D01*
G75*
G02*
X226961Y52863I-12J39267D01*
G01*
G75*
G02*
X226543Y52952I35J1184D01*
G01*
G75*
G02*
X226350Y53165I128J310D01*
G01*
G75*
G02*
X226286Y53596I1431J432D01*
G01*
G75*
G02*
X226350Y54027I1502J-1D01*
G01*
G75*
G02*
X226541Y54240I320J-96D01*
G01*
G75*
G02*
X226958Y54330I450J-1083D01*
G01*
G75*
G02*
X228086Y54346I1141J-38402D01*
G01*
X229886D01*
Y55246D01*
G75*
G02*
X229916Y55730I4030J-3D01*
G01*
G75*
G02*
X230024Y55981I479J-58D01*
G01*
G75*
G02*
X230239Y56108I286J-238D01*
G01*
G75*
G02*
X230636Y56146I398J-2059D01*
G01*
X231386D01*
Y59178D02*
G75*
G02*
X231364Y58327I-16015J-4D01*
G01*
G75*
G02*
X231285Y57770I-3219J171D01*
G01*
G75*
G02*
X231147Y57419I-1265J293D01*
G01*
G75*
G02*
X230936Y57238I-359J206D01*
G01*
G75*
G02*
X230392Y57133I-563J1466D01*
G01*
G75*
G02*
X230018Y57292I-6J507D01*
G01*
G75*
G02*
X229825Y57713I520J493D01*
G01*
G75*
G02*
X229830Y58405I3183J322D01*
G01*
X229952Y59446D01*
X227819D01*
G75*
G02*
X226450Y59461I-17J62837D01*
G01*
G75*
G02*
X225975Y59548I34J1532D01*
G01*
G75*
G02*
X225760Y59763I116J331D01*
G01*
G75*
G02*
X225686Y60196I1242J434D01*
G01*
G75*
G02*
X225783Y60632I1029J0D01*
G01*
G75*
G02*
X226046Y60852I366J-171D01*
G01*
G75*
G02*
X226647Y60933I635J-2411D01*
G01*
G75*
G02*
X228536Y60946I1899J-138777D01*
G01*
X231386D01*
Y59178D01*
X234386Y59181D02*
G75*
G02*
X234366Y58211I-22628J-8D01*
G01*
G75*
G02*
X234280Y57710I-2019J87D01*
G01*
G75*
G02*
X234104Y57428I-609J185D01*
G01*
G75*
G02*
X233804Y57264I-477J516D01*
G01*
G75*
G02*
X233304Y57224I-363J1389D01*
G01*
G75*
G02*
X233034Y57413I32J333D01*
G01*
G75*
G02*
X232911Y57916I1163J552D01*
G01*
G75*
G02*
X232886Y59196I33541J1290D01*
G01*
G75*
G02*
X232903Y60289I35338J-2D01*
G01*
G75*
G02*
X232994Y60696I1123J-35D01*
G01*
G75*
G02*
X233206Y60885I306J-131D01*
G01*
G75*
G02*
X233636Y60946I431J-1471D01*
G01*
G75*
G02*
X234067Y60884I0J-1526D01*
G01*
G75*
G02*
X234280Y60695I-94J-320D01*
G01*
G75*
G02*
X234370Y60285I-1047J-445D01*
G01*
G75*
G02*
X234386Y59181I-36244J-1095D01*
G01*
X239391Y51571D02*
X239336Y46996D01*
X238511Y46901D01*
X237686Y46806D01*
Y52546D01*
X234350D01*
X234413Y49771D01*
X234476Y46996D01*
X233681Y46901D01*
X232886Y46806D01*
Y56146D01*
X233617D01*
G75*
G02*
X234000Y56102I-1J-1660D01*
G01*
G75*
G02*
X234228Y55961I-99J-416D01*
G01*
G75*
G02*
X234363Y55686I-480J-407D01*
G01*
G75*
G02*
X234443Y55171I-4469J-954D01*
G01*
G75*
G03*
X234544Y54580I3996J385D01*
G01*
G75*
G03*
X234735Y54315I429J107D01*
G01*
G75*
G03*
X235111Y54185I461J723D01*
G01*
G75*
G03*
X236111Y54106I2364J23516D01*
G01*
X237686Y54015D01*
Y55081D01*
G75*
G02*
X237712Y55707I7612J-2D01*
G01*
G75*
G02*
X237823Y55980I491J-41D01*
G01*
G75*
G02*
X238059Y56111I286J-236D01*
G01*
G75*
G02*
X238567Y56146I510J-3698D01*
G01*
X239446D01*
X239391Y51571D01*
X239403Y59146D02*
G75*
G02*
X239402Y58454I-11636J-340D01*
G01*
G75*
G02*
X239356Y57864I-6206J189D01*
G01*
G75*
G02*
X239280Y57410I-5606J705D01*
G01*
G75*
G02*
X239171Y57309I-126J26D01*
G01*
G75*
G02*
X238336Y57247I-960J7294D01*
G01*
G75*
G02*
X237998Y57404I-7J425D01*
G01*
G75*
G02*
X237833Y57814I590J476D01*
G01*
G75*
G02*
X237747Y59071I30520J2715D01*
G01*
X237658Y60946D01*
X238504D01*
G75*
G02*
X239009Y60891I-1J-2334D01*
G01*
G75*
G02*
X239244Y60707I-75J-339D01*
G01*
G75*
G02*
X239352Y60305I-926J-463D01*
G01*
G75*
G02*
X239403Y59146I-39700J-2320D01*
G01*
X244586Y56146D02*
Y46806D01*
X243802Y46901D01*
X243018Y46996D01*
X243046Y51346D01*
G75*
G02*
X243057Y53030I4018981J-25475D01*
G01*
G75*
G02*
X243067Y54485I2193415J-14707D01*
G01*
G75*
G02*
X243077Y55749I6584713J-50635D01*
G01*
G75*
G02*
X243080Y55921I8087J-61D01*
G01*
G75*
G02*
X243133Y56008I102J-3D01*
G01*
G75*
G02*
X243305Y56080I420J-756D01*
G01*
G75*
G02*
X243548Y56130I404J-1359D01*
G01*
G75*
G02*
X243836Y56146I289J-2525D01*
G01*
X244586D01*
X246986Y60196D02*
G75*
G02*
X246941Y59781I-1941J-1D01*
G01*
G75*
G02*
X246793Y59569I-328J72D01*
G01*
G75*
G02*
X246488Y59469I-349J549D01*
G01*
G75*
G02*
X245804Y59446I-678J10245D01*
G01*
G75*
G03*
X245067Y59419I2J-9951D01*
G01*
G75*
G03*
X244770Y59294I37J-503D01*
G01*
G75*
G03*
X244617Y59018I313J-354D01*
G01*
G75*
G03*
X244530Y58321I8252J-1389D01*
G01*
G75*
G02*
X244452Y57696I-7578J628D01*
G01*
G75*
G02*
X244322Y57393I-686J114D01*
G01*
G75*
G02*
X244093Y57245I-317J239D01*
G01*
G75*
G02*
X243688Y57200I-396J1725D01*
G01*
G75*
G02*
X243268Y57242I10J2229D01*
G01*
G75*
G02*
X243073Y57381I56J284D01*
G01*
G75*
G02*
X243000Y57665I470J272D01*
G01*
G75*
G02*
X243036Y58325I10280J-220D01*
G01*
X243132Y59446D01*
X241909D01*
G75*
G02*
X241196Y59469I-2J11489D01*
G01*
G75*
G02*
X240884Y59567I42J677D01*
G01*
G75*
G02*
X240733Y59779I174J284D01*
G01*
G75*
G02*
X240686Y60196I1866J419D01*
G01*
Y60946D01*
X246986D01*
Y60196D01*
X251650Y66210D02*
X252386Y65474D01*
Y54100D01*
G75*
G02*
X252374Y46796I-2135130J-84D01*
G01*
G75*
G02*
X252302Y44162I-55332J195D01*
G01*
G75*
G02*
X252135Y42754I-10588J541D01*
G01*
G75*
G02*
X251765Y41937I-1849J346D01*
G01*
X251143Y41146D01*
X188315D01*
G75*
G02*
X146705Y41157I141J85144496D01*
G01*
G75*
G02*
X133413Y41223I741J1484546D01*
G01*
G75*
G02*
X125877Y41326I8523J901494D01*
G01*
G75*
G02*
X124886Y41746I26J1437D01*
G01*
G75*
G02*
X124526Y42444I916J915D01*
G01*
G75*
G02*
X124369Y43873I11787J2012D01*
G01*
G75*
G02*
X124299Y46573I59272J2898D01*
G01*
G75*
G02*
X124286Y54024I2258834J7545D01*
G01*
Y65703D01*
X125077Y66324D01*
X125867Y66946D01*
X250914D01*
X251650Y66210D01*
X266392Y73244D02*
G75*
G02*
X266666Y73100I-566J-1408D01*
G01*
G75*
G02*
X266948Y72882I-1457J-2184D01*
G01*
G75*
G02*
X267197Y72631I-1717J-1944D01*
G01*
G75*
G02*
X267367Y72383I-1039J-896D01*
G01*
G75*
G02*
X267523Y71788I-1167J-624D01*
G01*
G75*
G02*
X267607Y67519I-849226J-18974D01*
G01*
G75*
G02*
X267669Y61929I-436924J-7565D01*
G01*
G75*
G02*
X267686Y53893I-1798588J-7983D01*
G01*
Y36000D01*
X265933Y34246D01*
X110533D01*
X109609Y35169D01*
X108686Y36093D01*
Y71993D01*
X109609Y72770D01*
X110532Y73546D01*
X188134Y73527D01*
G75*
G02*
X218553Y73501I-6367J-25258733D01*
G01*
G75*
G02*
X243604Y73438I-17001J-11669352D01*
G01*
G75*
G02*
X265821Y73356I-659168J-181851302D01*
G01*
G75*
G02*
X266392Y73244I-6J-1542D01*
G01*
X0Y0D02*
M02*
