G05
M48
INCH,TZ
FMAT,2
T1C000.02400
T2C000.04094
%
T001
X0.97100Y0.85055
X2.57337Y0.31492
X2.78203Y0.44307
X2.86077Y0.69307
X3.06549Y0.60055
T002
X1.66549Y0.07299
X1.66549Y1.07299
X1.76549Y0.07299
X1.76549Y1.07299
X1.86549Y0.07299
X1.86549Y1.07299
X1.96549Y0.07299
X1.96549Y1.07299
X2.06549Y0.07299
X2.06549Y1.07299
X2.16549Y0.07299
X2.16549Y1.07299
X2.26549Y0.07299
X2.26549Y1.07299
X2.36549Y0.07299
X2.36549Y1.07299
X2.46549Y0.07299
X2.46549Y1.07299
X2.56549Y0.07299
X2.56549Y1.07299
X2.66549Y0.07299
X2.66549Y1.07299
X2.76549Y0.07299
X2.76549Y1.07299
X2.86549Y0.07299
X2.86549Y1.07299
X2.96549Y0.07299
X2.96549Y1.07299
X3.06549Y0.07299
X3.06549Y1.07299
X3.16549Y0.07299
X3.16549Y1.07299
X3.26549Y0.07299
X3.26549Y1.07299
X3.36549Y0.07299
X3.36549Y1.07299
X3.46549Y0.07299
X3.46549Y1.07299
M30
