G04 DesignSpark PCB Gerber Version 10.0 Build 5299*
G04 #@! TF.Part,Single*
G04 #@! TF.FileFunction,Legend,Bot*
G04 #@! TF.FilePolarity,Positive*
%FSLAX35Y35*%
%MOIN*%
%ADD13C,0.00100*%
%ADD25C,0.00500*%
G04 #@! TD.AperFunction*
X0Y0D02*
D02*
D13*
X12520Y39218D02*
X11052D01*
X11270Y39495D01*
X11320Y39560D01*
X11363Y39626D01*
X11401Y39691D01*
X11432Y39756D01*
X11455Y39826D01*
X11470Y39895D01*
X11482Y39964D01*
X11486Y40033D01*
Y40602D01*
X11482Y40683D01*
X11470Y40756D01*
X11455Y40829D01*
X11432Y40902D01*
X11401Y40971D01*
X11363Y41037D01*
X11320Y41102D01*
X11270Y41164D01*
X11013Y41463D01*
X10955Y41521D01*
X10882Y41575D01*
X10802Y41621D01*
X10706Y41663D01*
X10606Y41698D01*
X10506Y41725D01*
X10409Y41740D01*
X10313Y41744D01*
X9048D01*
X8964Y41740D01*
X8875Y41725D01*
X8783Y41702D01*
X8691Y41671D01*
X8602Y41633D01*
X8526Y41591D01*
X8460Y41544D01*
X8410Y41498D01*
X8156Y41229D01*
X8106Y41171D01*
X8060Y41102D01*
X8014Y41021D01*
X7976Y40929D01*
X7941Y40837D01*
X7914Y40752D01*
X7899Y40675D01*
X7895Y40602D01*
Y40068D01*
X7902Y39972D01*
X7922Y39868D01*
X7956Y39768D01*
X8002Y39660D01*
X8064Y39553D01*
X8141Y39445D01*
X8226Y39333D01*
X8329Y39218D01*
X8206D01*
X8145Y39214D01*
X8087Y39195D01*
X8033Y39168D01*
X7987Y39126D01*
X7945Y39080D01*
X7918Y39026D01*
X7899Y38968D01*
X7895Y38907D01*
X7899Y38845D01*
X7918Y38787D01*
X7945Y38734D01*
X7987Y38688D01*
X8033Y38645D01*
X8087Y38619D01*
X8145Y38603D01*
X8206Y38595D01*
X12520D01*
X12581Y38603D01*
X12639Y38619D01*
X12693Y38649D01*
X12739Y38688D01*
X12781Y38738D01*
X12808Y38787D01*
X12824Y38845D01*
X12831Y38907D01*
X12824Y38968D01*
X12808Y39026D01*
X12781Y39080D01*
X12739Y39126D01*
X12693Y39168D01*
X12639Y39195D01*
X12581Y39214D01*
X12520Y39218D01*
X10855Y40556D02*
Y40126D01*
X10852Y40052D01*
X10836Y39987D01*
X10817Y39933D01*
X10786Y39887D01*
X10306Y39326D01*
X10252Y39280D01*
X10186Y39245D01*
X10106Y39226D01*
X10017Y39218D01*
X9310D01*
X9237Y39226D01*
X9167Y39249D01*
X9106Y39287D01*
X9052Y39341D01*
X8625Y39841D01*
X8583Y39899D01*
X8548Y39952D01*
X8533Y40010D01*
X8526Y40068D01*
Y40579D01*
X8529Y40629D01*
X8541Y40679D01*
X8564Y40725D01*
X8591Y40764D01*
X8814Y41014D01*
X8856Y41056D01*
X8906Y41091D01*
X8964Y41106D01*
X9025Y41114D01*
X10344D01*
X10417Y41106D01*
X10478Y41091D01*
X10536Y41056D01*
X10578Y41014D01*
X10771Y40787D01*
X10806Y40733D01*
X10832Y40675D01*
X10852Y40618D01*
X10855Y40556D01*
X8206Y43098D02*
X11167D01*
X11228Y43105D01*
X11286Y43120D01*
X11340Y43148D01*
X11386Y43190D01*
X11428Y43236D01*
X11455Y43290D01*
X11470Y43348D01*
X11478Y43409D01*
X11474Y43467D01*
X11463Y43517D01*
X11444Y43563D01*
X11417Y43605D01*
X11386Y43640D01*
X11344Y43670D01*
X11298Y43693D01*
X11240Y43713D01*
X11298Y43778D01*
X11347Y43847D01*
X11390Y43917D01*
X11424Y43986D01*
X11451Y44063D01*
X11470Y44135D01*
X11482Y44213D01*
X11486Y44293D01*
X11482Y44381D01*
X11467Y44470D01*
X11440Y44555D01*
X11405Y44631D01*
X11359Y44709D01*
X11305Y44778D01*
X11240Y44847D01*
X11167Y44908D01*
X11240Y44981D01*
X11305Y45058D01*
X11359Y45139D01*
X11405Y45220D01*
X11440Y45300D01*
X11467Y45385D01*
X11482Y45474D01*
X11486Y45562D01*
X11482Y45631D01*
X11474Y45700D01*
X11455Y45770D01*
X11436Y45831D01*
X11405Y45893D01*
X11370Y45954D01*
X11328Y46008D01*
X11278Y46066D01*
X11224Y46116D01*
X11170Y46158D01*
X11109Y46196D01*
X11044Y46227D01*
X10978Y46254D01*
X10905Y46273D01*
X10832Y46285D01*
X10756Y46293D01*
X8206Y46381D01*
X8145Y46377D01*
X8087Y46358D01*
X8037Y46327D01*
X7987Y46289D01*
X7945Y46239D01*
X7918Y46189D01*
X7899Y46131D01*
X7895Y46070D01*
X7899Y46008D01*
X7918Y45950D01*
X7949Y45896D01*
X7987Y45846D01*
X8037Y45804D01*
X8087Y45777D01*
X8145Y45758D01*
X8206Y45750D01*
X10656Y45677D01*
X10702Y45674D01*
X10744Y45666D01*
X10778Y45658D01*
X10806Y45643D01*
X10828Y45628D01*
X10844Y45604D01*
X10852Y45581D01*
X10855Y45554D01*
X10852Y45524D01*
X10840Y45489D01*
X10824Y45458D01*
X10798Y45424D01*
X10486Y45051D01*
X8206D01*
X8145Y45047D01*
X8091Y45028D01*
X8037Y45001D01*
X7991Y44958D01*
X7952Y44912D01*
X7926Y44858D01*
X7906Y44801D01*
X7902Y44739D01*
X7906Y44678D01*
X7926Y44620D01*
X7952Y44570D01*
X7995Y44520D01*
X8041Y44481D01*
X8095Y44451D01*
X8152Y44435D01*
X8214Y44428D01*
X10694D01*
X10732Y44424D01*
X10767Y44420D01*
X10794Y44409D01*
X10817Y44393D01*
X10832Y44374D01*
X10844Y44351D01*
X10852Y44324D01*
X10855Y44289D01*
X10852Y44259D01*
X10844Y44228D01*
X10828Y44197D01*
X10806Y44170D01*
X10429Y43720D01*
X8206D01*
X8145Y43717D01*
X8087Y43697D01*
X8037Y43670D01*
X7987Y43632D01*
X7945Y43586D01*
X7918Y43532D01*
X7899Y43478D01*
X7895Y43417D01*
X7899Y43355D01*
X7918Y43294D01*
X7945Y43240D01*
X7987Y43194D01*
X8037Y43151D01*
X8087Y43120D01*
X8145Y43105D01*
X8206Y43098D01*
X11044Y50280D02*
X12520D01*
X12581Y50283D01*
X12639Y50303D01*
X12693Y50330D01*
X12739Y50368D01*
X12781Y50414D01*
X12808Y50468D01*
X12824Y50522D01*
X12831Y50583D01*
X12824Y50645D01*
X12808Y50706D01*
X12781Y50760D01*
X12739Y50806D01*
X12693Y50848D01*
X12639Y50879D01*
X12581Y50894D01*
X12520Y50902D01*
X8206D01*
X8145Y50898D01*
X8087Y50879D01*
X8033Y50848D01*
X7987Y50810D01*
X7945Y50760D01*
X7918Y50710D01*
X7899Y50652D01*
X7895Y50591D01*
X7899Y50526D01*
X7918Y50468D01*
X7945Y50414D01*
X7987Y50368D01*
X8033Y50330D01*
X8087Y50303D01*
X8145Y50283D01*
X8206Y50280D01*
X8345D01*
X8241Y50168D01*
X8148Y50057D01*
X8072Y49945D01*
X8006Y49837D01*
X7956Y49733D01*
X7922Y49626D01*
X7902Y49526D01*
X7895Y49426D01*
Y48895D01*
X7899Y48815D01*
X7910Y48734D01*
X7933Y48653D01*
X7964Y48576D01*
X8002Y48496D01*
X8049Y48415D01*
X8106Y48334D01*
X8168Y48253D01*
X8387Y47996D01*
X8437Y47950D01*
X8502Y47907D01*
X8579Y47865D01*
X8675Y47826D01*
X8772Y47792D01*
X8868Y47765D01*
X8960Y47750D01*
X9048Y47746D01*
X10321D01*
X10425Y47750D01*
X10528Y47769D01*
X10628Y47796D01*
X10728Y47834D01*
X10824Y47880D01*
X10905Y47930D01*
X10970Y47984D01*
X11028Y48042D01*
X11248Y48300D01*
X11305Y48369D01*
X11351Y48442D01*
X11394Y48519D01*
X11424Y48599D01*
X11451Y48680D01*
X11470Y48765D01*
X11482Y48853D01*
X11486Y48945D01*
Y49395D01*
X11482Y49487D01*
X11470Y49576D01*
X11447Y49661D01*
X11420Y49745D01*
X11382Y49830D01*
X11340Y49910D01*
X11286Y49987D01*
X11224Y50064D01*
X11044Y50280D01*
X10855Y49372D02*
Y48938D01*
X10848Y48872D01*
X10828Y48807D01*
X10798Y48745D01*
X10756Y48688D01*
X10578Y48488D01*
X10528Y48442D01*
X10475Y48411D01*
X10413Y48392D01*
X10344Y48384D01*
X9018D01*
X8956Y48392D01*
X8894Y48415D01*
X8841Y48453D01*
X8787Y48507D01*
X8610Y48711D01*
X8572Y48761D01*
X8544Y48811D01*
X8529Y48861D01*
X8526Y48915D01*
Y49426D01*
X8533Y49476D01*
X8552Y49533D01*
X8591Y49595D01*
X8641Y49664D01*
X9052Y50156D01*
X9079Y50187D01*
X9110Y50210D01*
X9141Y50233D01*
X9171Y50249D01*
X9241Y50272D01*
X9317Y50280D01*
X9990D01*
X10044D01*
X10098Y50272D01*
X10144Y50260D01*
X10186Y50249D01*
X10229Y50230D01*
X10263Y50206D01*
X10298Y50180D01*
X10325Y50149D01*
X10763Y49641D01*
X10802Y49587D01*
X10832Y49522D01*
X10848Y49453D01*
X10855Y49372D01*
X7902Y59787D02*
Y56950D01*
X10059D01*
X10121Y56954D01*
X10183Y56962D01*
X10244Y56977D01*
X10298Y56996D01*
X10356Y57023D01*
X10406Y57054D01*
X10456Y57093D01*
X10506Y57135D01*
X10548Y57181D01*
X10586Y57231D01*
X10617Y57281D01*
X10644Y57335D01*
X10663Y57392D01*
X10678Y57450D01*
X10686Y57511D01*
X10690Y57573D01*
Y59469D01*
X12209D01*
Y57239D01*
X12213Y57177D01*
X12232Y57115D01*
X12259Y57065D01*
X12301Y57015D01*
X12347Y56977D01*
X12401Y56950D01*
X12459Y56931D01*
X12520Y56927D01*
X12581Y56931D01*
X12639Y56950D01*
X12693Y56977D01*
X12739Y57015D01*
X12781Y57065D01*
X12808Y57115D01*
X12824Y57177D01*
X12831Y57239D01*
Y59469D01*
X12828Y59530D01*
X12820Y59591D01*
X12805Y59653D01*
X12785Y59711D01*
X12758Y59765D01*
X12728Y59815D01*
X12689Y59865D01*
X12647Y59915D01*
X12601Y59957D01*
X12551Y59995D01*
X12501Y60026D01*
X12447Y60053D01*
X12389Y60072D01*
X12331Y60087D01*
X12270Y60095D01*
X12209Y60099D01*
X10690D01*
X10625Y60095D01*
X10563Y60087D01*
X10502Y60072D01*
X10448Y60053D01*
X10390Y60026D01*
X10340Y59995D01*
X10290Y59957D01*
X10244Y59915D01*
X10198Y59865D01*
X10163Y59815D01*
X10133Y59765D01*
X10106Y59711D01*
X10086Y59653D01*
X10071Y59591D01*
X10063Y59530D01*
X10059Y59469D01*
Y57573D01*
X8526D01*
Y59787D01*
X8518Y59849D01*
X8502Y59907D01*
X8476Y59957D01*
X8433Y60007D01*
X8387Y60045D01*
X8333Y60076D01*
X8276Y60095D01*
X8214Y60099D01*
X8152Y60095D01*
X8095Y60076D01*
X8041Y60045D01*
X7995Y60007D01*
X7952Y59957D01*
X7926Y59907D01*
X7906Y59849D01*
X7902Y59787D01*
X8502Y61537D02*
X12235D01*
X12297Y61541D01*
X12355Y61548D01*
X12413Y61564D01*
X12466Y61583D01*
X12516Y61606D01*
X12566Y61637D01*
X12616Y61675D01*
X12662Y61714D01*
X12701Y61760D01*
X12739Y61810D01*
X12770Y61860D01*
X12793Y61910D01*
X12812Y61964D01*
X12828Y62021D01*
X12835Y62079D01*
X12839Y62137D01*
Y64082D01*
X12835Y64144D01*
X12828Y64201D01*
X12812Y64255D01*
X12793Y64309D01*
X12770Y64359D01*
X12739Y64409D01*
X12701Y64455D01*
X12662Y64501D01*
X12616Y64543D01*
X12566Y64578D01*
X12516Y64609D01*
X12466Y64636D01*
X12413Y64655D01*
X12355Y64667D01*
X12297Y64674D01*
X12235Y64678D01*
X8502D01*
X8444Y64674D01*
X8383Y64667D01*
X8326Y64655D01*
X8272Y64636D01*
X8222Y64609D01*
X8172Y64578D01*
X8126Y64543D01*
X8080Y64501D01*
X8037Y64455D01*
X8002Y64409D01*
X7972Y64359D01*
X7945Y64309D01*
X7926Y64251D01*
X7914Y64197D01*
X7906Y64136D01*
X7902Y64078D01*
Y62137D01*
X7906Y62075D01*
X7914Y62017D01*
X7926Y61960D01*
X7945Y61906D01*
X7972Y61852D01*
X8002Y61802D01*
X8037Y61756D01*
X8080Y61710D01*
X8126Y61671D01*
X8172Y61637D01*
X8222Y61606D01*
X8272Y61579D01*
X8326Y61560D01*
X8383Y61548D01*
X8444Y61541D01*
X8502Y61537D01*
X8526Y64063D02*
X12209D01*
Y62160D01*
X8526D01*
Y64063D01*
X7902Y68976D02*
Y66139D01*
X10059D01*
X10121Y66143D01*
X10183Y66150D01*
X10244Y66166D01*
X10298Y66185D01*
X10356Y66212D01*
X10406Y66243D01*
X10456Y66281D01*
X10506Y66324D01*
X10548Y66370D01*
X10586Y66420D01*
X10617Y66470D01*
X10644Y66524D01*
X10663Y66581D01*
X10678Y66639D01*
X10686Y66700D01*
X10690Y66762D01*
Y68657D01*
X12209D01*
Y66428D01*
X12213Y66366D01*
X12232Y66304D01*
X12259Y66254D01*
X12301Y66204D01*
X12347Y66166D01*
X12401Y66139D01*
X12459Y66120D01*
X12520Y66116D01*
X12581Y66120D01*
X12639Y66139D01*
X12693Y66166D01*
X12739Y66204D01*
X12781Y66254D01*
X12808Y66304D01*
X12824Y66366D01*
X12831Y66428D01*
Y68657D01*
X12828Y68719D01*
X12820Y68780D01*
X12805Y68842D01*
X12785Y68900D01*
X12758Y68954D01*
X12728Y69004D01*
X12689Y69053D01*
X12647Y69103D01*
X12601Y69146D01*
X12551Y69184D01*
X12501Y69215D01*
X12447Y69242D01*
X12389Y69261D01*
X12331Y69276D01*
X12270Y69284D01*
X12209Y69288D01*
X10690D01*
X10625Y69284D01*
X10563Y69276D01*
X10502Y69261D01*
X10448Y69242D01*
X10390Y69215D01*
X10340Y69184D01*
X10290Y69146D01*
X10244Y69103D01*
X10198Y69053D01*
X10163Y69004D01*
X10133Y68954D01*
X10106Y68900D01*
X10086Y68842D01*
X10071Y68780D01*
X10063Y68719D01*
X10059Y68657D01*
Y66762D01*
X8526D01*
Y68976D01*
X8518Y69038D01*
X8502Y69096D01*
X8476Y69146D01*
X8433Y69196D01*
X8387Y69234D01*
X8333Y69265D01*
X8276Y69284D01*
X8214Y69288D01*
X8152Y69284D01*
X8095Y69265D01*
X8041Y69234D01*
X7995Y69196D01*
X7952Y69146D01*
X7926Y69096D01*
X7906Y69038D01*
X7902Y68976D01*
X8526Y71033D02*
Y71991D01*
X12209D01*
Y71049D01*
X12213Y70987D01*
X12232Y70930D01*
X12259Y70876D01*
X12301Y70830D01*
X12347Y70787D01*
X12401Y70760D01*
X12459Y70745D01*
X12520Y70737D01*
X12581Y70745D01*
X12639Y70760D01*
X12693Y70787D01*
X12739Y70830D01*
X12781Y70876D01*
X12808Y70930D01*
X12824Y70987D01*
X12831Y71049D01*
Y72613D01*
X8526D01*
Y73240D01*
X9825D01*
X9887Y73248D01*
X9940Y73263D01*
X9994Y73290D01*
X10044Y73333D01*
X10083Y73379D01*
X10113Y73433D01*
X10129Y73490D01*
X10136Y73552D01*
X10129Y73613D01*
X10113Y73671D01*
X10086Y73725D01*
X10044Y73771D01*
X9998Y73813D01*
X9944Y73840D01*
X9887Y73859D01*
X9825Y73863D01*
X8214D01*
X8152Y73859D01*
X8095Y73840D01*
X8041Y73813D01*
X7995Y73771D01*
X7952Y73725D01*
X7926Y73671D01*
X7906Y73613D01*
X7902Y73552D01*
Y71033D01*
X7906Y70972D01*
X7926Y70914D01*
X7956Y70860D01*
X7995Y70814D01*
X8045Y70772D01*
X8099Y70745D01*
X8160Y70730D01*
X8222Y70722D01*
X8283Y70730D01*
X8337Y70745D01*
X8391Y70772D01*
X8437Y70814D01*
X8476Y70860D01*
X8502Y70914D01*
X8518Y70972D01*
X8526Y71033D01*
X8024Y38654D02*
X12699D01*
X7938Y38748D02*
X12787D01*
X7900Y38842D02*
X12823D01*
X7897Y38935D02*
X12828D01*
X7920Y39029D02*
X12807D01*
X7984Y39123D02*
X12742D01*
X8329Y39217D02*
X9324D01*
X10017D02*
X11050D01*
X8246Y39310D02*
X9083D01*
X10287D02*
X11124D01*
X8172Y39404D02*
X8998D01*
X10372D02*
X11198D01*
X8104Y39498D02*
X8919D01*
X10453D02*
X11272D01*
X8042Y39591D02*
X8839D01*
X10533D02*
X11341D01*
X7992Y39685D02*
X8758D01*
X10613D02*
X11398D01*
X7953Y39779D02*
X8678D01*
X10693D02*
X11439D01*
X7921Y39872D02*
X8602D01*
X10774D02*
X11465D01*
X7904Y39966D02*
X8545D01*
X10829D02*
X11482D01*
X7896Y40060D02*
X8527D01*
X10852D02*
X11486D01*
X7895Y40154D02*
X8526D01*
X10855D02*
X11486D01*
X7895Y40247D02*
X8526D01*
X10855D02*
X11486D01*
X7895Y40341D02*
X8526D01*
X10855D02*
X11486D01*
X7895Y40435D02*
X8526D01*
X10855D02*
X11486D01*
X7895Y40528D02*
X8526D01*
X10855D02*
X11486D01*
X7896Y40622D02*
X8529D01*
X10850D02*
X11485D01*
X7907Y40716D02*
X8559D01*
X10813D02*
X11477D01*
X7932Y40809D02*
X8631D01*
X10752D02*
X11459D01*
X7966Y40903D02*
X8715D01*
X10672D02*
X11431D01*
X8004Y40997D02*
X8799D01*
X10593D02*
X11386D01*
X8054Y41091D02*
X8906D01*
X10478D02*
X11328D01*
X8118Y41184D02*
X11253D01*
X8202Y41278D02*
X11172D01*
X8291Y41372D02*
X11092D01*
X8380Y41465D02*
X11011D01*
X8481Y41559D02*
X10904D01*
X8648Y41653D02*
X10730D01*
X8037Y43152D02*
X11344D01*
X7942Y43246D02*
X11433D01*
X7904Y43339D02*
X11468D01*
X7896Y43433D02*
X11477D01*
X7916Y43527D02*
X11458D01*
X7976Y43620D02*
X11403D01*
X8138Y43714D02*
X11241D01*
X10502Y43808D02*
X11319D01*
X10580Y43902D02*
X11381D01*
X10659Y43995D02*
X11428D01*
X10737Y44089D02*
X11458D01*
X10816Y44183D02*
X11478D01*
X10854Y44276D02*
X11485D01*
X10834Y44370D02*
X11482D01*
X8072Y44464D02*
X11468D01*
X7963Y44557D02*
X11439D01*
X7915Y44651D02*
X11393D01*
X7903Y44745D02*
X11331D01*
X7919Y44839D02*
X11248D01*
X7969Y44932D02*
X11191D01*
X8091Y45026D02*
X11278D01*
X10544Y45120D02*
X11346D01*
X10622Y45213D02*
X11402D01*
X10700Y45307D02*
X11442D01*
X10779Y45401D02*
X11469D01*
X10842Y45494D02*
X11483D01*
X10849Y45588D02*
X11484D01*
X10498Y45682D02*
X11476D01*
X8087Y45776D02*
X11453D01*
X7970Y45869D02*
X11417D01*
X7914Y45963D02*
X11364D01*
X7896Y46057D02*
X11286D01*
X7905Y46150D02*
X11180D01*
X7950Y46244D02*
X11002D01*
X8054Y46338D02*
X9453D01*
X8649Y47837D02*
X10734D01*
X8466Y47931D02*
X10906D01*
X8363Y48024D02*
X11011D01*
X8283Y48118D02*
X11093D01*
X8203Y48212D02*
X11173D01*
X8128Y48306D02*
X11253D01*
X8060Y48399D02*
X8936D01*
X10437D02*
X11324D01*
X8004Y48493D02*
X8801D01*
X10583D02*
X11380D01*
X7960Y48587D02*
X8718D01*
X10666D02*
X11420D01*
X7926Y48680D02*
X8637D01*
X10749D02*
X11451D01*
X7905Y48774D02*
X8565D01*
X10812D02*
X11472D01*
X7896Y48868D02*
X8529D01*
X10846D02*
X11483D01*
X7895Y48961D02*
X8526D01*
X10855D02*
X11486D01*
X7895Y49055D02*
X8526D01*
X10855D02*
X11486D01*
X7895Y49149D02*
X8526D01*
X10855D02*
X11486D01*
X7895Y49243D02*
X8526D01*
X10855D02*
X11486D01*
X7895Y49336D02*
X8526D01*
X10855D02*
X11486D01*
X7895Y49430D02*
X8526D01*
X10850D02*
X11484D01*
X7902Y49524D02*
X8549D01*
X10832D02*
X11477D01*
X7920Y49617D02*
X8607D01*
X10780D02*
X11459D01*
X7949Y49711D02*
X8680D01*
X10703D02*
X11431D01*
X7991Y49805D02*
X8758D01*
X10622D02*
X11393D01*
X8043Y49898D02*
X8836D01*
X10541D02*
X11346D01*
X8104Y49992D02*
X8915D01*
X10460D02*
X11282D01*
X8172Y50086D02*
X8993D01*
X10379D02*
X11206D01*
X8252Y50180D02*
X9072D01*
X10298D02*
X11128D01*
X8339Y50273D02*
X9256D01*
X10098D02*
X11049D01*
X7987Y50367D02*
X12738D01*
X7922Y50461D02*
X12805D01*
X7897Y50554D02*
X12828D01*
X7898Y50648D02*
X12823D01*
X7935Y50742D02*
X12791D01*
X8018Y50835D02*
X12707D01*
X12500Y56926D02*
X12520D01*
X7902Y57020D02*
X10348D01*
X12297D02*
X12743D01*
X7902Y57113D02*
X10480D01*
X12233D02*
X12807D01*
X7902Y57207D02*
X10568D01*
X12211D02*
X12828D01*
X7902Y57301D02*
X10627D01*
X12209D02*
X12831D01*
X7902Y57394D02*
X10664D01*
X12209D02*
X12831D01*
X7902Y57488D02*
X10683D01*
X12209D02*
X12831D01*
X7902Y57582D02*
X8526D01*
X10059D02*
X10690D01*
X12209D02*
X12831D01*
X7902Y57676D02*
X8526D01*
X10059D02*
X10690D01*
X12209D02*
X12831D01*
X7902Y57769D02*
X8526D01*
X10059D02*
X10690D01*
X12209D02*
X12831D01*
X7902Y57863D02*
X8526D01*
X10059D02*
X10690D01*
X12209D02*
X12831D01*
X7902Y57957D02*
X8526D01*
X10059D02*
X10690D01*
X12209D02*
X12831D01*
X7902Y58050D02*
X8526D01*
X10059D02*
X10690D01*
X12209D02*
X12831D01*
X7902Y58144D02*
X8526D01*
X10059D02*
X10690D01*
X12209D02*
X12831D01*
X7902Y58238D02*
X8526D01*
X10059D02*
X10690D01*
X12209D02*
X12831D01*
X7902Y58331D02*
X8526D01*
X10059D02*
X10690D01*
X12209D02*
X12831D01*
X7902Y58425D02*
X8526D01*
X10059D02*
X10690D01*
X12209D02*
X12831D01*
X7902Y58519D02*
X8526D01*
X10059D02*
X10690D01*
X12209D02*
X12831D01*
X7902Y58613D02*
X8526D01*
X10059D02*
X10690D01*
X12209D02*
X12831D01*
X7902Y58706D02*
X8526D01*
X10059D02*
X10690D01*
X12209D02*
X12831D01*
X7902Y58800D02*
X8526D01*
X10059D02*
X10690D01*
X12209D02*
X12831D01*
X7902Y58894D02*
X8526D01*
X10059D02*
X10690D01*
X12209D02*
X12831D01*
X7902Y58987D02*
X8526D01*
X10059D02*
X10690D01*
X12209D02*
X12831D01*
X7902Y59081D02*
X8526D01*
X10059D02*
X10690D01*
X12209D02*
X12831D01*
X7902Y59175D02*
X8526D01*
X10059D02*
X10690D01*
X12209D02*
X12831D01*
X7902Y59269D02*
X8526D01*
X10059D02*
X10690D01*
X12209D02*
X12831D01*
X7902Y59362D02*
X8526D01*
X10059D02*
X10690D01*
X12209D02*
X12831D01*
X7902Y59456D02*
X8526D01*
X10059D02*
X10690D01*
X12209D02*
X12831D01*
X7902Y59550D02*
X8526D01*
X10066D02*
X12825D01*
X7902Y59643D02*
X8526D01*
X10084D02*
X12807D01*
X7902Y59737D02*
X8526D01*
X10119D02*
X12772D01*
X7905Y59831D02*
X8520D01*
X10174D02*
X12715D01*
X7935Y59924D02*
X8493D01*
X10255D02*
X12636D01*
X8009Y60018D02*
X8419D01*
X10377D02*
X12514D01*
X8213Y61611D02*
X12524D01*
X8086Y61705D02*
X12652D01*
X8005Y61798D02*
X12731D01*
X7952Y61892D02*
X12785D01*
X7920Y61986D02*
X12818D01*
X7906Y62080D02*
X12835D01*
X7902Y62173D02*
X8526D01*
X12209D02*
X12839D01*
X7902Y62267D02*
X8526D01*
X12209D02*
X12839D01*
X7902Y62361D02*
X8526D01*
X12209D02*
X12839D01*
X7902Y62454D02*
X8526D01*
X12209D02*
X12839D01*
X7902Y62548D02*
X8526D01*
X12209D02*
X12839D01*
X7902Y62642D02*
X8526D01*
X12209D02*
X12839D01*
X7902Y62735D02*
X8526D01*
X12209D02*
X12839D01*
X7902Y62829D02*
X8526D01*
X12209D02*
X12839D01*
X7902Y62923D02*
X8526D01*
X12209D02*
X12839D01*
X7902Y63017D02*
X8526D01*
X12209D02*
X12839D01*
X7902Y63110D02*
X8526D01*
X12209D02*
X12839D01*
X7902Y63204D02*
X8526D01*
X12209D02*
X12839D01*
X7902Y63298D02*
X8526D01*
X12209D02*
X12839D01*
X7902Y63391D02*
X8526D01*
X12209D02*
X12839D01*
X7902Y63485D02*
X8526D01*
X12209D02*
X12839D01*
X7902Y63579D02*
X8526D01*
X12209D02*
X12839D01*
X7902Y63672D02*
X8526D01*
X12209D02*
X12839D01*
X7902Y63766D02*
X8526D01*
X12209D02*
X12839D01*
X7902Y63860D02*
X8526D01*
X12209D02*
X12839D01*
X7902Y63954D02*
X8526D01*
X12209D02*
X12839D01*
X7902Y64047D02*
X8526D01*
X12209D02*
X12839D01*
X7907Y64141D02*
X12835D01*
X7922Y64235D02*
X12818D01*
X7955Y64328D02*
X12784D01*
X8012Y64422D02*
X12728D01*
X8095Y64516D02*
X12646D01*
X8222Y64609D02*
X12515D01*
X7902Y66202D02*
X10335D01*
X12303D02*
X12737D01*
X7902Y66296D02*
X10473D01*
X12236D02*
X12804D01*
X7902Y66390D02*
X10563D01*
X12211D02*
X12827D01*
X7902Y66483D02*
X10624D01*
X12209D02*
X12831D01*
X7902Y66577D02*
X10662D01*
X12209D02*
X12831D01*
X7902Y66671D02*
X10682D01*
X12209D02*
X12831D01*
X7902Y66765D02*
X8526D01*
X10059D02*
X10690D01*
X12209D02*
X12831D01*
X7902Y66858D02*
X8526D01*
X10059D02*
X10690D01*
X12209D02*
X12831D01*
X7902Y66952D02*
X8526D01*
X10059D02*
X10690D01*
X12209D02*
X12831D01*
X7902Y67046D02*
X8526D01*
X10059D02*
X10690D01*
X12209D02*
X12831D01*
X7902Y67139D02*
X8526D01*
X10059D02*
X10690D01*
X12209D02*
X12831D01*
X7902Y67233D02*
X8526D01*
X10059D02*
X10690D01*
X12209D02*
X12831D01*
X7902Y67327D02*
X8526D01*
X10059D02*
X10690D01*
X12209D02*
X12831D01*
X7902Y67420D02*
X8526D01*
X10059D02*
X10690D01*
X12209D02*
X12831D01*
X7902Y67514D02*
X8526D01*
X10059D02*
X10690D01*
X12209D02*
X12831D01*
X7902Y67608D02*
X8526D01*
X10059D02*
X10690D01*
X12209D02*
X12831D01*
X7902Y67702D02*
X8526D01*
X10059D02*
X10690D01*
X12209D02*
X12831D01*
X7902Y67795D02*
X8526D01*
X10059D02*
X10690D01*
X12209D02*
X12831D01*
X7902Y67889D02*
X8526D01*
X10059D02*
X10690D01*
X12209D02*
X12831D01*
X7902Y67983D02*
X8526D01*
X10059D02*
X10690D01*
X12209D02*
X12831D01*
X7902Y68076D02*
X8526D01*
X10059D02*
X10690D01*
X12209D02*
X12831D01*
X7902Y68170D02*
X8526D01*
X10059D02*
X10690D01*
X12209D02*
X12831D01*
X7902Y68264D02*
X8526D01*
X10059D02*
X10690D01*
X12209D02*
X12831D01*
X7902Y68357D02*
X8526D01*
X10059D02*
X10690D01*
X12209D02*
X12831D01*
X7902Y68451D02*
X8526D01*
X10059D02*
X10690D01*
X12209D02*
X12831D01*
X7902Y68545D02*
X8526D01*
X10059D02*
X10690D01*
X12209D02*
X12831D01*
X7902Y68639D02*
X8526D01*
X10059D02*
X10690D01*
X12209D02*
X12831D01*
X7902Y68732D02*
X8526D01*
X10065D02*
X12826D01*
X7902Y68826D02*
X8526D01*
X10082D02*
X12809D01*
X7902Y68920D02*
X8526D01*
X10116D02*
X12775D01*
X7905Y69013D02*
X8521D01*
X10170D02*
X12720D01*
X7932Y69107D02*
X8496D01*
X10248D02*
X12643D01*
X8001Y69201D02*
X8427D01*
X10367D02*
X12524D01*
X8019Y70794D02*
X8415D01*
X12340D02*
X12700D01*
X7941Y70887D02*
X8489D01*
X12253D02*
X12787D01*
X7906Y70981D02*
X8519D01*
X12215D02*
X12822D01*
X7902Y71075D02*
X8526D01*
X12209D02*
X12831D01*
X7902Y71169D02*
X8526D01*
X12209D02*
X12831D01*
X7902Y71262D02*
X8526D01*
X12209D02*
X12831D01*
X7902Y71356D02*
X8526D01*
X12209D02*
X12831D01*
X7902Y71450D02*
X8526D01*
X12209D02*
X12831D01*
X7902Y71543D02*
X8526D01*
X12209D02*
X12831D01*
X7902Y71637D02*
X8526D01*
X12209D02*
X12831D01*
X7902Y71731D02*
X8526D01*
X12209D02*
X12831D01*
X7902Y71824D02*
X8526D01*
X12209D02*
X12831D01*
X7902Y71918D02*
X8526D01*
X12209D02*
X12831D01*
X7902Y72012D02*
X12831D01*
X7902Y72106D02*
X12831D01*
X7902Y72199D02*
X12831D01*
X7902Y72293D02*
X12831D01*
X7902Y72387D02*
X12831D01*
X7902Y72480D02*
X12831D01*
X7902Y72574D02*
X12831D01*
X7902Y72668D02*
X8526D01*
X7902Y72761D02*
X8526D01*
X7902Y72855D02*
X8526D01*
X7902Y72949D02*
X8526D01*
X7902Y73043D02*
X8526D01*
X7902Y73136D02*
X8526D01*
X7902Y73230D02*
X8526D01*
X7902Y73324D02*
X10033D01*
X7902Y73417D02*
X10105D01*
X7902Y73511D02*
X10131D01*
X7906Y73605D02*
X10130D01*
X7939Y73698D02*
X10100D01*
X8018Y73792D02*
X10021D01*
D02*
D25*
X111943Y75902D02*
G75*
G03*
X111869Y75514I1046J-402D01*
G01*
G75*
G03*
X111815Y70467I4590223J-51935D01*
G01*
G75*
G03*
X111774Y64754I909165J-9248D01*
G01*
G75*
G03*
X111761Y58063I1711433J-6769D01*
G01*
G75*
G03*
X111772Y46890I5518787J53D01*
G01*
G75*
G03*
X111840Y43015I125939J263D01*
G01*
G75*
G03*
X111971Y40945I34076J1118D01*
G01*
G75*
G03*
X112341Y40387I704J66D01*
G01*
G75*
G03*
X113341Y40136I1002J1872D01*
G01*
G75*
G03*
X189722Y40071I1899175J843531001D01*
G01*
G75*
G03*
X265941Y40010I1203575J843531066D01*
G01*
G75*
G03*
X267287Y40259I3J3747D01*
G01*
G75*
G03*
X267570Y40632I-159J415D01*
G01*
G75*
G03*
X267682Y42311I-32564J3020D01*
G01*
G75*
G03*
X267748Y45215I-78653J3233D01*
G01*
G75*
G03*
X267761Y51809I-1594237J6533D01*
G01*
Y63177D01*
X263261D01*
Y72777D01*
X267761D01*
Y74377D01*
G75*
G03*
X267746Y75004I-13522J0D01*
G01*
G75*
G03*
X267702Y75566I-8763J-406D01*
G01*
G75*
G03*
X267640Y76023I-9112J-1014D01*
G01*
G75*
G03*
X267363Y76259I-278J-45D01*
G01*
G75*
G03*
X244620Y76318I-1691898J-651547725D01*
G01*
G75*
G03*
X219520Y76363I-40561J-15803535D01*
G01*
G75*
G03*
X189743Y76377I-30063J-31019277D01*
G01*
G75*
G03*
X143516Y76365I948J-88287387D01*
G01*
G75*
G03*
X124468Y76301I1896J-3432081D01*
G01*
G75*
G03*
X112400Y76219I51460J-8432104D01*
G01*
G75*
G03*
X111943Y75902I4J-493D01*
G01*
X126943Y69602D02*
G75*
G03*
X126869Y69223I1041J-400D01*
G01*
G75*
G03*
X126815Y66017I1249682J-22933D01*
G01*
G75*
G03*
X126774Y62339I382470J-6015D01*
G01*
G75*
G03*
X126761Y58063I695938J-4317D01*
G01*
G75*
G03*
X126773Y51037I2053993J55D01*
G01*
G75*
G03*
X126842Y48500I53398J181D01*
G01*
G75*
G03*
X126989Y47177I11205J574D01*
G01*
G75*
G03*
X127341Y46687I676J116D01*
G01*
G75*
G03*
X128339Y46437I1000J1869D01*
G01*
G75*
G03*
X189722Y46371I966823J843524700D01*
G01*
G75*
G03*
X250946Y46311I716357J701571000D01*
G01*
G75*
G03*
X252287Y46559I4J3732D01*
G01*
G75*
G03*
X252570Y46933I-159J415D01*
G01*
G75*
G03*
X252682Y48627I-33338J3059D01*
G01*
G75*
G03*
X252748Y51555I-79985J3261D01*
G01*
G75*
G03*
X252761Y58209I-1622396J6591D01*
G01*
G75*
G03*
X252747Y62620I-675761J34D01*
G01*
G75*
G03*
X252702Y66367I-353691J-2326D01*
G01*
G75*
G03*
X252643Y69685I-2088943J-35772D01*
G01*
G75*
G03*
X252561Y69877I-279J-6D01*
G01*
G75*
G03*
X252363Y69959I-199J-198D01*
G01*
G75*
G03*
X234026Y70018I-1129519J-350218543D01*
G01*
G75*
G03*
X213768Y70063I-32687J-10271773D01*
G01*
G75*
G03*
X189743Y70077I-24286J-20242597D01*
G01*
G75*
G03*
X152490Y70065I369J-56169695D01*
G01*
G75*
G03*
X137097Y70001I1521J-2238529D01*
G01*
G75*
G03*
X127396Y69917I33283J-4411085D01*
G01*
G75*
G03*
X126943Y69602I5J-491D01*
G01*
X133604Y63506D02*
X134202Y61735D01*
X133474Y61596D01*
G75*
G02*
X132943Y61569I-368J1925D01*
G01*
G75*
G02*
X132630Y61736I37J446D01*
G01*
G75*
G02*
X132370Y62196I1301J1036D01*
G01*
G75*
G02*
X131863Y63621I65792J24236D01*
G01*
X131294Y65277D01*
X132150D01*
G75*
G02*
X132645Y65206I-1J-1763D01*
G01*
G75*
G02*
X132965Y64994I-183J-624D01*
G01*
G75*
G02*
X133229Y64542I-1277J-1049D01*
G01*
G75*
G02*
X133604Y63506I-23682J-9158D01*
G01*
X136944Y57928D02*
G75*
G03*
X136528Y56609I24006J-8314D01*
G01*
G75*
G03*
X136259Y55478I12230J-3507D01*
G01*
G75*
G03*
X136111Y54408I10580J-2009D01*
G01*
G75*
G03*
X136061Y53278I12911J-1133D01*
G01*
G75*
G02*
X136046Y51931I-60164J-4D01*
G01*
G75*
G02*
X135959Y51462I-1495J33D01*
G01*
G75*
G02*
X135744Y51250I-329J117D01*
G01*
G75*
G02*
X135311Y51177I-433J1259D01*
G01*
G75*
G02*
X134878Y51253I0J1281D01*
G01*
G75*
G02*
X134662Y51472I120J334D01*
G01*
G75*
G02*
X134576Y51958I1524J520D01*
G01*
G75*
G02*
X134561Y53374I68289J1430D01*
G01*
G75*
G03*
X134517Y54508I-14638J3D01*
G01*
G75*
G03*
X134385Y55574I-11742J-912D01*
G01*
G75*
G03*
X134154Y56641I-12036J-2053D01*
G01*
G75*
G03*
X133811Y57777I-16487J-4354D01*
G01*
G75*
G02*
X133203Y59610I120250J40902D01*
G01*
G75*
G02*
X133121Y60167I1625J525D01*
G01*
G75*
G02*
X133314Y60399I241J-4D01*
G01*
G75*
G02*
X133861Y60422I345J-1689D01*
G01*
G75*
G02*
X134266Y60319I-191J-1601D01*
G01*
G75*
G02*
X134566Y60123I-328J-829D01*
G01*
G75*
G02*
X134801Y59794I-859J-863D01*
G01*
G75*
G02*
X135013Y59277I-3822J-1871D01*
G01*
X135365Y58227D01*
X135736Y59352D01*
G75*
G02*
X135970Y59956I6183J-2041D01*
G01*
G75*
G02*
X136197Y60272I868J-386D01*
G01*
G75*
G02*
X136500Y60427I439J-481D01*
G01*
G75*
G02*
X136968Y60477I470J-2183D01*
G01*
X137828D01*
X136944Y57928D01*
X139361Y65180D02*
G75*
G02*
X139292Y64773I-1226J-1D01*
G01*
G75*
G02*
X138822Y63474I-79702J28070D01*
G01*
G75*
G02*
X138330Y62175I-84592J31345D01*
G01*
G75*
G02*
X138126Y61846I-984J382D01*
G01*
G75*
G02*
X137759Y61596I-712J649D01*
G01*
G75*
G02*
X137248Y61480I-660J1715D01*
G01*
G75*
G02*
X136816Y61522I-98J1210D01*
G01*
G75*
G02*
X136661Y61728I59J205D01*
G01*
G75*
G02*
X136686Y61943I942J-2D01*
G01*
G75*
G02*
X136809Y62443I21504J-5030D01*
G01*
G75*
G02*
X136973Y63037I20586J-5342D01*
G01*
G75*
G02*
X137166Y63676I28068J-8148D01*
G01*
G75*
G02*
X137483Y64598I18145J-5716D01*
G01*
G75*
G02*
X137726Y65015I1321J-493D01*
G01*
G75*
G02*
X138034Y65212I471J-397D01*
G01*
G75*
G02*
X138516Y65277I483J-1752D01*
G01*
G75*
G02*
X138840Y65270I-3J-7558D01*
G01*
G75*
G02*
X139113Y65248I-169J-3859D01*
G01*
G75*
G02*
X139329Y65219I-511J-4537D01*
G01*
G75*
G02*
X139361Y65180I-7J-38D01*
G01*
X145593Y65076D02*
G75*
G02*
X146166Y64565I-424J-1054D01*
G01*
G75*
G02*
X146654Y63426I-5826J-3171D01*
G01*
G75*
G02*
X146917Y62243I-6259J-2012D01*
G01*
G75*
G02*
X146704Y61620I-742J-94D01*
G01*
G75*
G02*
X146599Y61567I-131J131D01*
G01*
G75*
G02*
X146380Y61550I-257J1821D01*
G01*
G75*
G02*
X146110Y61560I-44J2300D01*
G01*
G75*
G02*
X145821Y61602I304J3161D01*
G01*
G75*
G02*
X145464Y61719I276J1436D01*
G01*
G75*
G02*
X145229Y61911I277J579D01*
G01*
G75*
G02*
X145084Y62214I671J508D01*
G01*
G75*
G02*
X145003Y62684I3119J780D01*
G01*
G75*
G03*
X144905Y63242I-3664J-356D01*
G01*
G75*
G03*
X144722Y63504I-443J-113D01*
G01*
G75*
G03*
X144368Y63638I-448J-650D01*
G01*
G75*
G03*
X143505Y63718I-1879J-15666D01*
G01*
X142099Y63808D01*
X142005Y62668D01*
G75*
G02*
X141908Y61956I-6666J549D01*
G01*
G75*
G02*
X141724Y61671I-448J86D01*
G01*
G75*
G02*
X141379Y61569I-320J448D01*
G01*
G75*
G02*
X140561Y61639I497J10609D01*
G01*
G75*
G02*
X140277Y61929I41J324D01*
G01*
G75*
G02*
X140280Y62783I3885J417D01*
G01*
G75*
G02*
X140492Y63756I4848J-548D01*
G01*
G75*
G02*
X140883Y64487I2264J-743D01*
G01*
G75*
G02*
X141298Y64918I2374J-1866D01*
G01*
G75*
G02*
X141707Y65143I753J-884D01*
G01*
G75*
G02*
X142281Y65241I654J-2111D01*
G01*
G75*
G02*
X143358Y65253I788J-22039D01*
G01*
G75*
G02*
X144096Y65233I-313J-25066D01*
G01*
G75*
G02*
X144779Y65191I-791J-18558D01*
G01*
G75*
G02*
X145348Y65137I-1468J-18540D01*
G01*
G75*
G02*
X145593Y65076I-102J-920D01*
G01*
X146861Y60477D02*
Y51137D01*
X146036Y51232D01*
G75*
G02*
X145551Y51359I202J1756D01*
G01*
G75*
G02*
X145310Y51605I174J413D01*
G01*
G75*
G02*
X145196Y52104I1498J603D01*
G01*
G75*
G02*
X145123Y53502I58859J3784D01*
G01*
X145035Y55677D01*
X142087D01*
X141999Y53502D01*
G75*
G02*
X141926Y52104I-58932J2386D01*
G01*
G75*
G02*
X141813Y51605I-1611J104D01*
G01*
G75*
G02*
X141571Y51359I-416J167D01*
G01*
G75*
G02*
X141086Y51232I-687J1628D01*
G01*
X140261Y51137D01*
Y60477D01*
X141161D01*
G75*
G02*
X141711Y60431I0J-3336D01*
G01*
G75*
G02*
X141945Y60265I-54J-324D01*
G01*
G75*
G02*
X142044Y59902I-713J-389D01*
G01*
G75*
G02*
X142061Y58827I-33572J-1066D01*
G01*
Y57177D01*
X145061D01*
Y58827D01*
G75*
G02*
X145078Y59902I33590J-4D01*
G01*
G75*
G02*
X145177Y60265I812J-26D01*
G01*
G75*
G02*
X145411Y60431I289J-157D01*
G01*
G75*
G02*
X145961Y60477I550J-3288D01*
G01*
X146861D01*
X152984Y63410D02*
G75*
G02*
X152950Y62254I-39959J592D01*
G01*
G75*
G02*
X152856Y61815I-1333J58D01*
G01*
G75*
G02*
X152644Y61613I-329J132D01*
G01*
G75*
G02*
X152234Y61543I-412J1176D01*
G01*
G75*
G02*
X151826Y61613I-2J1204D01*
G01*
G75*
G02*
X151606Y61820I129J358D01*
G01*
G75*
G02*
X151494Y62266I1277J556D01*
G01*
G75*
G02*
X151422Y63409I37295J2925D01*
G01*
G75*
G02*
X151377Y64647I52526J2524D01*
G01*
G75*
G02*
X151449Y65043I997J24D01*
G01*
G75*
G02*
X151664Y65224I277J-111D01*
G01*
G75*
G02*
X152172Y65277I508J-2403D01*
G01*
G75*
G02*
X152676Y65222I0J-2337D01*
G01*
G75*
G02*
X152900Y65038I-69J-311D01*
G01*
G75*
G02*
X152987Y64634I-954J-416D01*
G01*
G75*
G02*
X152984Y63410I-48550J-518D01*
G01*
X153011Y60476D02*
X152952Y51327D01*
X150507Y51240D01*
G75*
G02*
X148882Y51195I-3629J101941D01*
G01*
G75*
G02*
X148368Y51259I-35J1798D01*
G01*
G75*
G02*
X148140Y51469I90J326D01*
G01*
G75*
G02*
X148061Y51915I1215J446D01*
G01*
G75*
G02*
X148119Y52353I1705J-1D01*
G01*
G75*
G02*
X148298Y52567I318J-85D01*
G01*
G75*
G02*
X148686Y52659I422J-913D01*
G01*
G75*
G02*
X149711Y52677I1031J-29972D01*
G01*
X151361D01*
Y60477D01*
X152186Y60476D01*
X153011Y60476D01*
X160961Y60477D02*
Y51137D01*
X160136Y51232D01*
G75*
G02*
X159651Y51359I202J1756D01*
G01*
G75*
G02*
X159410Y51605I174J413D01*
G01*
G75*
G02*
X159296Y52104I1498J603D01*
G01*
G75*
G02*
X159223Y53502I58859J3784D01*
G01*
X159135Y55677D01*
X157531D01*
G75*
G02*
X156058Y55816I-1J7876D01*
G01*
G75*
G02*
X155174Y56270I330J1730D01*
G01*
G75*
G02*
X154666Y57136I1251J1316D01*
G01*
G75*
G02*
X154422Y58632I8261J2111D01*
G01*
X154289Y60477D01*
X155225D01*
G75*
G02*
X155805Y60434I-1J-3916D01*
G01*
G75*
G02*
X156044Y60270I-49J-328D01*
G01*
G75*
G02*
X156144Y59912I-673J-382D01*
G01*
G75*
G02*
X156161Y58827I-34298J-1078D01*
G01*
Y57177D01*
X159161D01*
Y58827D01*
G75*
G02*
X159178Y59902I33590J-4D01*
G01*
G75*
G02*
X159277Y60265I812J-26D01*
G01*
G75*
G02*
X159511Y60431I289J-157D01*
G01*
G75*
G02*
X160061Y60477I550J-3288D01*
G01*
X160961D01*
Y63502D02*
G75*
G02*
X160913Y62333I-14186J-3D01*
G01*
G75*
G02*
X160716Y61772I-1173J97D01*
G01*
G75*
G02*
X160334Y61551I-417J281D01*
G01*
G75*
G02*
X159686Y61611I-142J2014D01*
G01*
G75*
G02*
X159449Y61735I148J569D01*
G01*
G75*
G02*
X159285Y61954I420J485D01*
G01*
G75*
G02*
X159191Y62289I1043J475D01*
G01*
G75*
G02*
X159161Y62762I3809J475D01*
G01*
Y63777D01*
X156161D01*
Y62762D01*
G75*
G02*
X156130Y62214I-4853J-2D01*
G01*
G75*
G02*
X156018Y61907I-691J79D01*
G01*
G75*
G02*
X155793Y61721I-421J280D01*
G01*
G75*
G02*
X155387Y61599I-787J1881D01*
G01*
G75*
G02*
X154819Y61602I-278J1454D01*
G01*
G75*
G02*
X154487Y61850I94J471D01*
G01*
G75*
G02*
X154374Y62386I906J472D01*
G01*
G75*
G02*
X154490Y63320I7651J-480D01*
G01*
G75*
G02*
X154860Y64291I2870J-539D01*
G01*
G75*
G02*
X155509Y64885I1336J-806D01*
G01*
G75*
G02*
X156604Y65192I1377J-2808D01*
G01*
G75*
G02*
X158478Y65277I1878J-20684D01*
G01*
X160961D01*
Y63502D01*
X168043Y64523D02*
G75*
G02*
X168407Y64097I-2561J-2563D01*
G01*
G75*
G02*
X168619Y63696I-1278J-933D01*
G01*
G75*
G02*
X168711Y63247I-1533J-547D01*
G01*
G75*
G02*
X168704Y62671I-3975J-239D01*
G01*
G75*
G02*
X168628Y62097I-5962J502D01*
G01*
G75*
G02*
X168498Y61778I-834J154D01*
G01*
G75*
G02*
X168281Y61604I-387J259D01*
G01*
G75*
G02*
X167936Y61525I-429J1085D01*
G01*
G75*
G02*
X167608Y61536I-112J1569D01*
G01*
G75*
G02*
X167406Y61632I52J369D01*
G01*
G75*
G02*
X167296Y61826I252J272D01*
G01*
G75*
G02*
X167261Y62153I1530J328D01*
G01*
G75*
G03*
X167188Y62997I-4900J0D01*
G01*
G75*
G03*
X166940Y63465I-845J-148D01*
G01*
G75*
G03*
X166458Y63707I-625J-644D01*
G01*
G75*
G03*
X165585Y63777I-874J-5411D01*
G01*
G75*
G03*
X164843Y63751I6J-10751D01*
G01*
G75*
G03*
X164465Y63648I68J-997D01*
G01*
G75*
G03*
X164241Y63430I232J-463D01*
G01*
G75*
G03*
X164084Y63027I1540J-830D01*
G01*
G75*
G02*
X163956Y62680I-1669J419D01*
G01*
G75*
G02*
X163774Y62450I-634J315D01*
G01*
G75*
G02*
X163520Y62320I-417J504D01*
G01*
G75*
G02*
X163179Y62277I-341J1321D01*
G01*
G75*
G02*
X162706Y62393I0J1020D01*
G01*
G75*
G02*
X162485Y62701I195J372D01*
G01*
G75*
G02*
X162538Y63235I1053J165D01*
G01*
G75*
G02*
X162900Y64056I6816J-2516D01*
G01*
G75*
G02*
X163333Y64693I2883J-1491D01*
G01*
G75*
G02*
X163831Y65054I1025J-890D01*
G01*
G75*
G02*
X164555Y65229I901J-2141D01*
G01*
G75*
G02*
X165799Y65277I1249J-16218D01*
G01*
G75*
G02*
X166589Y65242I-3J-8888D01*
G01*
G75*
G02*
X167141Y65126I-213J-2394D01*
G01*
G75*
G02*
X167591Y64900I-570J-1696D01*
G01*
G75*
G02*
X168043Y64523I-1880J-2707D01*
G01*
X168467Y59888D02*
G75*
G02*
X168256Y59600I-1115J598D01*
G01*
G75*
G02*
X167828Y59192I-6156J6024D01*
G01*
G75*
G02*
X167299Y58753I-6610J7424D01*
G01*
G75*
G02*
X166732Y58343I-6515J8424D01*
G01*
G75*
G03*
X165130Y57212I24529J-36428D01*
G01*
G75*
G03*
X164406Y56506I2218J-2998D01*
G01*
G75*
G03*
X164071Y55792I1411J-1098D01*
G01*
G75*
G03*
X163961Y54785I4574J-1008D01*
G01*
G75*
G03*
X164041Y53741I6915J2D01*
G01*
G75*
G03*
X164309Y53120I1319J201D01*
G01*
G75*
G03*
X164807Y52787I757J593D01*
G01*
G75*
G03*
X165611Y52677I804J2877D01*
G01*
G75*
G03*
X166309Y52759I1J2990D01*
G01*
G75*
G03*
X166829Y53007I-326J1355D01*
G01*
G75*
G03*
X167148Y53408I-633J830D01*
G01*
G75*
G03*
X167261Y53937I-1174J528D01*
G01*
G75*
G02*
X167308Y54179I649J0D01*
G01*
G75*
G02*
X167441Y54348I357J-144D01*
G01*
G75*
G02*
X167670Y54446I333J-462D01*
G01*
G75*
G02*
X168011Y54477I341J-1858D01*
G01*
G75*
G02*
X168386Y54443I-2J-2087D01*
G01*
G75*
G02*
X168607Y54331I-78J-429D01*
G01*
G75*
G02*
X168725Y54120I-278J-293D01*
G01*
G75*
G02*
X168761Y53767I-1685J-351D01*
G01*
G75*
G02*
X168416Y52624I-2067J0D01*
G01*
G75*
G02*
X167467Y51728I-2402J1594D01*
G01*
G75*
G02*
X166093Y51259I-1850J3173D01*
G01*
G75*
G02*
X164571Y51325I-573J4383D01*
G01*
G75*
G02*
X163558Y51713I782J3559D01*
G01*
G75*
G02*
X162914Y52338I873J1543D01*
G01*
G75*
G02*
X162567Y53315I2213J1338D01*
G01*
G75*
G02*
X162461Y54815I10627J1501D01*
G01*
G75*
G02*
X162558Y56266I10886J0D01*
G01*
G75*
G02*
X162891Y57146I2067J-279D01*
G01*
G75*
G02*
X163646Y57970I3043J-2032D01*
G01*
G75*
G02*
X165539Y59425I37149J-46370D01*
G01*
G75*
G02*
X166732Y60154I4779J-6483D01*
G01*
G75*
G02*
X167832Y60505I1696J-3410D01*
G01*
G75*
G02*
X168383Y60347I106J-670D01*
G01*
G75*
G02*
X168467Y59888I-245J-282D01*
G01*
X172961Y56577D02*
G75*
G03*
X172977Y54450I144581J7D01*
G01*
G75*
G03*
X173045Y53402I10490J156D01*
G01*
G75*
G03*
X173174Y52844I2516J290D01*
G01*
G75*
G03*
X173411Y52677I237J84D01*
G01*
G75*
G02*
X173598Y52623I0J-351D01*
G01*
G75*
G02*
X173742Y52474I-234J-371D01*
G01*
G75*
G02*
X173832Y52233I-636J-374D01*
G01*
G75*
G02*
X173861Y51913I-1744J-320D01*
G01*
G75*
G02*
X173800Y51467I-1669J0D01*
G01*
G75*
G02*
X173611Y51262I-292J81D01*
G01*
G75*
G02*
X173197Y51195I-388J1077D01*
G01*
G75*
G02*
X171986Y51238I1143J49353D01*
G01*
G75*
G02*
X170892Y51309I1456J30626D01*
G01*
G75*
G02*
X170402Y51422I146J1757D01*
G01*
G75*
G02*
X170148Y51634I187J482D01*
G01*
G75*
G02*
X170015Y52002I820J503D01*
G01*
G75*
G02*
X170000Y52331I1759J249D01*
G01*
G75*
G02*
X170073Y52532I352J-15D01*
G01*
G75*
G02*
X170244Y52642I243J-188D01*
G01*
G75*
G02*
X170541Y52677I297J-1240D01*
G01*
G75*
G03*
X170886Y52830I0J466D01*
G01*
G75*
G03*
X171074Y53223I-567J513D01*
G01*
G75*
G03*
X171148Y54102I-5912J941D01*
G01*
G75*
G03*
X171161Y56577I-239107J2455D01*
G01*
Y60477D01*
X172961D01*
Y56577D01*
X173861Y64527D02*
G75*
G02*
X173832Y64221I-1615J-1D01*
G01*
G75*
G02*
X173743Y63982I-757J146D01*
G01*
G75*
G02*
X173604Y63831I-404J232D01*
G01*
G75*
G02*
X173429Y63777I-175J254D01*
G01*
G75*
G03*
X173238Y63702I0J-281D01*
G01*
G75*
G03*
X173084Y63491I463J-499D01*
G01*
G75*
G03*
X172971Y63141I1343J-627D01*
G01*
G75*
G03*
X172904Y62652I4602J-875D01*
G01*
G75*
G02*
X172807Y61952I-6376J526D01*
G01*
G75*
G02*
X172624Y61669I-443J87D01*
G01*
G75*
G02*
X172278Y61569I-319J455D01*
G01*
G75*
G02*
X171461Y61639I504J10668D01*
G01*
G75*
G02*
X171345Y61720I19J150D01*
G01*
G75*
G02*
X171249Y61964I1191J610D01*
G01*
G75*
G02*
X171183Y62300I1985J565D01*
G01*
G75*
G02*
X171161Y62692I3500J393D01*
G01*
G75*
G03*
X171131Y63191I-4129J3D01*
G01*
G75*
G03*
X171030Y63520I-974J-119D01*
G01*
G75*
G03*
X170846Y63732I-521J-267D01*
G01*
G75*
G03*
X170561Y63864I-508J-724D01*
G01*
G75*
G02*
X170319Y63972I207J792D01*
G01*
G75*
G02*
X170127Y64151I431J654D01*
G01*
G75*
G02*
X170004Y64384I628J481D01*
G01*
G75*
G02*
X169961Y64649I806J265D01*
G01*
G75*
G02*
X170045Y64989I734J0D01*
G01*
G75*
G02*
X170269Y65178I343J-179D01*
G01*
G75*
G02*
X170749Y65260I529J-1645D01*
G01*
G75*
G02*
X171911Y65277I1172J-40529D01*
G01*
G75*
G02*
X173148Y65261I-15J-48599D01*
G01*
G75*
G02*
X173591Y65173I-33J-1328D01*
G01*
G75*
G02*
X173793Y64959I-123J-318D01*
G01*
G75*
G02*
X173861Y64527I-1343J-432D01*
G01*
X181894Y55902D02*
X181811Y51327D01*
X179476Y51239D01*
G75*
G02*
X178017Y51208I-1702J45587D01*
G01*
G75*
G02*
X177343Y51288I-16J2728D01*
G01*
G75*
G02*
X176847Y51524I334J1343D01*
G01*
G75*
G02*
X176251Y52041I3336J4452D01*
G01*
X175361Y52931D01*
Y60477D01*
X177143D01*
X177227Y56652D01*
X177311Y52827D01*
X178736Y52735D01*
X180161Y52644D01*
Y60477D01*
X181977D01*
X181894Y55902D01*
X181961Y63477D02*
G75*
G02*
X181939Y62784I-11081J0D01*
G01*
G75*
G02*
X181873Y62195I-5967J371D01*
G01*
G75*
G02*
X181779Y61743I-5203J848D01*
G01*
G75*
G02*
X181661Y61639I-135J35D01*
G01*
G75*
G02*
X180844Y61569I-1320J10593D01*
G01*
G75*
G02*
X180499Y61669I-27J555D01*
G01*
G75*
G02*
X180315Y61952I259J370D01*
G01*
G75*
G02*
X180218Y62652I6280J1226D01*
G01*
X180125Y63777D01*
X177161D01*
Y62752D01*
G75*
G02*
X177091Y62085I-3221J0D01*
G01*
G75*
G02*
X176867Y61696I-707J149D01*
G01*
G75*
G02*
X176475Y61542I-404J452D01*
G01*
G75*
G02*
X175886Y61611I-48J2158D01*
G01*
G75*
G02*
X175485Y61978I146J563D01*
G01*
G75*
G02*
X175364Y62748I1952J701D01*
G01*
G75*
G02*
X175539Y63678I3113J-104D01*
G01*
G75*
G02*
X175983Y64487I2665J-938D01*
G01*
G75*
G02*
X176434Y64936I2087J-1642D01*
G01*
G75*
G02*
X176903Y65163I754J-963D01*
G01*
G75*
G02*
X177629Y65257I809J-3381D01*
G01*
G75*
G02*
X179283Y65277I1661J-68672D01*
G01*
X181961D01*
Y63477D01*
X192700Y63402D02*
G75*
G02*
X192615Y62141I-31299J1486D01*
G01*
G75*
G02*
X192450Y61735I-741J65D01*
G01*
G75*
G02*
X192113Y61579I-330J269D01*
G01*
G75*
G02*
X191263Y61639I136J7893D01*
G01*
G75*
G02*
X191157Y61724I17J130D01*
G01*
G75*
G02*
X191092Y61974I1170J437D01*
G01*
G75*
G02*
X191069Y62322I2036J308D01*
G01*
G75*
G02*
X191099Y62727I3784J-76D01*
G01*
X191234Y63777D01*
X189148D01*
G75*
G02*
X187812Y63792I-7J59016D01*
G01*
G75*
G02*
X187345Y63879I33J1479D01*
G01*
G75*
G02*
X187133Y64094I118J328D01*
G01*
G75*
G02*
X187061Y64527I1267J434D01*
G01*
G75*
G02*
X187158Y64963I1025J0D01*
G01*
G75*
G02*
X187423Y65182I367J-173D01*
G01*
G75*
G02*
X188026Y65264I637J-2432D01*
G01*
G75*
G02*
X189926Y65277I1912J-140640D01*
G01*
X192790D01*
X192700Y63402D01*
X192761Y60517D02*
Y51154D01*
X189986Y51241D01*
G75*
G02*
X188281Y51309I2893J92744D01*
G01*
G75*
G02*
X187609Y51412I163J3310D01*
G01*
G75*
G02*
X187281Y51620I161J617D01*
G01*
G75*
G02*
X187117Y51988I562J471D01*
G01*
G75*
G02*
X187147Y52357I830J119D01*
G01*
G75*
G02*
X187341Y52563I311J-98D01*
G01*
G75*
G02*
X187811Y52668I580J-1503D01*
G01*
G75*
G02*
X189063Y52738I3452J-50443D01*
G01*
X191102Y52827D01*
X191111Y57027D01*
X189386Y57117D01*
G75*
G02*
X188346Y57190I1526J29236D01*
G01*
G75*
G02*
X187925Y57304I110J1244D01*
G01*
G75*
G02*
X187728Y57523I160J342D01*
G01*
G75*
G02*
Y58331I1181J404D01*
G01*
G75*
G02*
X187925Y58550I357J-122D01*
G01*
G75*
G02*
X188345Y58664I530J-1125D01*
G01*
G75*
G02*
X189382Y58737I2554J-28933D01*
G01*
G75*
G03*
X190431Y58811I-1566J29849D01*
G01*
G75*
G03*
X190846Y58926I-104J1180D01*
G01*
G75*
G03*
X191040Y59151I-164J337D01*
G01*
G75*
G03*
X191107Y59577I-1389J435D01*
G01*
G75*
G02*
X191149Y59957I1813J-11D01*
G01*
G75*
G02*
X191278Y60194I478J-106D01*
G01*
G75*
G02*
X191521Y60339I397J-389D01*
G01*
G75*
G02*
X191936Y60422I707J-2457D01*
G01*
X192761Y60517D01*
X199905Y64665D02*
G75*
G02*
X200198Y64322I-1365J-1465D01*
G01*
G75*
G02*
X200403Y63926I-1569J-1061D01*
G01*
G75*
G02*
X200522Y63463I-2089J-783D01*
G01*
G75*
G02*
X200561Y62915I-3778J-547D01*
G01*
G75*
G02*
X200531Y62060I-12033J-2D01*
G01*
G75*
G02*
X200398Y61679I-774J55D01*
G01*
G75*
G02*
X200135Y61535I-272J185D01*
G01*
G75*
G02*
X199661Y61590I-42J1705D01*
G01*
G75*
G02*
X199410Y61716I171J655D01*
G01*
G75*
G02*
X199214Y61939I523J656D01*
G01*
G75*
G02*
X199078Y62262I1054J635D01*
G01*
G75*
G02*
X199003Y62683I2597J681D01*
G01*
G75*
G03*
X198905Y63254I-3955J-384D01*
G01*
G75*
G03*
X198722Y63500I-385J-96D01*
G01*
G75*
G03*
X198365Y63606I-390J-657D01*
G01*
G75*
G03*
X197411Y63627I-961J-22132D01*
G01*
G75*
G03*
X196552Y63606I2J-17450D01*
G01*
G75*
G03*
X196147Y63513I59J-1187D01*
G01*
G75*
G03*
X195931Y63314I169J-399D01*
G01*
G75*
G03*
X195815Y62952I1001J-521D01*
G01*
G75*
G02*
X195764Y62692I-2399J340D01*
G01*
G75*
G02*
X195688Y62469I-1472J377D01*
G01*
G75*
G02*
X195600Y62306I-968J417D01*
G01*
G75*
G02*
X195515Y62254I-98J65D01*
G01*
G75*
G03*
X195404Y62239I275J-2469D01*
G01*
G75*
G03*
X195217Y62208I2834J-17843D01*
G01*
G75*
G03*
X195002Y62171I3349J-19847D01*
G01*
G75*
G03*
X194786Y62131I3689J-20456D01*
G01*
G75*
G02*
X194367Y62339I-73J380D01*
G01*
G75*
G02*
X194234Y63011I1179J583D01*
G01*
G75*
G02*
X194453Y63911I2712J-184D01*
G01*
G75*
G02*
X194956Y64625I1983J-862D01*
G01*
G75*
G02*
X195933Y65147I1456J-1550D01*
G01*
G75*
G02*
X197433Y65324I1556J-6739D01*
G01*
G75*
G02*
X198933Y65172I57J-6894D01*
G01*
G75*
G02*
X199905Y64665I-430J-2011D01*
G01*
X200561Y56610D02*
G75*
G02*
X200482Y53388I-65700J-6D01*
G01*
G75*
G02*
X200095Y52108I-2761J136D01*
G01*
G75*
G02*
X199235Y51503I-1107J660D01*
G01*
G75*
G02*
X197411Y51327I-1823J9358D01*
G01*
G75*
G02*
X196279Y51352I-4J25661D01*
G01*
G75*
G02*
X195656Y51450I124J2815D01*
G01*
G75*
G02*
X195228Y51659I344J1251D01*
G01*
G75*
G02*
X194835Y52035I1288J1738D01*
G01*
G75*
G02*
X194615Y52370I1565J1267D01*
G01*
G75*
G02*
X194430Y52790I3080J1610D01*
G01*
G75*
G02*
X194303Y53227I3215J1170D01*
G01*
G75*
G02*
X194261Y53610I1746J384D01*
G01*
G75*
G02*
X194291Y54071I3530J-1D01*
G01*
G75*
G02*
X194401Y54315I462J-61D01*
G01*
G75*
G02*
X194617Y54440I287J-248D01*
G01*
G75*
G02*
X195011Y54477I395J-2069D01*
G01*
G75*
G02*
X195352Y54446I-1J-1891D01*
G01*
G75*
G02*
X195582Y54348I-103J-560D01*
G01*
G75*
G02*
X195715Y54179I-225J-313D01*
G01*
G75*
G02*
X195761Y53937I-603J-241D01*
G01*
G75*
G03*
X195875Y53408I1288J0D01*
G01*
G75*
G03*
X196193Y53007I952J430D01*
G01*
G75*
G03*
X196714Y52759I846J1107D01*
G01*
G75*
G03*
X197411Y52677I696J2906D01*
G01*
G75*
G03*
X198313Y52853I1J2393D01*
G01*
G75*
G03*
X198801Y53350I-331J814D01*
G01*
G75*
G03*
X199017Y54404I-3014J1167D01*
G01*
G75*
G03*
X199061Y56937I-72320J2526D01*
G01*
Y60477D01*
X200561D01*
Y56610D01*
X204761Y56699D02*
G75*
G03*
X204776Y54385I185190J9D01*
G01*
G75*
G03*
X204851Y53464I6659J83D01*
G01*
G75*
G03*
X205029Y53002I1143J174D01*
G01*
G75*
G03*
X205361Y52764I476J314D01*
G01*
G75*
G02*
X205617Y52650I-216J-830D01*
G01*
G75*
G02*
X205807Y52463I-385J-581D01*
G01*
G75*
G02*
X205922Y52208I-651J-448D01*
G01*
G75*
G02*
X205961Y51892I-1259J-316D01*
G01*
G75*
G02*
X205889Y51487I-1175J-1D01*
G01*
G75*
G02*
X205681Y51280I-328J120D01*
G01*
G75*
G02*
X205229Y51193I-490J1335D01*
G01*
G75*
G02*
X204011Y51177I-1209J46425D01*
G01*
G75*
G02*
X202774Y51193I0J48583D01*
G01*
G75*
G02*
X202331Y51281I33J1328D01*
G01*
G75*
G02*
X202129Y51495I123J318D01*
G01*
G75*
G02*
X202061Y51927I1344J433D01*
G01*
G75*
G02*
X202093Y52282I1987J-2D01*
G01*
G75*
G02*
X202196Y52508I499J-90D01*
G01*
G75*
G02*
X202381Y52634I298J-239D01*
G01*
G75*
G02*
X202661Y52677I281J-898D01*
G01*
G75*
G03*
X202993Y52834I0J430D01*
G01*
G75*
G03*
X203175Y53239I-648J533D01*
G01*
G75*
G03*
X203248Y54137I-6275J964D01*
G01*
G75*
G03*
X203261Y56577I-227733J2433D01*
G01*
Y60477D01*
X204761D01*
Y56699D01*
X205961Y64527D02*
G75*
G02*
X205930Y64176I-1963J-1D01*
G01*
G75*
G02*
X205828Y63949I-515J94D01*
G01*
G75*
G02*
X205648Y63821I-302J234D01*
G01*
G75*
G02*
X205379Y63777I-268J801D01*
G01*
G75*
G03*
X205091Y63716I0J-708D01*
G01*
G75*
G03*
X204898Y63545I174J-391D01*
G01*
G75*
G03*
X204777Y63220I812J-488D01*
G01*
G75*
G03*
X204704Y62652I6262J-1091D01*
G01*
G75*
G02*
X204631Y62076I-6495J538D01*
G01*
G75*
G02*
X204509Y61754I-897J156D01*
G01*
G75*
G02*
X204312Y61587I-357J220D01*
G01*
G75*
G02*
X203711I-300J728D01*
G01*
G75*
G02*
X203514Y61754I160J387D01*
G01*
G75*
G02*
X203392Y62076I775J478D01*
G01*
G75*
G02*
X203318Y62652I6422J1114D01*
G01*
G75*
G03*
X203245Y63220I-6335J-523D01*
G01*
G75*
G03*
X203124Y63545I-933J-164D01*
G01*
G75*
G03*
X202931Y63716I-367J-220D01*
G01*
G75*
G03*
X202643Y63777I-289J-647D01*
G01*
G75*
G02*
X202374Y63821I-1J844D01*
G01*
G75*
G02*
X202194Y63949I122J362D01*
G01*
G75*
G02*
X202093Y64176I413J321D01*
G01*
G75*
G02*
X202061Y64527I1931J352D01*
G01*
G75*
G02*
X202129Y64959I1411J-1D01*
G01*
G75*
G02*
X202331Y65173I325J-104D01*
G01*
G75*
G02*
X202774Y65261I476J-1240D01*
G01*
G75*
G02*
X204011Y65277I1252J-48567D01*
G01*
G75*
G02*
X205248Y65261I-15J-48599D01*
G01*
G75*
G02*
X205691Y65173I-33J-1328D01*
G01*
G75*
G02*
X205893Y64959I-123J-318D01*
G01*
G75*
G02*
X205961Y64527I-1343J-432D01*
G01*
X214000Y63402D02*
G75*
G02*
X213931Y62333I-30963J1470D01*
G01*
G75*
G02*
X213824Y61848I-1840J151D01*
G01*
G75*
G02*
X213630Y61615I-425J156D01*
G01*
G75*
G02*
X213311Y61527I-319J537D01*
G01*
G75*
G02*
X213010Y61587I-1J783D01*
G01*
G75*
G02*
X212813Y61756I161J387D01*
G01*
G75*
G02*
X212691Y62082I791J481D01*
G01*
G75*
G02*
X212617Y62667I6694J1144D01*
G01*
X212523Y63807D01*
X210967Y63717D01*
G75*
G03*
X209974Y63637I1263J-21809D01*
G01*
G75*
G03*
X209596Y63500I86J-830D01*
G01*
G75*
G03*
X209395Y63222I273J-409D01*
G01*
G75*
G03*
X209261Y62577I5031J-1384D01*
G01*
G75*
G02*
X209159Y62061I-4792J682D01*
G01*
G75*
G02*
X209015Y61752I-898J230D01*
G01*
G75*
G02*
X208806Y61586I-395J283D01*
G01*
G75*
G02*
X208511Y61527I-294J709D01*
G01*
G75*
G02*
X208206Y61591I0J757D01*
G01*
G75*
G02*
X208010Y61771I167J379D01*
G01*
G75*
G02*
X207892Y62123I913J502D01*
G01*
G75*
G02*
X207820Y62785I9235J1339D01*
G01*
G75*
G02*
X207919Y64045I4196J305D01*
G01*
G75*
G02*
X208433Y64791I1204J-281D01*
G01*
G75*
G02*
X209500Y65176I1301J-1934D01*
G01*
G75*
G02*
X211526Y65277I2026J-20152D01*
G01*
X214090D01*
X214000Y63402D01*
X214061Y60477D02*
Y51177D01*
X213311D01*
G75*
G02*
X212878Y51249I-1J1339D01*
G01*
G75*
G02*
X212663Y51460I113J329D01*
G01*
G75*
G02*
X212576Y51926I1387J500D01*
G01*
G75*
G02*
X212561Y53259I58698J1343D01*
G01*
G75*
G03*
X212541Y54070I-15867J4D01*
G01*
G75*
G03*
X212478Y54781I-9585J-489D01*
G01*
G75*
G03*
X212389Y55354I-9977J-1259D01*
G01*
G75*
G03*
X212276Y55518I-242J-45D01*
G01*
G75*
G03*
X212101Y55496I-74J-119D01*
G01*
G75*
G03*
X211627Y54979I9397J-9086D01*
G01*
G75*
G03*
X211072Y54289I8852J-7694D01*
G01*
G75*
G03*
X210467Y53435I18189J-13533D01*
G01*
G75*
G02*
X209656Y52281I-31135J21013D01*
G01*
G75*
G02*
X209102Y51635I-4420J3231D01*
G01*
G75*
G02*
X208647Y51293I-1458J1462D01*
G01*
G75*
G02*
X208202Y51177I-445J801D01*
G01*
G75*
G02*
X207681Y51285I-1J1310D01*
G01*
G75*
G02*
X207531Y51570I102J235D01*
G01*
G75*
G02*
X207764Y52139I1590J-319D01*
G01*
G75*
G02*
X208661Y53463I42060J-27507D01*
G01*
G75*
G03*
X209484Y54674I-43224J30287D01*
G01*
G75*
G03*
X209779Y55260I-2331J1537D01*
G01*
G75*
G03*
X209734Y55544I-280J102D01*
G01*
G75*
G03*
X209463Y55677I-271J-210D01*
G01*
G75*
G02*
X209267Y55722I-1J444D01*
G01*
G75*
G02*
X208991Y55881I1106J2246D01*
G01*
G75*
G02*
X208693Y56106I1696J2566D01*
G01*
G75*
G02*
X208413Y56371I2256J2648D01*
G01*
G75*
G02*
X208093Y56802I1724J1618D01*
G01*
G75*
G02*
X207895Y57274I1697J988D01*
G01*
G75*
G02*
X207792Y57885I3062J831D01*
G01*
G75*
G02*
X207761Y58771I12709J890D01*
G01*
G75*
G02*
X207778Y59824I32154J-2D01*
G01*
G75*
G02*
X207869Y60228I1112J-37D01*
G01*
G75*
G02*
X208078Y60415I306J-132D01*
G01*
G75*
G02*
X208496Y60477I419J-1377D01*
G01*
G75*
G02*
X208907Y60416I-1J-1419D01*
G01*
G75*
G02*
X209130Y60232I-108J-357D01*
G01*
G75*
G02*
X209247Y59841I-948J-498D01*
G01*
G75*
G02*
X209320Y58902I-22348J-2224D01*
G01*
X209411Y57327D01*
X210986Y57236D01*
X212561Y57146D01*
Y58811D01*
G75*
G02*
X212579Y59843I30470J-7D01*
G01*
G75*
G02*
X212670Y60235I1041J-35D01*
G01*
G75*
G02*
X212882Y60418I302J-136D01*
G01*
G75*
G02*
X213311Y60477I429J-1530D01*
G01*
X214061D01*
X222094Y55902D02*
X222011Y51327D01*
X221186Y51232D01*
X220361Y51137D01*
Y55677D01*
X218698D01*
G75*
G02*
X217800Y55709I-5J12684D01*
G01*
G75*
G02*
X217212Y55819I188J2635D01*
G01*
G75*
G02*
X216753Y56038I506J1646D01*
G01*
G75*
G02*
X215922Y56869I1728J2559D01*
G01*
G75*
G02*
X215703Y57328I1427J964D01*
G01*
G75*
G02*
X215593Y57915I2525J776D01*
G01*
G75*
G02*
X215561Y58813I12652J899D01*
G01*
G75*
G02*
X215579Y59834I29682J-4D01*
G01*
G75*
G02*
X215669Y60231I1080J-38D01*
G01*
G75*
G02*
X215878Y60416I305J-134D01*
G01*
G75*
G02*
X216291Y60477I413J-1368D01*
G01*
G75*
G02*
X216790Y60337I0J-957D01*
G01*
G75*
G02*
X217172Y59952I-594J-973D01*
G01*
G75*
G02*
X217327Y59443I-930J-560D01*
G01*
G75*
G02*
X217202Y58963I-837J-39D01*
G01*
G75*
G03*
X217139Y58790I391J-242D01*
G01*
G75*
G03*
X217117Y58522I1935J-294D01*
G01*
G75*
G03*
X217133Y58214I2366J-33D01*
G01*
G75*
G03*
X217189Y57910I2390J282D01*
G01*
G75*
G03*
X217350Y57511I1503J378D01*
G01*
G75*
G03*
X217589Y57298I444J256D01*
G01*
G75*
G03*
X218003Y57200I478J1093D01*
G01*
G75*
G03*
X218867Y57177I862J16248D01*
G01*
X220361D01*
Y58827D01*
G75*
G02*
X220378Y59904I33756J-4D01*
G01*
G75*
G02*
X220478Y60266I804J-26D01*
G01*
G75*
G02*
X220713Y60432I288J-159D01*
G01*
G75*
G02*
X221269Y60477I557J-3407D01*
G01*
X222177D01*
X222094Y55902D01*
X222161Y63527D02*
G75*
G02*
X222150Y62845I-20407J-11D01*
G01*
G75*
G02*
X222115Y62245I-12332J419D01*
G01*
G75*
G02*
X222067Y61749I-16023J1315D01*
G01*
G75*
G02*
X222004Y61620I-216J24D01*
G01*
G75*
G02*
X221898Y61568I-130J131D01*
G01*
G75*
G02*
X221675Y61551I-256J1897D01*
G01*
G75*
G02*
X221400Y61562I-39J2385D01*
G01*
G75*
G02*
X221104Y61605I324J3303D01*
G01*
G75*
G02*
X220720Y61725I333J1742D01*
G01*
G75*
G02*
X220502Y61912I202J457D01*
G01*
G75*
G02*
X220392Y62220I607J390D01*
G01*
G75*
G02*
X220361Y62762I4776J543D01*
G01*
Y63777D01*
X218893D01*
G75*
G03*
X217918Y63724I3J-8955D01*
G01*
G75*
G03*
X217438Y63518I98J-890D01*
G01*
G75*
G03*
X217219Y63110I406J-481D01*
G01*
G75*
G03*
X217206Y62352I3798J-446D01*
G01*
G75*
G02*
X217196Y62004I-1571J-130D01*
G01*
G75*
G02*
X217087Y61807I-313J44D01*
G01*
G75*
G02*
X216855Y61705I-287J338D01*
G01*
G75*
G02*
X216411Y61677I-443J3546D01*
G01*
G75*
G02*
X215921Y61715I0J3193D01*
G01*
G75*
G02*
X215692Y61853I54J348D01*
G01*
G75*
G02*
X215585Y62143I443J328D01*
G01*
G75*
G02*
X215561Y62825I9764J685D01*
G01*
G75*
G02*
X215772Y64029I3543J0D01*
G01*
G75*
G02*
X216380Y64774I1369J-495D01*
G01*
G75*
G02*
X217532Y65168I1450J-2362D01*
G01*
G75*
G02*
X219556Y65277I2025J-18741D01*
G01*
X222161D01*
Y63527D01*
X232961Y60477D02*
Y51177D01*
X230111D01*
G75*
G02*
X228233Y51190I-28J135833D01*
G01*
G75*
G02*
X227626Y51271I36J2569D01*
G01*
G75*
G02*
X227360Y51488I103J398D01*
G01*
G75*
G02*
X227261Y51913I865J426D01*
G01*
G75*
G02*
X227336Y52333I1218J0D01*
G01*
G75*
G02*
X227552Y52557I361J-133D01*
G01*
G75*
G02*
X228023Y52667I580J-1421D01*
G01*
G75*
G02*
X229286Y52738I3368J-48204D01*
G01*
X231311Y52827D01*
X231399Y55002D01*
X231487Y57177D01*
X229674D01*
G75*
G02*
X228536Y57193I-12J39267D01*
G01*
G75*
G02*
X228118Y57283I35J1184D01*
G01*
G75*
G02*
X227925Y57496I128J310D01*
G01*
G75*
G02*
X227861Y57927I1431J432D01*
G01*
G75*
G02*
X227924Y58358I1502J-1D01*
G01*
G75*
G02*
X228116Y58571I320J-96D01*
G01*
G75*
G02*
X228533Y58660I450J-1083D01*
G01*
G75*
G02*
X229661Y58677I1141J-38402D01*
G01*
X231461D01*
Y59577D01*
G75*
G02*
X231491Y60061I4030J-3D01*
G01*
G75*
G02*
X231599Y60312I479J-58D01*
G01*
G75*
G02*
X231814Y60439I286J-238D01*
G01*
G75*
G02*
X232211Y60477I398J-2059D01*
G01*
X232961D01*
Y63509D02*
G75*
G02*
X232939Y62657I-16015J-4D01*
G01*
G75*
G02*
X232860Y62101I-3219J171D01*
G01*
G75*
G02*
X232722Y61749I-1265J293D01*
G01*
G75*
G02*
X232511Y61569I-359J206D01*
G01*
G75*
G02*
X231967Y61464I-563J1466D01*
G01*
G75*
G02*
X231593Y61622I-6J507D01*
G01*
G75*
G02*
X231400Y62043I520J493D01*
G01*
G75*
G02*
X231405Y62735I3183J322D01*
G01*
X231527Y63777D01*
X229394D01*
G75*
G02*
X228024Y63792I-17J62837D01*
G01*
G75*
G02*
X227550Y63878I34J1532D01*
G01*
G75*
G02*
X227335Y64093I116J331D01*
G01*
G75*
G02*
X227261Y64527I1242J434D01*
G01*
G75*
G02*
X227358Y64963I1029J0D01*
G01*
G75*
G02*
X227621Y65182I366J-171D01*
G01*
G75*
G02*
X228222Y65264I635J-2411D01*
G01*
G75*
G02*
X230111Y65277I1899J-138777D01*
G01*
X232961D01*
Y63509D01*
X235961Y63512D02*
G75*
G02*
X235941Y62542I-22628J-8D01*
G01*
G75*
G02*
X235855Y62041I-2019J87D01*
G01*
G75*
G02*
X235678Y61759I-609J185D01*
G01*
G75*
G02*
X235379Y61594I-477J516D01*
G01*
G75*
G02*
X234879Y61554I-363J1389D01*
G01*
G75*
G02*
X234609Y61744I32J333D01*
G01*
G75*
G02*
X234486Y62247I1163J552D01*
G01*
G75*
G02*
X234461Y63527I33541J1290D01*
G01*
G75*
G02*
X234478Y64619I35338J-2D01*
G01*
G75*
G02*
X234569Y65027I1123J-35D01*
G01*
G75*
G02*
X234781Y65215I306J-131D01*
G01*
G75*
G02*
X235211Y65277I431J-1471D01*
G01*
G75*
G02*
X235642Y65215I0J-1526D01*
G01*
G75*
G02*
X235854Y65026I-94J-320D01*
G01*
G75*
G02*
X235944Y64615I-1047J-445D01*
G01*
G75*
G02*
X235961Y63512I-36244J-1095D01*
G01*
X240966Y55902D02*
X240911Y51327D01*
X240086Y51232D01*
X239261Y51137D01*
Y56877D01*
X235925D01*
X235988Y54102D01*
X236050Y51327D01*
X235256Y51232D01*
X234461Y51137D01*
Y60477D01*
X235192D01*
G75*
G02*
X235574Y60432I-1J-1660D01*
G01*
G75*
G02*
X235802Y60292I-99J-416D01*
G01*
G75*
G02*
X235938Y60017I-480J-407D01*
G01*
G75*
G02*
X236017Y59502I-4469J-954D01*
G01*
G75*
G03*
X236119Y58911I3996J385D01*
G01*
G75*
G03*
X236310Y58646I429J107D01*
G01*
G75*
G03*
X236686Y58515I461J723D01*
G01*
G75*
G03*
X237686Y58436I2364J23516D01*
G01*
X239261Y58346D01*
Y59411D01*
G75*
G02*
X239287Y60038I7612J-2D01*
G01*
G75*
G02*
X239398Y60311I491J-41D01*
G01*
G75*
G02*
X239633Y60442I286J-236D01*
G01*
G75*
G02*
X240141Y60477I510J-3698D01*
G01*
X241021D01*
X240966Y55902D01*
X240978Y63477D02*
G75*
G02*
X240977Y62784I-11636J-340D01*
G01*
G75*
G02*
X240931Y62195I-6206J189D01*
G01*
G75*
G02*
X240855Y61741I-5606J705D01*
G01*
G75*
G02*
X240746Y61639I-126J26D01*
G01*
G75*
G02*
X239911Y61578I-960J7294D01*
G01*
G75*
G02*
X239573Y61735I-7J425D01*
G01*
G75*
G02*
X239408Y62144I590J476D01*
G01*
G75*
G02*
X239322Y63402I30520J2715D01*
G01*
X239233Y65277D01*
X240079D01*
G75*
G02*
X240584Y65222I-1J-2334D01*
G01*
G75*
G02*
X240819Y65038I-75J-339D01*
G01*
G75*
G02*
X240927Y64636I-926J-463D01*
G01*
G75*
G02*
X240978Y63477I-39700J-2320D01*
G01*
X246161Y60477D02*
Y51137D01*
X245377Y51232D01*
X244593Y51327D01*
X244620Y55677D01*
G75*
G02*
X244631Y57361I4018981J-25475D01*
G01*
G75*
G02*
X244642Y58815I2193415J-14707D01*
G01*
G75*
G02*
X244652Y60080I6584713J-50635D01*
G01*
G75*
G02*
X244655Y60252I8087J-61D01*
G01*
G75*
G02*
X244707Y60339I102J-3D01*
G01*
G75*
G02*
X244880Y60411I420J-756D01*
G01*
G75*
G02*
X245123Y60461I404J-1359D01*
G01*
G75*
G02*
X245411Y60477I289J-2525D01*
G01*
X246161D01*
X248561Y64527D02*
G75*
G02*
X248516Y64111I-1941J-1D01*
G01*
G75*
G02*
X248368Y63900I-328J72D01*
G01*
G75*
G02*
X248063Y63800I-349J549D01*
G01*
G75*
G02*
X247379Y63777I-678J10245D01*
G01*
G75*
G03*
X246641Y63750I2J-9951D01*
G01*
G75*
G03*
X246345Y63625I37J-503D01*
G01*
G75*
G03*
X246192Y63349I313J-354D01*
G01*
G75*
G03*
X246104Y62652I8252J-1389D01*
G01*
G75*
G02*
X246026Y62027I-7578J628D01*
G01*
G75*
G02*
X245897Y61724I-686J114D01*
G01*
G75*
G02*
X245668Y61576I-317J239D01*
G01*
G75*
G02*
X245263Y61531I-396J1725D01*
G01*
G75*
G02*
X244843Y61572I10J2229D01*
G01*
G75*
G02*
X244648Y61711I56J284D01*
G01*
G75*
G02*
X244575Y61995I470J272D01*
G01*
G75*
G02*
X244611Y62656I10280J-220D01*
G01*
X244707Y63777D01*
X243484D01*
G75*
G02*
X242771Y63799I-2J11489D01*
G01*
G75*
G02*
X242459Y63898I42J677D01*
G01*
G75*
G02*
X242307Y64109I174J284D01*
G01*
G75*
G02*
X242261Y64527I1866J419D01*
G01*
Y65277D01*
X248561D01*
Y64527D01*
X253225Y70541D02*
X253961Y69804D01*
Y58431D01*
G75*
G02*
X253949Y51127I-2135130J-84D01*
G01*
G75*
G02*
X253877Y48493I-55332J195D01*
G01*
G75*
G02*
X253710Y47084I-10588J541D01*
G01*
G75*
G02*
X253339Y46267I-1849J346D01*
G01*
X252718Y45477D01*
X189889D01*
G75*
G02*
X148280Y45487I141J85144496D01*
G01*
G75*
G02*
X134988Y45554I741J1484546D01*
G01*
G75*
G02*
X127452Y45656I8523J901494D01*
G01*
G75*
G02*
X126461Y46077I26J1437D01*
G01*
G75*
G02*
X126100Y46775I916J915D01*
G01*
G75*
G02*
X125944Y48204I11787J2012D01*
G01*
G75*
G02*
X125874Y50904I59272J2898D01*
G01*
G75*
G02*
X125861Y58355I2258834J7545D01*
G01*
Y70033D01*
X126652Y70655D01*
X127442Y71277D01*
X252489D01*
X253225Y70541D01*
X267967Y77575D02*
G75*
G02*
X268241Y77430I-566J-1408D01*
G01*
G75*
G02*
X268523Y77213I-1457J-2184D01*
G01*
G75*
G02*
X268772Y76961I-1717J-1944D01*
G01*
G75*
G02*
X268942Y76714I-1039J-896D01*
G01*
G75*
G02*
X269098Y76119I-1167J-624D01*
G01*
G75*
G02*
X269182Y71850I-849226J-18974D01*
G01*
G75*
G02*
X269243Y66260I-436924J-7565D01*
G01*
G75*
G02*
X269261Y58224I-1798588J-7983D01*
G01*
Y40331D01*
X267507Y38577D01*
X112107D01*
X111184Y39500D01*
X110261Y40423D01*
Y76324D01*
X111184Y77100D01*
X112107Y77877D01*
X189709Y77858D01*
G75*
G02*
X220128Y77832I-6367J-25258733D01*
G01*
G75*
G02*
X245179Y77769I-17001J-11669352D01*
G01*
G75*
G02*
X267396Y77687I-659168J-181851302D01*
G01*
G75*
G02*
X267967Y77575I-6J-1542D01*
G01*
X0Y0D02*
M02*
