G04 DesignSpark PCB Gerber Version 10.0 Build 5299*
G04 #@! TF.Part,Single*
G04 #@! TF.FileFunction,Copper,L2,Bot*
G04 #@! TF.FilePolarity,Positive*
%FSLAX35Y35*%
%MOIN*%
G04 #@! TA.AperFunction,WasherPad*
%ADD71R,0.06142X0.06142*%
G04 #@! TD.AperFunction*
%ADD16C,0.01500*%
G04 #@! TA.AperFunction,ViaPad*
%ADD17C,0.04800*%
G04 #@! TA.AperFunction,WasherPad*
%ADD70C,0.06142*%
G04 #@! TD.AperFunction*
X0Y0D02*
D02*
D16*
X97100Y85055D02*
Y18126D01*
X108911Y6315D01*
X165565D01*
X166549Y7299D01*
X257337Y31492D02*
X256549D01*
Y7299D01*
X278203Y44307D02*
Y34270D01*
X273870Y29937D01*
X270329D01*
X266392Y26000D01*
Y6315D01*
X266549Y7299D01*
X286077Y69307D02*
Y29937D01*
X276549Y20409D01*
Y7299D01*
X306549Y60055D02*
Y7299D01*
D02*
D17*
X97100Y85055D03*
X257337Y31492D03*
X278203Y44307D03*
X286077Y69307D03*
X306549Y60055D03*
D02*
D70*
X166549Y107299D03*
X176549Y7299D03*
Y107299D03*
X186549Y7299D03*
Y107299D03*
X196549Y7299D03*
Y107299D03*
X206549Y7299D03*
Y107299D03*
X216549Y7299D03*
Y107299D03*
X226549Y7299D03*
Y107299D03*
X236549Y7299D03*
Y107299D03*
X246549Y7299D03*
Y107299D03*
X256549Y7299D03*
Y107299D03*
X266549Y7299D03*
Y107299D03*
X276549Y7299D03*
Y107299D03*
X286549Y7299D03*
Y107299D03*
X296549Y7299D03*
Y107299D03*
X306549Y7299D03*
Y107299D03*
X316549Y7299D03*
Y107299D03*
X326549Y7299D03*
Y107299D03*
X336549Y7299D03*
Y107299D03*
X346549Y7299D03*
Y107299D03*
D02*
D71*
X166549Y7299D03*
X0Y0D02*
M02*
