G04 DesignSpark PCB Gerber Version 10.0 Build 5299*
G04 #@! TF.Part,Single*
G04 #@! TF.FileFunction,Copper,L1,Top*
G04 #@! TF.FilePolarity,Positive*
%FSLAX35Y35*%
%MOIN*%
G04 #@! TA.AperFunction,WasherPad*
%ADD71R,0.06142X0.06142*%
G04 #@! TD.AperFunction*
%ADD25C,0.00500*%
%ADD16C,0.01500*%
G04 #@! TA.AperFunction,WasherPad*
%ADD19R,0.13800X0.03900*%
G04 #@! TA.AperFunction,ViaPad*
%ADD17C,0.04800*%
G04 #@! TA.AperFunction,WasherPad*
%ADD18R,0.13800X0.06300*%
%ADD70C,0.06142*%
G04 #@! TD.AperFunction*
X0Y0D02*
D02*
D16*
X56746Y29937D02*
X227848D01*
X246549Y11236D01*
Y7299D01*
X56746Y44307D02*
X278203D01*
X56746Y52181D02*
X312258D01*
X317573Y57496D01*
Y106276D01*
X316549Y107299D01*
X56746Y67929D02*
X283518D01*
X284896Y69307D01*
X286077D01*
X56746Y75803D02*
X142967D01*
X167967Y100803D01*
Y105882D01*
X166549Y107299D01*
X57730Y69307D02*
X50919D01*
X97100Y85055D02*
Y83677D01*
X56746D01*
X167967Y108677D02*
X166549Y107299D01*
X257337Y31492D02*
Y36433D01*
X56746D01*
X278203Y6315D02*
X276549Y7299D01*
X306549Y60055D02*
X56746D01*
D02*
D17*
X97100Y85055D03*
X257337Y31492D03*
X278203Y44307D03*
X286077Y69307D03*
X306549Y60055D03*
D02*
D18*
X34108Y19307D03*
Y92929D03*
D02*
D19*
X56746Y29937D03*
Y36433D03*
Y44307D03*
Y52181D03*
Y60055D03*
Y67929D03*
Y75803D03*
Y83677D03*
D02*
D70*
X166549Y107299D03*
X176549Y7299D03*
Y107299D03*
X186549Y7299D03*
Y107299D03*
X196549Y7299D03*
Y107299D03*
X206549Y7299D03*
Y107299D03*
X216549Y7299D03*
Y107299D03*
X226549Y7299D03*
Y107299D03*
X236549Y7299D03*
Y107299D03*
X246549Y7299D03*
Y107299D03*
X256549Y7299D03*
Y107299D03*
X266549Y7299D03*
Y107299D03*
X276549Y7299D03*
Y107299D03*
X286549Y7299D03*
Y107299D03*
X296549Y7299D03*
Y107299D03*
X306549Y7299D03*
Y107299D03*
X316549Y7299D03*
Y107299D03*
X326549Y7299D03*
Y107299D03*
X336549Y7299D03*
Y107299D03*
X346549Y7299D03*
Y107299D03*
D02*
D71*
X166549Y7299D03*
D02*
D25*
X250Y2772D02*
X351431D01*
Y113008D01*
X250D01*
Y2772D01*
X8124Y6709D02*
G75*
G03*
Y14583I0J3937D01*
G01*
G75*
G03*
Y6709I0J-3937D01*
G01*
Y101197D02*
G75*
G03*
Y109071I0J3937D01*
G01*
G75*
G03*
Y101197I0J-3937D01*
G01*
X0Y0D02*
M02*
